<?xml version="1.0" encoding="utf-8"?><svg version="1.1" id="Layer_1" xmlns="http://www.w3.org/2000/svg" xmlns:xlink="http://www.w3.org/1999/xlink" x="0px" y="0px" viewBox="0 0 89.6 122.88" style="enable-background:new 0 0 89.6 122.88" xml:space="preserve"><style type="text/css">.st0{fill-rule:evenodd;clip-rule:evenodd;}</style><g><path class="st0" d="M5.87,0.03h44.97c6.78,0,5.27-0.64,10.07,4.19c8.47,8.51,15.68,16.19,24.12,24.67 c5.05,5.08,4.55,3.32,4.55,10.46v77.66c0,3.23-2.64,5.87-5.87,5.87H5.87c-3.23,0-5.87-2.64-5.87-5.87V5.9 C0,2.67,2.64,0.03,5.87,0.03L5.87,0.03z M50.12,76.74c0-0.05-0.01-0.11-0.01-0.16c0-0.06,0-0.11,0.01-0.16V60.26l0-0.03H26.41 c-3.77,0-6.86,3.09-6.86,6.86v7.03H35.9c1.32,0,2.39,1.07,2.39,2.39v30.11l0,0.03h11.83c0-0.04,0-0.08,0-0.12V90.16 c0-0.05-0.01-0.11-0.01-0.16c0-0.06,0-0.11,0.01-0.16V76.74L50.12,76.74z M54.91,60.22l0,0.03v13.93h14.21l0.01,0v-7.11 c0-3.77-3.09-6.86-6.86-6.86H54.91L54.91,60.22z M69.13,78.97h-0.01H54.91v8.63h14.21l0.01,0V78.97L69.13,78.97z M69.13,92.39 h-0.01H54.91v14.14c0,0.04,0,0.08,0,0.12h7.37c3.77,0,6.86-3.09,6.86-6.86V92.39L69.13,92.39z M33.5,92.09H19.62l-0.06,0v7.7 c0,3.77,3.09,6.86,6.86,6.86h7.09l0-0.03V92.09L33.5,92.09z M19.56,87.3l0.06,0H33.5v-8.4H19.56V87.3L19.56,87.3z"/></g></svg>