<svg xmlns="http://www.w3.org/2000/svg" viewBox="0 0 19.04 32.37"><defs><style>.cls-1{fill-rule:evenodd;}</style></defs><g id="Layer_2" data-name="Layer 2"><g id="Layer_1-2" data-name="Layer 1"><path id="profile_ringtone" data-name="profile ringtone" class="cls-1" d="M17.14,0H1.9A1.9,1.9,0,0,0,0,1.9H0V30.47a1.9,1.9,0,0,0,1.9,1.9H17.14a1.9,1.9,0,0,0,1.9-1.9h0V1.9A1.9,1.9,0,0,0,17.14,0Zm-9,1H11a.49.49,0,0,1,.48.48A.48.48,0,0,1,11,1.9H8.09a.47.47,0,0,1-.47-.47A.48.48,0,0,1,8.09,1ZM9.52,31.42a1,1,0,1,1,1-1h0A.94.94,0,0,1,9.52,31.42Zm7.62-2.85H1.9V2.86H17.14Z"/></g></g></svg>