<svg xmlns="http://www.w3.org/2000/svg" viewBox="0 0 29.89 23.99"><defs><style>.cls-1{fill-rule:evenodd;}</style></defs><g id="Layer_2" data-name="Layer 2"><g id="Layer_1-2" data-name="Layer 1"><g id="Calque_2" data-name="Calque 2"><g id="Calque_1-2" data-name="Calque 1-2"><path id="Router" class="cls-1" d="M15.94,9.09A1.06,1.06,0,0,0,15,8h0A1.06,1.06,0,0,0,13.88,9v.07l-.32,7.84h2.77ZM28,17.93H1.87A1.87,1.87,0,0,0,0,19.8H0v2.32A1.87,1.87,0,0,0,1.87,24H28a1.87,1.87,0,0,0,1.87-1.87h0V19.8A1.87,1.87,0,0,0,28,17.93Zm-25,4a1,1,0,1,0,0-.1H3Zm3,0a1,1,0,1,1,0-2,1,1,0,0,1,0,2Zm20.94,0a1,1,0,0,1-1-1,1,1,0,0,1,1-1h0a1,1,0,0,1,1,1A1,1,0,0,1,26.91,21.91Z"/><path class="cls-1" d="M9.58,12a.85.85,0,0,0,.85-.83.82.82,0,0,0,0-.44,5.93,5.93,0,0,1-.07-6.06A.86.86,0,1,0,9,3.59l-.07.11h0a7.64,7.64,0,0,0-.09,7.87A.89.89,0,0,0,9.58,12Z"/><path class="cls-1" d="M5.92,13.28a.84.84,0,0,0,1.13.34l0,0a.81.81,0,0,0,.34-1.09l0-.06h0A9.29,9.29,0,0,1,7.38,3,.83.83,0,0,0,7.1,1.84h0A.8.8,0,0,0,6,2.06l0,.07h0A11,11,0,0,0,5.92,13.28Z"/><path class="cls-1" d="M4.14,15.31a.8.8,0,0,0,.34-1.09l0-.06a12.85,12.85,0,0,1,0-12.89A.8.8,0,0,0,4.2.15l-.06,0A.86.86,0,0,0,3,.42,14.48,14.48,0,0,0,3,15a.85.85,0,0,0,1.14.32Z"/><path class="cls-1" d="M19.78,12A.86.86,0,0,0,21,11.75h0a7.65,7.65,0,0,0,0-7.84.88.88,0,0,0-1.18-.3.85.85,0,0,0-.3,1.15h0a5.89,5.89,0,0,1,0,6.11A.86.86,0,0,0,19.76,12Z"/><path class="cls-1" d="M22.51,3a9.27,9.27,0,0,1,0,9.46.86.86,0,0,0,.3,1.16A.85.85,0,0,0,24,13.35v0h0A11,11,0,0,0,24,2.15a.85.85,0,0,0-1.16-.32A.87.87,0,0,0,22.49,3h0Z"/><path class="cls-1" d="M27.18,7.73a12.63,12.63,0,0,1-1.73,6.43.83.83,0,0,0,.29,1.14h0a.86.86,0,0,0,1.16-.3,14.48,14.48,0,0,0,0-14.59A.88.88,0,0,0,25.75.11a.86.86,0,0,0-.3,1.16h0A12.74,12.74,0,0,1,27.18,7.73Z"/></g></g></g></g></svg>