<svg xmlns="http://www.w3.org/2000/svg" viewBox="0 0 18.84 30.51"><defs><style>.cls-1{fill:#fff;}.cls-2{fill-rule:evenodd;}</style></defs><g id="Layer_2" data-name="Layer 2"><g id="Layer_1-2" data-name="Layer 1"><rect class="cls-1" x="12.56" y="18.84" width="4.49" height="4.49"/><path class="cls-1" d="M17.05,14.36a.9.9,0,0,0-.9-.9H12.56V18h4.49Z"/><rect class="cls-1" x="7.18" y="24.23" width="4.49" height="4.49"/><path class="cls-1" d="M17.05,27.82V24.23H12.56v4.49h3.59A.9.9,0,0,0,17.05,27.82Z"/><polygon class="cls-1" points="11.67 13.46 7.18 13.46 7.18 18.84 1.79 18.84 1.79 23.33 11.67 23.33 11.67 13.46"/><path class="cls-1" d="M6.28,13.46H2.69a.9.9,0,0,0-.9.9V18H6.28Z"/><path class="cls-1" d="M2.69,28.72H6.28V24.23H1.79v3.59A.91.91,0,0,0,2.69,28.72Z"/><path class="cls-2" d="M15.44,2.87,12.56,0H1.79A1.79,1.79,0,0,0,0,1.79V28.72a1.79,1.79,0,0,0,1.79,1.79H17.05a1.79,1.79,0,0,0,1.79-1.79V6.28ZM6.28,13.46V18H1.79V14.36a.9.9,0,0,1,.9-.9Zm0,15.26H2.69a.91.91,0,0,1-.9-.9V24.23H6.28Zm5.39,0H7.18V24.23h4.49Zm0-5.39H1.79V18.84H7.18V13.46h4.49Zm5.38,4.49a.9.9,0,0,1-.9.9H12.56V24.23h4.49Zm0-4.49H12.56V18.84h4.49Zm0-5.38H12.56V13.46h3.59a.9.9,0,0,1,.9.9Z"/></g></g></svg>