<svg xmlns="http://www.w3.org/2000/svg" xmlns:xlink="http://www.w3.org/1999/xlink" viewBox="0 0 292.31 275.15"><defs><style>.cls-1{fill:#fff;}.cls-2{fill:#222c38;fill-rule:evenodd;}.cls-3{fill:#09f;}.cls-4{fill:#0c9;}.cls-5{fill:#00d358;}.cls-6{fill:url(#linear-gradient);}</style><linearGradient id="linear-gradient" x1="-459.82" y1="1692.97" x2="-458.58" y2="1692.97" gradientTransform="matrix(59.01, 0, 0, -42.99, 27160.34, 72912.99)" gradientUnits="userSpaceOnUse"><stop offset="0" stop-color="#01d358"/><stop offset="0.5" stop-color="#0c9"/><stop offset="1" stop-color="#09f"/></linearGradient></defs><g id="Layer_2" data-name="Layer 2"><g id="Layer_1-2" data-name="Layer 1"><path class="cls-1" d="M55.83,274.42c-.07.5-.28.78-.67.72-.65-.1-1.3-.24-2-.38-.19,0-.45.07-.55-.29,0-.08.11-.22.16-.34a.25.25,0,0,0-.08-.16l-1,0,0,0a1.35,1.35,0,0,0-1.14-.28c-.33.06-.65.18-1,.25a1.17,1.17,0,0,1-1-.2,1.86,1.86,0,0,0,.33,0s.07-.07.1-.11c-.19-.12-.28.09-.41.18a1.45,1.45,0,0,1-.47-.26.94.94,0,0,0-.64-.38,4.49,4.49,0,0,1-1.37-.19,38,38,0,0,0-3.68-1.13c-2.21-.6-4.38-1.45-6.55-2.27-1-.38-2.07-.71-3.11-1.08-.54-.19-1.09-.37-1.63-.61a1.43,1.43,0,0,1-.7-.94.28.28,0,0,1,0-.2c0-.06.08-.13.12-.13l3,.65c.5.12,1,.27,1.49.38.09,0,.19-.08.31-.13a3.1,3.1,0,0,0-1.54-.74c-.63-.19-1.26-.41-1.9-.57a29.46,29.46,0,0,1-4.38-1.43c-1.08-.44-2.18-.74-3.28-1.09-.71-.23-1.42-.43-2.14-.65-.17-.05-.36-.35-.3-.49a1.21,1.21,0,0,1,.29-.47,1.53,1.53,0,0,1,1.29-.24,8.47,8.47,0,0,0,2.66,0c.16.1.31.2.46.28a.25.25,0,0,0,.17,0s.07-.08.1-.12-.16-.16-.25-.17a2.73,2.73,0,0,0-.49.06,3,3,0,0,0-.6-.37c-.69-.21-1.39-.37-2.09-.58s-1.27-.41-1.89-.61c0-.35,0-.65-.23-.82a3.7,3.7,0,0,1-.42-.38v0l3.63-.33a2.56,2.56,0,0,0,.26.2c.13.07.2,0,.16-.12s-.09,0-.14-.05h-.3a2.15,2.15,0,0,0-.91-.52c-.71-.2-1.41-.42-2.11-.6-.46-.11-.65-.55-.78-1.06,0-.09.06-.33.11-.33.6,0,1.19,0,1.79-.06.1.06.19.13.29.18s.2,0,.15-.13-.1,0-.15,0l-.3,0A5.07,5.07,0,0,0,21,255.06a.29.29,0,0,1-.15-.35.18.18,0,0,1,.14-.1c.55,0,1.11,0,1.66.06.72.05,1.44.14,2.16.19.07,0,.2-.18.19-.24s-.12-.29-.2-.31c-.66-.17-1.33-.3-2-.46-.49-.12-1-.25-1.48-.41a1.68,1.68,0,0,1-.82-.77c-.14-.22-.06-.71.13-.74a6.62,6.62,0,0,1,1-.09c.44,0,.88,0,1.32,0,.05,0,.11-.2.15-.32a.28.28,0,0,0-.07-.19,1.46,1.46,0,0,0-.93-.48c-.72-.15-1.44-.25-2.16-.42a10.19,10.19,0,0,1-1.46-.52c-.08,0-.13-.22-.17-.35s.07-.12.12-.13a.71.71,0,0,1,.32-.07c1.61.28,3.21-.05,4.82.31a.41.41,0,0,0,.32-.06c.07,0,.12-.18.16-.28s-.07-.14-.11-.15c-.43-.13-.87-.26-1.31-.37l-1.65-.37s-.07-.1-.11-.15c.13-.85.53-1.22,1.16-1.19.11,0,.22,0,.33,0a9.26,9.26,0,0,1,1.17.11,5.55,5.55,0,0,0,2,0,.69.69,0,0,0,.11.13s.07,0,.11,0l-.24-.1a4.91,4.91,0,0,0-2.27-.69c-.93-.15-1.86-.32-2.8-.52a2.5,2.5,0,0,1-.78-.36c-.07,0-.1-.24-.12-.38s.07-.11.11-.13a3.73,3.73,0,0,1,2-.12c.44.06.88.09,1.29.12.19-.5-.22-.43-.26-.66s0-.37,0-.39c.29-.16.61-.26.91-.39,0,0,.12-.11.11-.15s-.05-.31-.12-.36c-.3-.22-.61-.39-.92-.58l-.91-.55,0,0a8.2,8.2,0,0,1,2.66.1c.66.12,1.33.18,2,.27.16-.14.15-.28,0-.35a7.7,7.7,0,0,0-1-.37l-5.05-1.34c-.13-.26-.09-.36.07-.38A17.1,17.1,0,0,1,24,240a9.25,9.25,0,0,0,1.82-.05c.33.24.66.41,1,.1-.37-.26-.71-.08-1-.07a2.49,2.49,0,0,0-.62-.36c-1-.24-2-.48-3-.62-1.95-.28-3.87-.91-5.8-1.33-.09,0-.17-.16-.26-.25a1.15,1.15,0,0,1,1.19-.55c1.84.27,3.66,0,5.44.13.13-.2.1-.3-.05-.35a2.33,2.33,0,0,1-1.2-.83,2,2,0,0,0-.58-.43,7.81,7.81,0,0,1-.75-.53c-.22-.23-.4-.56-.63-.78a5,5,0,0,0-.75-.53,1.47,1.47,0,0,1,1.2-.19,13.27,13.27,0,0,0,3.83-.09c.66-.05,1.31-.16,2-.26,0,0,.11-.1.1-.13a.67.67,0,0,0-.14-.33,1,1,0,0,0-.48-.19,16.53,16.53,0,0,1-4-.88c-.33-.11-.66-.16-1-.26a.5.5,0,0,1-.4-.35c-.06-.15.1-.32.33-.35l2-.23a1.21,1.21,0,0,0,1.27.27s.08-.09.09-.15,0-.13-.07-.13l-1.3,0a5.76,5.76,0,0,0-.78-.4c-.38-.14-.77-.21-1.15-.32a.23.23,0,0,1-.16-.3.21.21,0,0,1,.12-.11,1.91,1.91,0,0,1,.33-.06c.31,0,.54-.16.38-.69.12-.41.46-.29.69-.45,0,0,.12-.09.12-.12s-.05-.3-.12-.35c-.34-.27-.7-.5-1.05-.75v0a11.57,11.57,0,0,1,2.82,0,10.73,10.73,0,0,0,3.83-.22,20,20,0,0,0,4-1.2,18.61,18.61,0,0,1,2.4-.77,4.71,4.71,0,0,0,.76-.35.23.23,0,0,0,.08-.18c0-.13-.08-.33-.13-.35-.6-.19-1.21-.35-1.81-.53a.22.22,0,0,1-.11-.15c0-.18,0-.31.14-.35a7.29,7.29,0,0,1,1.13-.32,5.26,5.26,0,0,0,2-.8,5.87,5.87,0,0,1,2.69-1,8.1,8.1,0,0,0,1-.2c.27-.06.41-.25.3-.35a.87.87,0,0,0-.43-.28,2.89,2.89,0,0,0-.83,0,5,5,0,0,1-2.82-.36,2,2,0,0,0-.83-.14c-2-.05-4-.3-6-.5a5.72,5.72,0,0,0-1.17,0,1.23,1.23,0,0,1-1.1-.29,1.53,1.53,0,0,1-.31-.79,1.29,1.29,0,0,0-.13-.42,1.32,1.32,0,0,0-.39-.42,1,1,0,0,0-.49-.12c-.33,0-.67,0-1,0,.33-.39.75-.22,1.12-.31.67-.18.88-.57.79-1.59a1.8,1.8,0,0,0-.06-.22,1,1,0,0,1,.11-.81,2.21,2.21,0,0,0,.22-.81c0-.8-.09-1.52-.8-1.75,0,0,0-.12-.06-.19.42-.15.84-.28,1.26-.46.27-.11.39-.46.35-.89-.08-.86-.15-1-.81-1.2a4.89,4.89,0,0,1-.48-.2.27.27,0,0,1-.11-.17c-.05-.17,0-.31.11-.36.43-.14.86-.25,1.28-.42a1.18,1.18,0,0,0,.62-.67c.13-.3,0-.85-.31-.88a8.27,8.27,0,0,0-1-.05l-2.33,0c-.67,0-1.34,0-2,0a4.09,4.09,0,0,1-2.23-.44,2.84,2.84,0,0,1,.48-.31,14.11,14.11,0,0,1,1.78-.46c1.37-.21,2.75-.36,4.13-.53a4.78,4.78,0,0,0,.66-.11c.07,0,.12-.16.18-.24s-.07-.13-.12-.14a8.52,8.52,0,0,0-2.5-.3,12.07,12.07,0,0,1-1.64,0c.71-.23,1.08-.34,1.44-.47a9.28,9.28,0,0,1,1.11-.41c.47-.11.62-.46.61-1.07a.39.39,0,0,1,.36-.38c.6-.11,1.2-.19,1.81-.29.17,0,.22-.24.05-.45s-.09-.29,0-.46a.44.44,0,0,0-.11-.68c-.11,0-.22-.08-.33-.1l-.66-.09c-.12-.23,0-.27.36-.28l.71-.15c.25-.09.61-.05.7-.5.05-.22-.14-.46-.45-.55s-.44-.11-.66-.18a.75.75,0,0,1-.31-.18.9.9,0,0,1-.12-.38s0-.13.09-.16c.41-.26.87-.15,1.3-.22a3.36,3.36,0,0,0,.79-.27c.19-.09.19-.57,0-.77a1.18,1.18,0,0,0-.77-.45c-.55-.05-1.11-.05-1.71-.07.21-.29.47-.19.68-.23.6-.11,1.21-.19,1.8-.32.13,0,.16-.2.1-.34a.31.31,0,0,0-.1-.17,2.8,2.8,0,0,0-.81-.25c-.95,0-1.89.08-2.83.13a13.92,13.92,0,0,1-2.5,0,17.5,17.5,0,0,0-2.17,0,4.74,4.74,0,0,1-.82-.11s-.07-.11-.07-.17,0-.17,0-.19a3,3,0,0,1,.59-.31c.32-.1.66-.14,1-.24.58-.19,1.17-.4,1.75-.62,0,0,.05-.11.08-.17l-.2-.46,2.14-.37c.14,0,.19-.14.15-.28a.26.26,0,0,0-.12-.13,2.84,2.84,0,0,0-.5-.06,1,1,0,0,1-.89-.55.92.92,0,0,0-.88-.55c-.56,0-1.12,0-1.67,0-.84,0-1.67-.09-2.51-.16-.08,0-.16-.13-.3-.26a12.32,12.32,0,0,1,3.09-.86,9.53,9.53,0,0,0,2.44-.58,9.9,9.9,0,0,1,3.28-.59c.72,0,1.44-.1,2.15-.16a.32.32,0,0,0,.31-.38.41.41,0,0,0-.41-.3c-.73,0-1.45,0-2.17,0-.37,0-.75.17-1.13-.07.31-.38.73-.22,1.1-.34a8.46,8.46,0,0,1,1.28-.37c.38,0,.78.1,1.17.1a3.35,3.35,0,0,0,.81-.17c.14,0,.2-.39.08-.54a1.29,1.29,0,0,1-.37-1c0-.39-.17-.64-.36-.66a10.08,10.08,0,0,0-1.33-.11c-.78,0-1.56.08-2.34.12a1.1,1.1,0,0,1-.95-.34,1.19,1.19,0,0,0-1.44-.23,30.57,30.57,0,0,1-5.92,1.79v0a2.91,2.91,0,0,0,0-.66,1,1,0,0,1,.16-1,2.09,2.09,0,0,0,.17-.37.8.8,0,0,0-.06-.2.77.77,0,0,1-.2-.95,2.53,2.53,0,0,0,.18-.37.64.64,0,0,0-.1-.61l-.23-.34c0-.14,0-.33.05-.41.62-.75.72-2,1.25-2.8a1.39,1.39,0,0,0,.1-.63,5.9,5.9,0,0,0-.13-2,1,1,0,0,1,.09-.83,1.62,1.62,0,0,0,.17-1.05c0-.3-.09-.6-.14-.89a12.13,12.13,0,0,1-.27-1.54c0-.5.28-.93.18-1.49a.52.52,0,0,1,.21-.53c.78-.52.72-1.56.81-2.5a.26.26,0,0,0-.08-.21c-.42-.41-.4-1-.47-1.69.34-.57.71-1.19,1.07-1.81a.26.26,0,0,0,0-.21c-.06-.11-.14-.27-.22-.28a8.35,8.35,0,0,0-1-.06c-.14-.1-.15-.25,0-.3a1.71,1.71,0,0,0,1-1.05c.26-.72.51-1.44.8-2.14a1.7,1.7,0,0,0,.1-1.07,4.41,4.41,0,0,1-.15-2,2,2,0,0,0-.1-1.09c-.36-.75-.29-1.26.23-1.69a2,2,0,0,0,.32-.49c.09-.15,0-.53-.11-.59a1.16,1.16,0,0,1-.79-1.05,2.63,2.63,0,0,0-.32-.8c-.16-.32-.58-.32-.62-.74a2.41,2.41,0,0,0-.29-1,.54.54,0,0,1,0-.38c.28-.22.58-.39.87-.59a.65.65,0,0,0,.26-.72,2.47,2.47,0,0,1,.79-2.43,5.19,5.19,0,0,1,2.35-1.47,2.14,2.14,0,0,0,.47-.2,37.2,37.2,0,0,1,4.66-2.1.47.47,0,0,0,.15-.34c0-.1-.13-.27-.21-.27a2.51,2.51,0,0,0-.82,0c-.44.09-.86.24-1.3.34a3.62,3.62,0,0,1-.66,0c-.14,0-.34-.33-.29-.49.13-.47.29-.94.42-1.42a2.43,2.43,0,0,0,.15-.83,3.05,3.05,0,0,1,.47-2,2.63,2.63,0,0,0,.39-2.05,2.18,2.18,0,0,1,.23-1.26c.22-.62.07-.88-.53-1,0,0-.11,0-.16,0-.52-.08-.79-.58-.67-1.26a1.23,1.23,0,0,1,.1-.41,4.7,4.7,0,0,0,.54-2.27,17.22,17.22,0,0,1,.66-4.1c.1-.34.16-.71.23-1a11.06,11.06,0,0,0-.79-2,.27.27,0,0,1,0-.37c.22-.2.48-.34.71-.53a.58.58,0,0,0,.13-.91,6.67,6.67,0,0,1-.79-3.19,2.73,2.73,0,0,1,.21-1c.15-.39.39-.71.53-1.1s.33-.68.13-1c-.11-.19-.39-.21-.6-.32a.94.94,0,0,1-.31-.17.7.7,0,0,1-.1-.35c.25-.29.53-.51.76-.81a2.49,2.49,0,0,0,.33-.74.85.85,0,0,0-.07-.39.19.19,0,0,0-.15-.09,3.82,3.82,0,0,0-.82.15c-1.63.61-3.27,1.23-4.89,1.88-2,.79-4,1.67-6,2.4a31.36,31.36,0,0,1-3.88,1A5,5,0,0,1,11,113a1.25,1.25,0,0,1-.86-.68,3.2,3.2,0,0,1-.63-2.27,2.46,2.46,0,0,0,0-.66,2.81,2.81,0,0,1,.23-1.72,2.39,2.39,0,0,0,.11-1.88,1.8,1.8,0,0,1,.18-1.27c.19-.41.13-.54-.29-.8l-.16-.07a.38.38,0,0,1-.08-.65c.36-.4.36-.4.23-.82s-.17-.52.12-.68a2.13,2.13,0,0,0,.91-1.2,3.8,3.8,0,0,0,.25-1.49c0-1.13,0-2.25-.06-3.38a5.73,5.73,0,0,1,.54-2.74c.15-.3.32-.59.45-.91a2.27,2.27,0,0,0,.22-.81,22.2,22.2,0,0,1,.37-2.85c0-.21.07-.48-.12-.59s-.31.11-.4.29c-.2.42-.46.57-.84.39A2.8,2.8,0,0,0,9.45,88c-.07,0-.2-.16-.22-.27a.8.8,0,0,1,.08-.4.5.5,0,0,1,.26-.24,1.44,1.44,0,0,0,1.12-1.37c0-.1.17-.15.27-.22l0,0a1.89,1.89,0,0,0,1.23.69.67.67,0,0,0,.73-.67c.3-2.34.66-4.65,1.12-6.93.08-.42.17-.86.21-1.3a25,25,0,0,1,.88-5.2c-.16-.15-.29-.37-.43-.38-.44,0-.88,0-1.33,0-.94,0-1.89,0-2.83-.1a6,6,0,0,1-2.46-.71,4.48,4.48,0,0,1-.47-.28c-1.62-1.1-2-2.77-1.21-4.86a11.42,11.42,0,0,1,.9-1.82,9.11,9.11,0,0,0,1.17-3.59c.21-1.38.29-2.79.58-4.15a2.19,2.19,0,0,0,0-.44c0-.27-.26-.62-.45-.61a4.25,4.25,0,0,0-2.42.51,5.82,5.82,0,0,1-1.42.49,4.44,4.44,0,0,0-.77.35.91.91,0,0,0-.39.66v0a1.2,1.2,0,0,0-.95.25l-.68.6a4.12,4.12,0,0,0-.76-.52,4.55,4.55,0,0,0-.82-.15A.45.45,0,0,1,0,56.83a.51.51,0,0,1,.12-.37,3,3,0,0,0,1.3-1.54c.12-.26.34-.44.56-.35.91.33,1.61-.16,2.31-.75l0,0c.5,0,1,0,1.5.11a5,5,0,0,0,2.61-.41A2.16,2.16,0,0,0,9.61,51.7a8.08,8.08,0,0,0,.12-1.56,5.63,5.63,0,0,1,.57-2.94,1.51,1.51,0,0,0,.21-.81A5.55,5.55,0,0,1,11,44.07a23.78,23.78,0,0,0,.63-2.74c.31-1.64.61-3.28.89-4.93a3.63,3.63,0,0,0,0-1.14,18.57,18.57,0,0,1,.1-3.34,4.14,4.14,0,0,1,1.2-2.76,7.62,7.62,0,0,1,2.32-1.57c.62-.28,1.24-.56,1.87-.81a43.37,43.37,0,0,1,4.61-1.6,26.87,26.87,0,0,0,4.47-1.47,8,8,0,0,1,3.07-.81.89.89,0,0,0,.71-.46c.1-.13.31-.24.43-.19a3.48,3.48,0,0,0,3.23-.39,4.59,4.59,0,0,1,1.92-.57c2-.23,4.08-.46,6.11-.76,1-.15,2-.45,2.95-.68a6,6,0,0,1,1.26-.16,2.2,2.2,0,0,0,1.45-.46A1.14,1.14,0,0,1,49,19a6.1,6.1,0,0,0,1.86,0l.56.07a2.24,2.24,0,0,0,1.67,0,10,10,0,0,1,1.19-.33l3.24-.61c.27,0,.54-.13.82-.17a15.18,15.18,0,0,0,3.19-.65A7.91,7.91,0,0,1,62.73,17a9.57,9.57,0,0,0,3.12-.58.92.92,0,0,1,.28-.09l5-.64c.6-.08,1.2-.16,1.81-.26l1.47-.29a5.44,5.44,0,0,0,2.52-.92,1.17,1.17,0,0,1,1-.19c.5.07,1,.07,1.5.09,1.61,0,3.18-.48,4.79-.43a2.53,2.53,0,0,0,1.14-.25,6.18,6.18,0,0,0,1-.69,5.25,5.25,0,0,1,.63.31,1.3,1.3,0,0,0,1,.21,16.63,16.63,0,0,0,3-.52.9.9,0,0,1,.56,0,4.49,4.49,0,0,0,3.14-.74,2.81,2.81,0,0,1,1.59-.27,3.88,3.88,0,0,1,.76,0c1.5.45,3,.06,4.42-.06l.06,0a24.51,24.51,0,0,1,3.55-1,3.33,3.33,0,0,0,.59-.36l0,0c.09.38.12.75-.19.95a5.18,5.18,0,0,1-2.72.8,7.12,7.12,0,0,0-2.61.5,5.55,5.55,0,0,1-1.47.21c-.66.08-1.33.14-2,.23a1.56,1.56,0,0,0-.44.23c.29.32.57.19.84.17a6.57,6.57,0,0,1,2.16.09,6.57,6.57,0,0,0,1.66,0,5.26,5.26,0,0,1,1.73,0c-.36.48-.76.27-1.11.33s-.66.07-1,.11L99.33,14a8,8,0,0,0-1,.17c-.38.09-.76.22-1.13.33l-1,.29c-.37.1-.75.18-1.13.27,0,.17.07.23.22.22a3,3,0,0,1,.67,0,2.76,2.76,0,0,0,2.27-.49,2,2,0,0,1,.79-.29c1.38-.15,2.76-.27,4.14-.39a1.12,1.12,0,0,1,1.22.58.39.39,0,0,0,.3.17,2.17,2.17,0,0,0,2-.67,1.24,1.24,0,0,1,.89-.47c0,.12.09.25.14.36a.24.24,0,0,0,.11.13s.08,0,.12,0,0-.25-.1-.31-.19-.09-.28-.13a5,5,0,0,1,2.38-.68c1.36-.22,2.73-.35,4.09-.56.82-.12,1.62-.32,2.43-.49l0,0a1.78,1.78,0,0,0,1.78.09c.14,0,.13-.26,0-.55a.7.7,0,0,0-.13-.16l0,0c.15-.07.31-.23.44-.19a2.72,2.72,0,0,1,.61.39c.29.18.55.17.59,0a1.72,1.72,0,0,0,0-.64c-.15-.7-.33-.9-.85-.87-.88,0-1.76.12-2.64.23a17.76,17.76,0,0,1-2.82.21,16.59,16.59,0,0,0-3.94.57,1,1,0,0,1-1-.14.3.3,0,0,1-.08-.19c0-.05,0-.16,0-.17a3.37,3.37,0,0,1,.76-.33,7.21,7.21,0,0,0,2.43-.59,2.4,2.4,0,0,1,1-.11l1.16-.09s.1-.08.1-.14,0-.22-.19-.28a1.34,1.34,0,0,1-.27-.27c.5,0,1-.26,1.35,0a1.65,1.65,0,0,0,1.81-.15,3.25,3.25,0,0,1,1.42-.37.93.93,0,0,1,.93.39.68.68,0,0,0,1.08.13,2,2,0,0,1,1.08-.44A9.82,9.82,0,0,1,124,8.07a3.36,3.36,0,0,0,1-.14,1.32,1.32,0,0,1,1.11.2c-.6.63-1.41.18-2.2.6a3.07,3.07,0,0,0,.57.16,9.86,9.86,0,0,0,3.74-.71v0a1,1,0,0,0,.79.33c.44,0,.88-.05,1.32-.1a1.23,1.23,0,0,0,1-.62,1,1,0,0,1,1.06-.43c.26,0,.4.17.35.56a.42.42,0,0,0,.2.31,1.06,1.06,0,0,0,.65.07,10.58,10.58,0,0,1,2.78-.42,29.18,29.18,0,0,1,5.12-.22,1.39,1.39,0,0,0,1.36-.58.72.72,0,0,1,1.07-.21,1.28,1.28,0,0,0,1,.2c1.2-.17,2.41-.24,3.61-.37a5.21,5.21,0,0,0,.95-.29c.41-.71,1.05-.67,1.64-.8l0,0c.17.21.32.53.51.58a3,3,0,0,0,2.13-.07,2.4,2.4,0,0,0,.29-.19c.27-.16.27-.24.07-.83a7.45,7.45,0,0,1,4.18-1,1.08,1.08,0,0,1,.9.55c.33.52.68,1,1,1.54,0,0,.09.07.19.13a15.68,15.68,0,0,0,1.55-.52,7.48,7.48,0,0,1,4.1-.48,5.08,5.08,0,0,0,1.65-.07,13.45,13.45,0,0,1,3.63-.36c.78.05,1.56-.06,2.33-.07.5,0,1,0,1.5,0l2.16,0c.28,0,.38-.16.3-.54,0,0,.17-.2.24-.17a17.35,17.35,0,0,0,3.15.61,6.56,6.56,0,0,0,2.64-.22c.59-.12,1.19-.21,1.79-.32a4.08,4.08,0,0,0,1-.21,13.24,13.24,0,0,1,4.25-.78l3.28-.31a5.8,5.8,0,0,0,1.38-.26,4.7,4.7,0,0,1,1.93-.25,2.1,2.1,0,0,0,.66,0,31.51,31.51,0,0,1,7.44-.78c.94,0,1.89.1,2.83.1a6.43,6.43,0,0,0,2.55-.46,4.56,4.56,0,0,1,2.4-.25,10.73,10.73,0,0,0,2.12,0c1.23,0,2.45-.21,3.68-.24.77,0,2-.2,2.8-.3a19,19,0,0,1,2.14-.1l4.82-.19a17.56,17.56,0,0,1,3,0A4,4,0,0,0,233.91,0c.07,0,.21.09.28.18a.71.71,0,0,1,0,.62,1,1,0,0,1-1.18.55A3.48,3.48,0,0,1,232.4,1a.87.87,0,0,0-1.08.28v0a3.71,3.71,0,0,0-.82-.26,21.5,21.5,0,0,0-5.07,0,5.38,5.38,0,0,1-1.55.1,2,2,0,0,0-1.91.64l0,0a10,10,0,0,1-1.34,0,20.23,20.23,0,0,0-5,.2,3.74,3.74,0,0,0-1.74.6,13.15,13.15,0,0,1-1.4.73c0,.08,0,.18.17.17a4.69,4.69,0,0,1,2.47.43,2.18,2.18,0,0,0,1.16.12c.94-.05,1.88-.15,2.82-.2a2.24,2.24,0,0,1,1.33,0c-.06.1-.1.25-.16.26l-3.63.45a8.94,8.94,0,0,0-1.15.21c-.17,0-.25.25-.26.49a.62.62,0,0,0,.23.56A4.23,4.23,0,0,0,216,6c.08.24-.08.3-.46.23a4.61,4.61,0,0,0-2.38.23c-1,.34-2.07.28-3.08.6a21,21,0,0,1-4.43.75,21.44,21.44,0,0,0-4.28.61,5.89,5.89,0,0,1-1.33,0,4.42,4.42,0,0,0-.79.22c-.13,0-.23.43-.14.56s.17.25.25.25a5.51,5.51,0,0,0,3.24-.66,1.14,1.14,0,0,1,.8-.17,15.81,15.81,0,0,0,3.83-.17c2.43-.21,4.86-.45,7.29-.69.77-.07,1.54-.17,2.31-.25,0,0,.11.06.14.12s0,.32-.1.36c-.32.09-.65.15-1,.23a4.8,4.8,0,0,0-.63.24.25.25,0,0,0-.09.17c0,.18,0,.32.19.31.55,0,1.11,0,1.66-.06,1.82-.12,3.65-.24,5.48-.34,0,0,.09.07.11.12a.34.34,0,0,1,0,.2,1.07,1.07,0,0,1-.83.6c-1.33.1-2.66.21-4,.33-.39,0-.77.13-1.2.2.3.34.58.14.84.17,1.11.13,2.23.2,3.34.36a7.42,7.42,0,0,0,3.62-.31,4.19,4.19,0,0,1,1.32-.15c.5,0,1,.11,1.5.06a3.27,3.27,0,0,1,1.48.15,4,4,0,0,0,1.33.09,8.19,8.19,0,0,1,1-.12,6.73,6.73,0,0,0,2.49,0,11.64,11.64,0,0,0,2.83-.07,9.57,9.57,0,0,1,2.33.07,3.51,3.51,0,0,0,2.44-.35,3.2,3.2,0,0,1,.64-.21c0-.35-.2-.23-.31-.27a2.62,2.62,0,0,1-.5-.07,4.44,4.44,0,0,0-2.64-.18,3.83,3.83,0,0,1-2.49-.18.31.31,0,0,1-.11-.16.23.23,0,0,1,0-.2,2.05,2.05,0,0,1,1.43-.4,2.52,2.52,0,0,0,1.06-.09,3.8,3.8,0,0,1,2.38-.13c.2,0,.24-.2.2-.47,0-.11,0-.33.12-.35a2.59,2.59,0,0,1,2.58.48c.43.36.95.54,1.29,1.11a1.35,1.35,0,0,1,.23.59,3.41,3.41,0,0,0,0,1.31s-.12.21-.2.28-.36.17-.39.32c-.07.39.24.41.42.56a3.47,3.47,0,0,1,.43.35,1,1,0,0,1,.18.38c0,.16-.13.48-.26.49a4.14,4.14,0,0,1-1,.08,15.34,15.34,0,0,0-2.87-.09,5.32,5.32,0,0,1-.89,0,15.29,15.29,0,0,0-5,.26,3.06,3.06,0,0,0,.6.08,16.1,16.1,0,0,1,3.86.06,3.7,3.7,0,0,0,.94,0,9.87,9.87,0,0,1,2.36.15,5.11,5.11,0,0,1,2.58,1,2.27,2.27,0,0,0,1.46.5h.33a12.09,12.09,0,0,1,4.16.53,7.61,7.61,0,0,0,1.34.2,3.16,3.16,0,0,1,1.45.55.32.32,0,0,1,.06.17.25.25,0,0,1-.09.17l-.9.33c.38.11.67.21,1,.28s.56.14.83.19.67.08,1,.15.54.17.83.26a2.57,2.57,0,0,1-.64,1.51.91.91,0,0,0,0,.83c.18.29.4.55.57.85a.45.45,0,0,1-.09.35.72.72,0,0,1-.47.12c-.44-.06-.89-.18-1.33-.23-.21,0-.44-.07-.61.17l.54.49a.23.23,0,0,1,.06.19c0,.12-.1.3-.17.31a18.1,18.1,0,0,0-2.3.3c-.55-.43-1.13-.24-1.7-.3-.22-.1-.44-.35-.69-.12.23.19.47.07.7.1a2.31,2.31,0,0,0,1.7.29,1.89,1.89,0,0,0,.47.27c.78.23,1.56.39,2.34.65a3.93,3.93,0,0,0,2,.19,1.77,1.77,0,0,1,.79.16c.23.08.26.46.09.71s-.44.16-.4.59c1.05.1,2.11.19,3.16.31a3.18,3.18,0,0,1,.82.24.48.48,0,0,1,.22.32.51.51,0,0,1-.1.37,4.05,4.05,0,0,1-.73.46c-.41.2-.84.35-1.24.55a.41.41,0,0,0-.16.33c0,.11.13.3.21.31.44,0,.89,0,1.33.07a1.86,1.86,0,0,1,.49.18c-.36.49-.87.4-1.22.73s-.46.38-.66.61a.83.83,0,0,0,.15,1.26,3.35,3.35,0,0,0,1.28.58c0,.34-.18.25-.29.3s-.53.18-.78.29-.12.47,0,.59a1.74,1.74,0,0,0,.44.34c.32.11.67.12,1,.25a.82.82,0,0,1,.32.48c.09.33.22.55.48.52.55,0,1.1-.13,1.65-.22.22,0,.43-.14.64-.19a3.87,3.87,0,0,1,1.82-.1,18.72,18.72,0,0,0,5.17.17c.67-.05,1.33-.12,2-.19,0-.32-.17-.26-.27-.26-.61,0-1.22,0-1.83,0-.08,0-.21-.14-.24-.26a.38.38,0,0,1,.13-.3,2.47,2.47,0,0,1,.65-.16c.28,0,.55,0,.83-.06a.68.68,0,0,0,.54-.44.93.93,0,0,1,.8-.64,1.17,1.17,0,0,1,1.27.39,1.67,1.67,0,0,0,1.07.63,14.61,14.61,0,0,0,5.15,0c.83-.12,1.66-.19,2.49-.23a2.24,2.24,0,0,1,.82.2.92.92,0,0,1,.41.69,1.37,1.37,0,0,1-.23.55,4.12,4.12,0,0,1-.54.48.53.53,0,0,0,0,.6,8.83,8.83,0,0,0,.74.55,1.14,1.14,0,0,1,.45.66,1.34,1.34,0,0,1-.06,1.25,2.12,2.12,0,0,0-.18.37.66.66,0,0,0,.11.79,3.58,3.58,0,0,1,1,1.5,2.1,2.1,0,0,0,.17,1.49,4.87,4.87,0,0,1,.78,2.71,9.29,9.29,0,0,0,.65,3.05,1.76,1.76,0,0,1,.19,1.08,2.23,2.23,0,0,0,.23,1.25c.19.6.3,1.25.53,1.85a.76.76,0,0,1,0,.61,1.43,1.43,0,0,0-.08,1.29c.09.24-.09.36-.25.42a3.27,3.27,0,0,0-.31.17c.23.35.5.11.74.2a.63.63,0,0,1,.48.56,3.21,3.21,0,0,1,.14.88,3,3,0,0,0,.64,2.43.82.82,0,0,1,.06.84,3.93,3.93,0,0,0-.46,1.62,1.32,1.32,0,0,1-.7,1.12,2.16,2.16,0,0,1-1.5.3,6.33,6.33,0,0,0-2.44.26c-.93.32-2,.13-2.83.8a3.23,3.23,0,0,1-3,.58,2.91,2.91,0,0,0-2,.18,1.27,1.27,0,0,0-.56,1.42,8.89,8.89,0,0,1,.34,3.55,5.73,5.73,0,0,0,.32,2.22,11.29,11.29,0,0,1,.34,4.21,4.56,4.56,0,0,1-.68,2.19.77.77,0,0,0,.25,1.09l.15.1a.67.67,0,0,1,.15.94c-.09.19-.22.35-.31.55a1,1,0,0,0,.06.84c.26.49.55,1,.86,1.48a2.55,2.55,0,0,1-.05.82,3.41,3.41,0,0,0,0,2.55,9.11,9.11,0,0,1,.65,4.14,32.71,32.71,0,0,1-.19,3.57,5.93,5.93,0,0,1-.13.86,4.79,4.79,0,0,1-.35.72,12.8,12.8,0,0,1,.3,2.68,1.24,1.24,0,0,1-.51,1.44c-.06,0-.05.26-.05.4s.08.12.13.13a1.21,1.21,0,0,0,.33.07c.16,0,.33,0,.5.08s.13.07.13.12a.76.76,0,0,1,0,.4,4.83,4.83,0,0,1-.37.42.54.54,0,0,0,0,.61c.19.26.39.51.59.77a.81.81,0,0,1,.09.74c-.18.55-.16.6.13.81a2.71,2.71,0,0,1,.45.3.6.6,0,0,1,.14.39,1.57,1.57,0,0,1-.11.63,2.23,2.23,0,0,0,0,1.72,4.65,4.65,0,0,1,.24,1.32c.05,1,.08,1.91.15,2.86a11.06,11.06,0,0,1-.36,4.46,1.35,1.35,0,0,0,.05.93,1.5,1.5,0,0,1-.09,1.71,1,1,0,0,0-.09.62,16,16,0,0,0,1.72,5.16,3.13,3.13,0,0,1,.47,1.89,6.38,6.38,0,0,0,.23,2.38,9.39,9.39,0,0,1,.16,2.07,4.56,4.56,0,0,0,0,.9,20.91,20.91,0,0,1,.23,4.93,4.72,4.72,0,0,0,.15,1.54.84.84,0,0,1,0,.44,3.4,3.4,0,0,0,.1,2,6,6,0,0,1,0,1.79,2.16,2.16,0,0,0,.64,1.78,3.9,3.9,0,0,1,1.31,2.06c.15.62.63.92.77,1.5s.22,1.19.35,1.77a1.61,1.61,0,0,0,.26.58c.23.34.49.66.74,1a1.59,1.59,0,0,1,.26.81c0,.22.07.52.18.61a2.62,2.62,0,0,1,.67,2.21c0,2.32.26,4.66.06,7a10.71,10.71,0,0,1-.23,3.54,3.85,3.85,0,0,0,0,1.55c.22,1,0,2.1.28,3.14a2.39,2.39,0,0,1,0,.88,9.27,9.27,0,0,0,0,3.56,9.24,9.24,0,0,1-.06,2.68,4.19,4.19,0,0,0,.2,2.19,1.66,1.66,0,0,1,0,1.1,4.66,4.66,0,0,0-.07,2.57,2.85,2.85,0,0,1,.08.92,9.52,9.52,0,0,0,.38,2.73c-.11.45-.23.94-.36,1.42a7.23,7.23,0,0,0-.35,1.18c0,.33-.09.55-.32.66-.56.28-1.13.55-1.69.84a.55.55,0,0,0-.26.24,1.57,1.57,0,0,0-.15.61.81.81,0,0,0,.34.73,1.86,1.86,0,0,0,.65.25c.78.11,1.56.2,2.34.28a1.76,1.76,0,0,1,1,.34v0a15.34,15.34,0,0,1-3.83,0c-.06,0-.13.16-.19.24s.07.13.12.16a2.53,2.53,0,0,0,1.48.3,3.61,3.61,0,0,1,2.14.5c.47.25,1,.41,1.61.69a2.31,2.31,0,0,1-.54.18c-1.39-.07-2.78-.17-4.18-.23a3.16,3.16,0,0,0-.8.16.25.25,0,0,0-.11.15c-.05.17,0,.34.11.39.43.15.87.26,1.31.42s1.08.4,1.62.61c.16.06.2.35.07.53s-.1.07-.14.12c-.18.27-.19.61,0,.74.35.25.71.47,1.07.71,0,0,.1.14.08.17a.64.64,0,0,1-.17.29c-.09.08-.23.06-.3.15a.9.9,0,0,0-.26.5,9.67,9.67,0,0,0,.12,2,10.69,10.69,0,0,1-.22,5.68c-.14.43,0,.7.39,1.07.22.19.22.19,0,.41,0,0-.1.07-.14.12a.44.44,0,0,0,.07.7c.24.16.56.18.35.74a.6.6,0,0,0,.19.58,2.4,2.4,0,0,0,1.51,1s.07.1.13.19a2,2,0,0,1-.48.15c-.75,0-1.08.47-1.15,1.46a2,2,0,0,1-.36,1.15,1.36,1.36,0,0,0-.06,1.28c.13.39.07.48-.2.72a3.47,3.47,0,0,0-.42.34.59.59,0,0,0-.08.39.51.51,0,0,0,.23.29c.15.09.32.11.48.2s.32.61.11.7c-.67.29-.73,1.08-.62,1.78a3.19,3.19,0,0,1-.18,1.7c.14.21.25.39.37.55a1.38,1.38,0,0,1,.2,1.25,3.14,3.14,0,0,1-.24.57c-.25.57-.51,1.15,0,1.79a2.84,2.84,0,0,0,.14,1.32.93.93,0,0,1-.08.61c-.19.36-.42.67-.62,1a.63.63,0,0,0,.09.78c.08.11.21.18.26.3s.18.49.12.61c-.45,1-.2,2.21-.38,3.28a1.39,1.39,0,0,0,.16.85,2.14,2.14,0,0,1,.17,1.71,5,5,0,0,1-.21.83.81.81,0,0,0,.17,1,.61.61,0,0,1,.11.4,19.89,19.89,0,0,0-.53,2.55,1,1,0,0,1-.71.82A1.94,1.94,0,0,1,287,242a2,2,0,0,0-1.8-.07c-.79.29-1.59.56-2.4.79a7.39,7.39,0,0,1-1.15.15c-.23,0-.35-.15-.39-.57s-.11-.62-.32-.64a3.6,3.6,0,0,1-2.11-.73,1.24,1.24,0,0,0-1-.2,3.32,3.32,0,0,1-2.3-.28,1.59,1.59,0,0,0-1-.09c-.83.11-1.66.26-2.48.42-.56.12-1.46.38-2,.56a2.48,2.48,0,0,0-.7.33,5.72,5.72,0,0,1-3.53.85s-.08-.09-.08-.13,0-.15.07-.16l.48-.13c.15,0,.32,0,.4-.26s-.12-.26-.39-.23c-1.82.2-3.66.18-5.48.38a1.15,1.15,0,0,1-.66-.08,6.57,6.57,0,0,0-3.46-.84c-.54,0-.94-.46-1.3-1a.93.93,0,0,1,0-.39.15.15,0,0,1,.12-.11l2.48-.24c.08,0,.19-.15.21-.26a.38.38,0,0,0-.18-.29,2.58,2.58,0,0,0-1.16-.09,5.68,5.68,0,0,1-3.14,0,.49.49,0,0,0-.31.11s-.07.1-.09.16a.53.53,0,0,0,0,.22c.15.38.47.39.7.59a1,1,0,0,1,0,1.48c-.09.07-.19.13-.28.21-.41.38-.8.41-1.19-.15a.35.35,0,0,0-.31-.13c-.19.09-.13.34-.1.56a3.78,3.78,0,0,1,.05.67c0,.38-.24.76-.47.81a8,8,0,0,1-1.07.18c-1.47.15-2.95.25-4.41.46l-.48.07a24.92,24.92,0,0,1-4.72.54,4.84,4.84,0,0,0-1.56.23,14.5,14.5,0,0,1-5,.54,3.12,3.12,0,0,0-.74.09,10.62,10.62,0,0,1-3,.09,2.16,2.16,0,0,0-1.85.76,9.92,9.92,0,0,1-2.5,2c-.15.09-.2.3-.16.56.08.65.06.69-.23.83-.46.23-.61.21-.86-.28a1.72,1.72,0,0,0-.6-.78c-.21-.13-.57-.13-.62,0a1.6,1.6,0,0,0-.07.62c0,.3.14.6.13.89a.64.64,0,0,1-.24.49c-.73.26-1.47.42-2.2.64l-.05,0a19.91,19.91,0,0,1-4.94,1.64,7.5,7.5,0,0,1-1.15.21c-.24,0-.41-.15-.52-.48a.74.74,0,0,0-.67-.59,1.61,1.61,0,0,0-.49,0L210,253c-.59.16-.64.11-.81-.87,0-.25-.19-.44-.35-.38a2.27,2.27,0,0,1-2.12-.2,1.83,1.83,0,0,0-1.48-.11c-.6.15-1.19.33-1.78.49a3.94,3.94,0,0,1-2.64-.14,17.75,17.75,0,0,0-2.15-.53.43.43,0,0,1-.22-.28c0-.1.08-.23.13-.35s.07-.13.07-.19a.25.25,0,0,0-.11-.15.93.93,0,0,0-.33,0l-10.44,1a8.13,8.13,0,0,0-.86.15c-3.26.73-6.59.84-9.88,1.24-3.09.38-6.2.54-9.27,1.09a26.47,26.47,0,0,0-4,.5,16.46,16.46,0,0,0-3.6.68l-.17,0c-2.43.25-4.8,1-7.22,1.29a7.37,7.37,0,0,1-1.33,0c-.06,0-.17-.19-.18-.3s.06-.33.12-.35c.53-.18,1.06-.31,1.62-.47-.62-.29-1.21-.25-4.49.28-.08.17,0,.26.12.29l.48.12c-.05.09-.07.18-.1.19-.55.08-1.1.18-1.65.21a3.6,3.6,0,0,0-1.76.47,2.7,2.7,0,0,1-2.12.27,17.54,17.54,0,0,0-7.07,0,10,10,0,0,0-1.52.4c-1.23.42-2.45.86-3.68,1.27l-.17.05c-1.06.22-2.11.47-3.18.68a2.81,2.81,0,0,1-.87,0,5,5,0,0,0-2.17.2c-.81.19-1.64.25-2.47.38a23.09,23.09,0,0,0-3.37.67,6.16,6.16,0,0,1-1.13.25l-3.64.36a12.48,12.48,0,0,0-1.81.32,28.14,28.14,0,0,1-3.85.65,7.66,7.66,0,0,0-3.48,1.24A3,3,0,0,1,104,264a5.24,5.24,0,0,1-2.16.06,4.36,4.36,0,0,0-3,.4,2.55,2.55,0,0,1-.88.3c-.94.08-1.88.12-2.81.2a3.66,3.66,0,0,0-.65.17.6.6,0,0,0-.34.64.65.65,0,0,0,.52.52,5.75,5.75,0,0,0,.83,0c.66-.05,1.33-.13,2-.19.21,0,.43,0,1,0a4.76,4.76,0,0,1-.69.32,21.42,21.42,0,0,0-2.94.64,23.38,23.38,0,0,1-3.1.65,3.06,3.06,0,0,1-1-.1s-.09-.1-.1-.15a.23.23,0,0,1,.06-.19c.66-.36,1.43-.15,2.07-.6a.2.2,0,0,0,.07-.18,1.64,1.64,0,0,0-.14-.39.19.19,0,0,0-.15-.08,7.67,7.67,0,0,0-1.17-.08c-.66,0-1.28.45-2,.21l-1.76.58c-.69.24-1.37.54-2.07.71a3.34,3.34,0,0,1-2.64-.17,1.72,1.72,0,0,0-1.15-.16c-1.32.18-2.64.29-4,.59a51.83,51.83,0,0,1-5.27.76A2.26,2.26,0,0,0,71,269a2.06,2.06,0,0,1-1.23.55l-.83.1c-1.36.15-1.49,0-2.19,1.48a.6.6,0,0,1-.72.37c-.33-.07-.65-.18-.77.36a.7.7,0,0,1-.26.37,2.71,2.71,0,0,1-1.4.54,9.33,9.33,0,0,1-2.42,0,1.07,1.07,0,0,0-.77.07,5.31,5.31,0,0,1-2.24.48c-.18,0-.27.17-.24.46,0,.11-.07.33-.12.34-.66.11-1.32.18-2,.27-.67-.31-.67-.31-1,0ZM82,15.2a2.54,2.54,0,0,0-.28-.16s-.07,0-.11,0l.4.11c.1.07.19.15.29.21s.11-.1.1-.12C82.3,15,82.15,15.16,82,15.2Zm167.5,1.2c-.15-.09-.3-.19-.45-.27a.29.29,0,0,0-.16,0,.38.38,0,0,0-.11.11.89.89,0,0,0,.25.14,3.84,3.84,0,0,0,.48,0,2.39,2.39,0,0,0,.45.28c.08,0,.18-.07.27-.1a.6.6,0,0,0-.25-.15A3.84,3.84,0,0,0,249.51,16.4Zm-93.28-5.84-.15,0h.16a.72.72,0,0,0,.75.26c.08,0,.14-.14.21-.22s-.15-.23-.21-.22C156.73,10.4,156.48,10.49,156.23,10.56ZM72.89,263.78s-.07-.1-.12-.12a.17.17,0,0,0-.1,0l.23.1a1.45,1.45,0,0,1-.44.27c-1.15.2-2.3.4-3.45.55a39.45,39.45,0,0,0-4.46.59,4,4,0,0,0-.78.32.25.25,0,0,0-.08.17c0,.15,0,.27.18.27,1.05,0,2.11-.09,3.16-.15a5.06,5.06,0,0,1,2,.19.42.42,0,0,1,.11.14.85.85,0,0,1-.18.31,3.33,3.33,0,0,1-.49.22,10.25,10.25,0,0,0,3.64-.15.79.79,0,0,0,.44-.6.84.84,0,0,1,.59-.67,3.94,3.94,0,0,0,1-.24A7,7,0,0,1,77,264.3a22.79,22.79,0,0,0,3-.4,30,30,0,0,1,3-.55,34.34,34.34,0,0,0,4.6-.81,8,8,0,0,1,1-.17,20.37,20.37,0,0,0,4.42-.88,2.65,2.65,0,0,1,.49-.09l5.91-1.08a2.57,2.57,0,0,0,.48-.11,14.73,14.73,0,0,1,3.27-.67c.61-.09,1.21-.19,1.82-.24a6.23,6.23,0,0,0,2.51-.93s0-.13,0-.19-.06-.15-.1-.16c-.35-.15-.65.06-1,.2a9.44,9.44,0,0,1-3.06.85c-2.1.18-4.19.49-6.28.75-.44.05-.89.07-1.33.1a35.91,35.91,0,0,0-5.46.6A15.34,15.34,0,0,1,87,261a13,13,0,0,0-1.64.26,1.86,1.86,0,0,0-1.42,1,1,1,0,0,1-.87.51,5.27,5.27,0,0,1-2.82-.29,2.4,2.4,0,0,0-1.49-.15,16.34,16.34,0,0,0-3.74.91A11.11,11.11,0,0,1,72.89,263.78Zm17.17,1a15.65,15.65,0,0,0,3.12-.38c.76-.2,1.52-.36,2.28-.5a1.6,1.6,0,0,0,1.05-.55,1.16,1.16,0,0,1,.92-.42,11.34,11.34,0,0,1,1.16,0,8.7,8.7,0,0,0,4.42-.59,2.29,2.29,0,0,1,.81-.16c.78-.07,1.56-.1,2.33-.19a6.15,6.15,0,0,0,1.46-.32,7.31,7.31,0,0,1,2-.47c.66-.08,1.31-.19,2-.29.18,0,.2-.13.07-.24-.7-.12-1.41.11-2.17-.06.47-.54,1.15-.1,1.64-.81-.62,0-1.12,0-1.61.06l-5.3.53a12.2,12.2,0,0,0-2.3.41c-.69.2-1.41.29-2.12.43a12.35,12.35,0,0,0-1.47.3,11.29,11.29,0,0,1-2.28.48,11.61,11.61,0,0,0-1.31.24,30.84,30.84,0,0,1-4.93.86,9.18,9.18,0,0,0-1.79.37,8.91,8.91,0,0,1-2,.42c-2.6.22-5.16.75-7.74,1.12a1.82,1.82,0,0,0-.63.22.47.47,0,0,0-.12.36c.16.39.35.77.53,1.16a3.64,3.64,0,0,0,2.15-.33,3.54,3.54,0,0,1,2.24-.49,3.32,3.32,0,0,0,.64-.05c.05-.23,0-.3-.16-.35s-.16-.16-.23-.26.06-.13.1-.14l2.76-.66a1.44,1.44,0,0,1,1.14.23,1,1,0,0,0,1.13,0c.46-.22.94-.39,1.41-.57a4.31,4.31,0,0,1,.49-.11C89.84,264.1,90,264.43,90.06,264.8Zm111.88-14.58a11.21,11.21,0,0,0,5-.79c.06,0,.08-.2.11-.32s-.09-.1-.14-.09l-2,.18A5.66,5.66,0,0,0,201.94,250.22ZM155.28,8.74l3.49-.68c.07,0,.13-.16.19-.24-.1-.07-.19-.17-.29-.18-.38,0-.76,0-1.13-.07-.09-.25-.13-.56-.24-.62a1.24,1.24,0,0,0-1.14,0c-.3.14-.34.53-.45.86S155.49,8.29,155.28,8.74ZM78.47,261.48c1.78-.28,3.28-.27,4.74-.63.15,0,.18-.17.11-.34a.31.31,0,0,0-.12-.15,2.63,2.63,0,0,0-1.81-.09c-.87.19-1.72.5-2.57.76C78.77,261,78.74,261.12,78.47,261.48ZM91,259.2a.79.79,0,0,0,.32.1c1.2-.1,2.4-.2,3.6-.34a7.27,7.27,0,0,0,1.27-.35s.09-.14.08-.16-.14-.24-.2-.24a7.23,7.23,0,0,1-1.29.21A11.1,11.1,0,0,0,91,259.2ZM210.67,9.14V9.09a4.62,4.62,0,0,0-.65.07c-.65.12-1.29.26-1.93.42-.08,0-.13.2-.19.31s.17.23.24.22a5,5,0,0,1,1.12-.21,8.67,8.67,0,0,0,2.9-.5c.06,0,.09-.19.13-.29s-.1-.1-.15-.1ZM282.2,41.46a16.32,16.32,0,0,0-5.9.26c-.06,0-.1.13-.23.29,1.63-.06,3.16-.09,4.69-.26C281.24,41.69,281.72,41.56,282.2,41.46ZM86.4,259.1c-.18-.26-.4-.17-.59-.15a26.17,26.17,0,0,0-5.57.73c.09.06.18.18.26.18A33.26,33.26,0,0,0,86.4,259.1Zm-8.27,1.13a48.41,48.41,0,0,0-5.27.36,1.78,1.78,0,0,0-.47.17s0,.1-.09.2a2.49,2.49,0,0,0,.49.12A23,23,0,0,0,78.13,260.23ZM51.93,20.1a10.34,10.34,0,0,0-1,.25,1.15,1.15,0,0,0-.39.32s0,.13,0,.19a.28.28,0,0,0,.09.18,2.55,2.55,0,0,0,2.61-.67s0-.14,0-.21a.31.31,0,0,0-.09-.17C52.77,19.75,52.48,20,51.93,20.1Zm70.69-10c-.11-.11-.2-.25-.28-.26a1.92,1.92,0,0,0-1.52.57.47.47,0,0,0-.11.36,1.7,1.7,0,0,0,.28.51.17.17,0,0,0,.15.06,2.42,2.42,0,0,0,1.33-.69C122.57,10.53,122.58,10.26,122.62,10.08Zm29.49,3c.44,0,.88-.06,1.32-.13.29,0,.48-.3.6-.65s.23-.49.33-.75a.29.29,0,0,0,0-.19.52.52,0,0,0-.31-.07.69.69,0,0,0-.42.3,2.35,2.35,0,0,1-1.46,1.29S152.13,13,152.11,13.08ZM123.76,257.44c-3.14.09-3.17.1-3.8.5a17.82,17.82,0,0,0,2.88-.26C123.14,257.63,123.48,257.72,123.76,257.44Zm-54.91-.08a5,5,0,0,0-1.14-.11,18.16,18.16,0,0,0-1.94.44s-.08.11-.08.17,0,.13.09.14C66.85,258.24,67.83,257.68,68.85,257.36Zm-1.61,4c-.26-.18-.54-.07-.81-.1l-.83-.08c-.27,0-.55-.06-.83-.07a.37.37,0,0,0-.29.13.77.77,0,0,0-.12.36.28.28,0,0,0,.09.19c.15.08.32.2.46.18.76-.13,1.51-.3,2.27-.46C67.21,261.49,67.22,261.4,67.24,261.35Zm154.13-10.58a5.08,5.08,0,0,0,1.75-.8s0-.14,0-.21-.07-.15-.11-.15a3,3,0,0,0-1.84.61s0,.25,0,.37S221.25,250.67,221.37,250.77Zm-9.11-2.54a21.52,21.52,0,0,0-2.89.24c-.05,0-.08.18-.13.27s.11.08.15.08l1.45-.26A3.59,3.59,0,0,0,212.26,248.23ZM203.37,10.58l2.86-.27A2.42,2.42,0,0,0,203.37,10.58Zm28.45,1c-1.75-.26-1.95-.24-2.75.12.1,0,.21.11.31.1Zm-29.72-7a5.34,5.34,0,0,0-2.62.26A3.36,3.36,0,0,0,202.1,4.63Zm9.22,246.43a.93.93,0,0,0,0-.21s-.1-.12-.14-.11a11.13,11.13,0,0,0-1.06.37.58.58,0,0,0,0,.38c.23.57.45.66.77.33A1.35,1.35,0,0,0,211.32,251.06ZM88.94,259.88a3.43,3.43,0,0,0,.42-.14s.1-.12.09-.15-.08-.3-.15-.34a.65.65,0,0,0-.77.1.75.75,0,0,0-.08.37s.08.1.13.12ZM80.21,15.54a2.77,2.77,0,0,0-1.76.42c-.06,0-.07.2-.1.31s.1.09.15.08A3.09,3.09,0,0,0,80.21,15.54Zm81.51,238a3,3,0,0,0,1.77,0c.06,0,.09-.18.13-.28s-.08-.11-.13-.12A3.51,3.51,0,0,0,161.72,253.49ZM133.25,10c.14-.06.26-.07.33-.16a1,1,0,0,0,.1-.37.32.32,0,0,0-.09-.17.53.53,0,0,0-.75,0c-.07,0-.08.23-.1.36a.2.2,0,0,0,.09.16A2.64,2.64,0,0,0,133.25,10Zm34.91-2.95,0-.22c-.54,0-1.07.09-1.6.15-.05,0-.09.12-.17.24ZM156.67,254.34c.24.09.33.16.41.15.49,0,1-.09,1.46-.17.16,0,.17-.16,0-.27A16.61,16.61,0,0,0,156.67,254.34ZM233.8,13.17a1.75,1.75,0,0,0-1.15-.14,4.17,4.17,0,0,0-.79.1s-.07.12-.07.17.08.15.11.15c.48,0,1,0,1.44-.08A1.78,1.78,0,0,0,233.8,13.17Zm-31-7.77c-.48,0-1,.08-1.44.14-.15,0-.18.15-.09.3a.22.22,0,0,0,.15.1C202,6.11,202.41,5.76,202.85,5.4ZM252,20a2.17,2.17,0,0,0,1.39.44c.08,0,.14-.15.21-.23a.74.74,0,0,0-.11-.16A1.05,1.05,0,0,0,252,20ZM57.46,19l-.09.09c.05,0,.1.08.15.07.39,0,.78,0,1.16-.1,0,0,.09-.07.21-.2Zm111-9.74c-1-.43-1-.41-1.3.13ZM152.64,7.32a.69.69,0,0,0-.71.38.66.66,0,0,0,0,.38s.09.08.14.09c.44.07.61,0,.77-.52A.25.25,0,0,0,152.64,7.32ZM253.07,18.44c-.11,0-.17,0-.21,0a1.64,1.64,0,0,0-.21.24c0,.05.08.13.12.14a4.88,4.88,0,0,0,.81.22c.08,0,.19-.08.26-.16s-.14-.36-.33-.4ZM167.4,6a7.87,7.87,0,0,0-1,0c-.18,0-.42-.08-.53.26A1.59,1.59,0,0,0,167.4,6ZM63.17,18.1a.84.84,0,0,0,.29.14c.33,0,.66-.06,1-.11,0,0,.09-.08.11-.14s-.06-.13-.09-.13A1.89,1.89,0,0,0,63.17,18.1Zm52-4.22a1.76,1.76,0,0,0,.3-.1.21.21,0,0,0,.08-.16c0-.12-.08-.31-.14-.33a.72.72,0,0,0-.46,0,.35.35,0,0,0-.15.29c0,.09.13.18.21.25S115.12,13.87,115.17,13.88ZM277.93,34c-.58-.16-.58-.17-.94.09A1.15,1.15,0,0,0,277.93,34ZM173.73,6.5l.31-.07a.2.2,0,0,0,.12-.31.3.3,0,0,0-.27-.08.79.79,0,0,0-.29.17s-.1.09-.09.14S173.6,6.54,173.73,6.5Zm-22.18,4.69a.69.69,0,0,0,.87,0,.2.2,0,0,0,.07-.16c0-.05,0-.14-.07-.15A.81.81,0,0,0,151.55,11.19ZM79.47,17.13c-.35-.19-.7-.41-1,.09Zm22.32-2.33,0,.28.8,0a.17.17,0,0,0,.13-.09c0-.12,0-.22-.17-.22Zm4.34,3.9.31-.05c.14,0,.19-.13.12-.28a.15.15,0,0,0-.13-.07,1.47,1.47,0,0,0-.3.08.18.18,0,0,0-.14.26C106,18.69,106.09,18.69,106.13,18.7ZM194.89,5.89l.32-.06s0-.08.06-.12l-.63.06s.05.1.08.11A.47.47,0,0,0,194.89,5.89ZM55,20a.68.68,0,0,0,.06.2.31.31,0,0,0,.46,0s0-.16,0-.17-.18-.2-.28-.21S55.07,19.92,55,20Zm22.9,235.93a1,1,0,0,0,.31-.11c.13-.1,0-.19-.37-.14a.64.64,0,0,0-.3.11C77.4,255.86,77.55,255.94,77.88,255.91ZM106.4,17.33l.3-.12a1.15,1.15,0,0,0-.29-.11c-.15,0-.21.07-.16.2S106.36,17.34,106.4,17.33ZM92.21,253a.34.34,0,0,0-.15,0,.52.52,0,0,0-.13.06c.07,0,.14.09.21.08s.13-.08.2-.12ZM283.09,34.51h.13s.13,0,.14-.06,0-.19-.18-.14a1.23,1.23,0,0,0-.25.14ZM263.67,238.17c0-.1,0-.19-.05-.2s-.43.11-.39.13A1.56,1.56,0,0,0,263.67,238.17Zm-146.1-225c.05,0,.13,0,.14,0s0-.2-.14-.16-.08.06-.12.1Zm29.66-5.24-.11.13s.09.09.14.09.21-.07.13-.21S147.28,7.92,147.23,7.92Zm-16.6,247.39-.1.11s.08.08.12.08.2-.05.12-.17S130.68,255.32,130.63,255.31Zm36.57-245s-.07.09-.06.13.09.2.18.09a.19.19,0,0,0,0-.15A.29.29,0,0,0,167.2,10.27Zm-4,.37a.71.71,0,0,0,.14,0c.16-.06.16-.12,0-.16a.25.25,0,0,0-.14,0S163.15,10.6,163.15,10.64Zm-14.88.73s-.11.05-.12.09,0,.21.18.16.11,0,.11-.08S148.4,11.34,148.27,11.37Zm-33.39,248.7s-.08-.07-.13-.07-.12,0-.13,0,0,.19.16.14A.36.36,0,0,0,114.88,260.07ZM252.06,16.84c-.05,0-.1-.09-.15-.09s-.22.06-.13.2.11,0,.16,0S252,16.88,252.06,16.84Zm-186.54,250s-.12,0-.13,0,0,.19.15.14.07-.07.1-.1Zm188.67-242v-.15a.5.5,0,0,0-.13,0,.5.5,0,0,0,0,.12S254.15,24.89,254.19,24.89ZM145.83,8.09l-.13.05.11.09Zm68.12.7-.09.11L214,9ZM134.4,254.31l.11-.1s-.07-.11-.11-.11-.07.06-.1.1ZM23.25,229l0,.1h.1ZM73.69,263l-.13.06.11.09ZM95.37,15.89c-.13-.06-.18,0-.12.15s.08,0,.12,0A.63.63,0,0,0,95.37,15.89Zm-65,163.5v-.15c-.05,0-.09,0-.13,0s0,.12,0,.12S30.31,179.39,30.35,179.39ZM186.53,7.1l.05-.09h-.12ZM28.43,262.29l0-.13-.1.09Zm111.07-6.8.12.07v-.12ZM66.93,266.77l0,.12.09-.08ZM174.61,8.11l-.11.05.09.07ZM64.87,259.82a.42.42,0,0,0,.16,0,.92.92,0,0,0,0-.17.37.37,0,0,0-.15,0S64.87,259.76,64.87,259.82Zm177.34-252,0-.14-.09.1ZM138.74,254.37l.11-.09s-.07-.1-.1-.1-.07,0-.11.08ZM64.1,271.74l.06-.14H64ZM135.16,10l.11.08V9.92Zm34,242.76-.11-.07v.13Z"/><path class="cls-2" d="M203.3,113.36v29.81h59.62v14.91H253v-5H193.36V113.36Zm-31.06,3.73A16.15,16.15,0,0,1,188.39,133v20.14H107.65v-9.94h18.26v-3.6c0-5.34-3.23-7.95-7.7-7.95a16.84,16.84,0,0,0-6.59,1.49l-1-7.82a23.66,23.66,0,0,1,8.94-2c11.43,0,16.28,6.83,16.28,14.9v5h6.5a15.52,15.52,0,0,1,14.49-21.11,15.81,15.81,0,0,1,3.4.37A16.12,16.12,0,0,1,172.24,117.09Zm.11,9.94h-.11a6.19,6.19,0,0,0-3.24.9,15.49,15.49,0,0,1,3.37,9.54v5.7h6.08v-9.93A6.2,6.2,0,0,0,172.35,127Zm-15.42,5h-.09a5.59,5.59,0,1,0-.09,11.18h5.68v-5.59A5.59,5.59,0,0,0,157,132Z"/><circle class="cls-3" cx="257.95" cy="128.27" r="6.21"/><circle class="cls-4" cx="238.08" cy="128.27" r="6.21"/><circle class="cls-5" cx="218.2" cy="128.27" r="6.21"/><path class="cls-6" d="M86.53,123.3a14.91,14.91,0,0,1,.38,29.81H80.32v7.45a3.72,3.72,0,0,1-7.44.22V127a3.73,3.73,0,0,1,3.73-3.73Zm-22.36,0a3.74,3.74,0,0,1,3.73,3.51v22.57a3.73,3.73,0,0,1-7.45.22V127A3.73,3.73,0,0,1,64.17,123.3Zm-29,.69.11.2,7.81,16.49,7.81-16.49a3.73,3.73,0,0,1,4.75-1.87l.21.09a3.74,3.74,0,0,1,1.87,4.76l-.1.21L46.43,151a3.73,3.73,0,0,1-6.63.21l-.11-.21-11.18-23.6a3.73,3.73,0,0,1,6.63-3.4Zm51.39,6.76H80.32v14.91h6.21a7.45,7.45,0,0,0,.28-14.9ZM64.17,110.88a4.35,4.35,0,1,1-4.34,4.34,4.34,4.34,0,0,1,4.34-4.34Z"/></g></g></svg>