<svg xmlns="http://www.w3.org/2000/svg" xmlns:xlink="http://www.w3.org/1999/xlink" viewBox="0 0 63.32 59.6"><defs><style>.cls-1,.cls-66{fill:#fff;}.cls-2{fill:none;}.cls-3{isolation:isolate;}.cls-4{fill:#4bb4e6;}.cls-39,.cls-41,.cls-5{opacity:0;}.cls-38,.cls-42,.cls-6{opacity:0.06;}.cls-37,.cls-43,.cls-7{opacity:0.13;}.cls-36,.cls-44,.cls-8{opacity:0.19;}.cls-35,.cls-45,.cls-9{opacity:0.25;}.cls-10,.cls-34,.cls-46{opacity:0.31;}.cls-11,.cls-33,.cls-47{opacity:0.38;}.cls-12,.cls-32,.cls-48{opacity:0.44;}.cls-13,.cls-22,.cls-31,.cls-49{opacity:0.5;}.cls-14,.cls-30,.cls-50{opacity:0.56;}.cls-15,.cls-29,.cls-51{opacity:0.63;}.cls-16,.cls-28,.cls-52{opacity:0.69;}.cls-17,.cls-27,.cls-53{opacity:0.75;}.cls-18,.cls-26,.cls-54{opacity:0.81;}.cls-19,.cls-25,.cls-55{opacity:0.88;}.cls-20,.cls-24,.cls-56{opacity:0.94;}.cls-21{fill:url(#linear-gradient);}.cls-22{mix-blend-mode:multiply;}.cls-23,.cls-24,.cls-25,.cls-26,.cls-27,.cls-28,.cls-29,.cls-30,.cls-31,.cls-32,.cls-33,.cls-34,.cls-35,.cls-36,.cls-37,.cls-38,.cls-39{fill:#040505;}.cls-40{clip-path:url(#clip-path);}.cls-41{fill:#332f31;}.cls-42{fill:#353133;}.cls-43{fill:#363334;}.cls-44{fill:#383436;}.cls-45{fill:#393638;}.cls-46{fill:#3b3839;}.cls-47{fill:#3c3a3b;}.cls-48{fill:#3e3b3d;}.cls-49{fill:#3f3d3f;}.cls-50{fill:#413f40;}.cls-51{fill:#424142;}.cls-52{fill:#444244;}.cls-53{fill:#454445;}.cls-54{fill:#474647;}.cls-55{fill:#484849;}.cls-56{fill:#4a494a;}.cls-57{fill:#4b4b4c;}.cls-58{fill:#2f2f30;}.cls-59{fill:url(#Dégradé_sans_nom_17);}.cls-60{fill:url(#Dégradé_sans_nom_15);}.cls-61{fill:#ff7900;}.cls-62{fill:#e3131c;}.cls-63{mask:url(#mask);}.cls-64{fill:#e3131b;}.cls-65{fill:#0b5035;}.cls-66{fill-rule:evenodd;}.cls-67{fill:#ffd200;}.cls-68{fill:#fff6b6;}.cls-69{fill:#50be87;}</style><linearGradient id="linear-gradient" x1="-269.86" y1="45.34" x2="-219.98" y2="45.34" gradientTransform="translate(280.42)" gradientUnits="userSpaceOnUse"><stop offset="0" stop-color="#0c0d0d"/><stop offset="0.19" stop-color="#2a2a2a"/><stop offset="0.24" stop-color="#333"/><stop offset="0.29" stop-color="#282929"/><stop offset="0.42" stop-color="#111212"/><stop offset="0.5" stop-color="#090a0a"/><stop offset="0.87" stop-color="#070808"/><stop offset="1" stop-color="#020202"/></linearGradient><clipPath id="clip-path"><path class="cls-2" d="M52.76,40.76c-3.54.39-6.22.51-8.81.61s-5.2.17-8.5.17a151.26,151.26,0,0,1-17.07-.8c-1.86-.19-3.28-.39-4.36-.58-3.13-.57-3.46-1.29-3.46-1.29v7.3a4.57,4.57,0,0,0,2.59,1.72c2,.6,8.06,2.42,22.35,2.37s20.42-1.71,22.42-2.49a6.17,6.17,0,0,0,2.53-1.6V38.82s-.25.56-1.76,1A39.16,39.16,0,0,1,52.76,40.76Z"/></clipPath><linearGradient id="Dégradé_sans_nom_17" x1="-269.86" y1="40.96" x2="-219.98" y2="40.96" gradientTransform="translate(280.42)" gradientUnits="userSpaceOnUse"><stop offset="0.19" stop-color="#ffd200"/><stop offset="0.23" stop-color="#ffd304"/><stop offset="0.27" stop-color="#ffd511"/><stop offset="0.31" stop-color="#ffd925"/><stop offset="0.35" stop-color="#ffde42"/><stop offset="0.4" stop-color="#ffe468"/><stop offset="0.44" stop-color="#ffec95"/><stop offset="0.48" stop-color="#fff6cb"/><stop offset="0.52" stop-color="#fff"/><stop offset="0.53" stop-color="#fffcf1"/><stop offset="0.58" stop-color="#fff1b2"/><stop offset="0.63" stop-color="#ffe87c"/><stop offset="0.68" stop-color="#ffe04f"/><stop offset="0.73" stop-color="#ffda2d"/><stop offset="0.77" stop-color="#ffd614"/><stop offset="0.81" stop-color="#ffd305"/><stop offset="0.85" stop-color="#ffd200"/></linearGradient><linearGradient id="Dégradé_sans_nom_15" x1="-269.86" y1="49.46" x2="-219.98" y2="49.46" gradientTransform="translate(280.42)" gradientUnits="userSpaceOnUse"><stop offset="0.19" stop-color="#f5b5d2"/><stop offset="0.26" stop-color="#f6b9d5"/><stop offset="0.34" stop-color="#f7c6dc"/><stop offset="0.42" stop-color="#fadae9"/><stop offset="0.5" stop-color="#fef7fa"/><stop offset="0.52" stop-color="#fff"/><stop offset="0.6" stop-color="#fbe2ed"/><stop offset="0.69" stop-color="#f8c9de"/><stop offset="0.78" stop-color="#f6bad5"/><stop offset="0.85" stop-color="#f5b5d2"/></linearGradient><mask id="mask" x="47.68" y="43.54" width="5.53" height="5.51" maskUnits="userSpaceOnUse"><g id="cfs2"><path class="cls-1" d="M52.8,44.33a1.44,1.44,0,0,0-2,0l-.33.34-.34-.34a1.42,1.42,0,0,0-1-.41,1.45,1.45,0,0,0-1,.41,1.41,1.41,0,0,0,0,2l.34.34,2,2,2-2,.34-.34a1.43,1.43,0,0,0,0-2h0"/></g></mask></defs><g class="cls-3"><g id="Layer_2" data-name="Layer 2"><g id="Layer_1-2" data-name="Layer 1"><path class="cls-4" d="M12.09,59.44c0,.11-.06.17-.14.16l-.43-.08s-.09,0-.12-.07a.57.57,0,0,1,0-.07.08.08,0,0,0,0,0h-.21a.27.27,0,0,0-.24-.06l-.21,0a.25.25,0,0,1-.22,0h.08l0,0s-.06,0-.09,0-.08,0-.1-.06a.21.21,0,0,0-.14-.08,1.54,1.54,0,0,1-.3,0,7.41,7.41,0,0,0-.8-.25c-.47-.13-.94-.31-1.41-.49l-.68-.23A2.55,2.55,0,0,1,6.77,58a.32.32,0,0,1-.15-.2,0,0,0,0,1,0,0s0,0,0,0l.65.14.32.08s0,0,.07,0a.78.78,0,0,0-.33-.16l-.42-.12A7,7,0,0,1,6,57.34c-.23-.1-.47-.16-.71-.24L4.81,57s-.08-.07-.06-.1a.17.17,0,0,1,.06-.1.35.35,0,0,1,.28-.06,1.56,1.56,0,0,0,.57,0l.1.06h0s0,0,0,0a.09.09,0,0,0-.05,0,.21.21,0,0,0-.11,0,.35.35,0,0,0-.13-.08l-.45-.13-.41-.13c0-.08,0-.14,0-.18l-.09-.08h0L5.31,56l.06.05s0,0,0,0,0,0,0,0H5.31a.44.44,0,0,0-.2-.11,3.47,3.47,0,0,0-.46-.13.27.27,0,0,1-.16-.23s0-.07,0-.07l.39,0,.06,0s0,0,0,0H4.9a1.17,1.17,0,0,0-.36-.25.06.06,0,0,1,0-.08s0,0,0,0H4.9l.46,0s0,0,0-.05,0-.06,0-.06L4.93,55l-.32-.09a.42.42,0,0,1-.18-.17s0-.15,0-.16l.21,0H5s0-.05,0-.07a.06.06,0,0,0,0,0,.26.26,0,0,0-.2-.1l-.47-.1A2,2,0,0,1,4,54.14s0,0,0-.08l0,0,.07,0c.35.06.7,0,1,.07h.07s0,0,0-.06a.15.15,0,0,0,0,0l-.29-.08-.36-.08s0,0,0,0c0-.18.11-.26.25-.26h.07l.26,0a1,1,0,0,0,.43,0l0,0h0l0,0A1.08,1.08,0,0,0,5,53.42l-.6-.11a.71.71,0,0,1-.18-.08.15.15,0,0,1,0-.08s0,0,0,0a.78.78,0,0,1,.43,0,2.66,2.66,0,0,0,.28,0C5,53,4.9,53,4.89,53v-.09l.2-.08,0,0a.34.34,0,0,0,0-.08,1.37,1.37,0,0,0-.2-.13l-.2-.12h0a1.63,1.63,0,0,1,.58,0l.42.06s0-.06,0-.08l-.21-.08-1.1-.29c0-.05,0-.08,0-.08a4.15,4.15,0,0,1,.79,0,1.7,1.7,0,0,0,.39,0c.08.05.15.09.23,0a.31.31,0,0,0-.23,0,.46.46,0,0,0-.13-.08c-.22,0-.43-.1-.65-.13-.42-.06-.84-.2-1.26-.29,0,0,0,0,0-.06a.26.26,0,0,1,.26-.12,11.5,11.5,0,0,0,1.17,0s0-.06,0-.07a.61.61,0,0,1-.26-.18.38.38,0,0,0-.12-.1.46.46,0,0,1-.16-.11c0-.05-.09-.12-.14-.17a.91.91,0,0,0-.16-.11.31.31,0,0,1,.26-.05,2.81,2.81,0,0,0,.82,0l.43-.06s0,0,0,0a.08.08,0,0,0,0-.07.21.21,0,0,0-.1,0,3.68,3.68,0,0,1-.86-.19,1.8,1.8,0,0,0-.22-.06s-.07,0-.08-.07,0-.07.07-.08l.43,0a.27.27,0,0,0,.27.06l0,0a.1.1,0,0,0,0,0H4.8a.91.91,0,0,0-.17-.09l-.24-.07s0,0,0-.06,0,0,0,0h.07c.07,0,.12,0,.08-.15s.1-.06.15-.1l0,0s0-.06,0-.07a1.88,1.88,0,0,0-.23-.16h0a2.49,2.49,0,0,1,.61,0,2.57,2.57,0,0,0,.83,0,4.57,4.57,0,0,0,.87-.26,5.25,5.25,0,0,1,.52-.17l.17-.08a.1.1,0,0,0,0,0s0-.08,0-.08L7,48.36a.05.05,0,0,1,0,0s0-.06,0-.07a1.09,1.09,0,0,1,.24-.07A1.21,1.21,0,0,0,7.73,48a1.3,1.3,0,0,1,.59-.2l.21,0c.06,0,.09,0,.06-.07a.13.13,0,0,0-.09-.06.55.55,0,0,0-.18,0,1.07,1.07,0,0,1-.61-.08.57.57,0,0,0-.18,0c-.44,0-.87-.06-1.31-.11H6a.26.26,0,0,1-.24-.06c-.05-.05-.05-.11-.07-.18a.16.16,0,0,0,0-.09A.34.34,0,0,0,5.55,47a.2.2,0,0,0-.11,0H5.22c.07-.08.17-.05.24-.07s.2-.12.18-.34l0,0a.2.2,0,0,1,0-.17.58.58,0,0,0,0-.18c0-.17,0-.33-.17-.38,0,0,0,0,0,0l.27-.1c.06,0,.08-.1.08-.19s0-.21-.18-.26l-.1,0,0,0s0-.07,0-.08l.27-.09A.23.23,0,0,0,6,44.78c0-.06,0-.18-.07-.19H4.77a1,1,0,0,1-.49-.09l.11-.07a2.66,2.66,0,0,1,.38-.1l.9-.11a.58.58,0,0,0,.14,0s0,0,0-.05l0,0A1.69,1.69,0,0,0,5.28,44H4.93l.31-.1a1.17,1.17,0,0,1,.24-.09c.1,0,.14-.1.13-.23a.09.09,0,0,1,.08-.09l.39-.06s0-.05,0-.1,0-.06,0-.1,0-.13,0-.14l-.07,0-.14,0s0,0,.08-.06l.15,0c.06,0,.13,0,.15-.11s0-.1-.09-.12l-.15,0a.07.07,0,0,1-.06,0,.14.14,0,0,1,0-.09s0,0,0,0,.19,0,.28-.05a.49.49,0,0,0,.17-.06s0-.12,0-.16a.28.28,0,0,0-.17-.1l-.37,0c.05-.06.1,0,.15-.05l.39-.06s0-.05,0-.08l0,0a.61.61,0,0,0-.18,0l-.61,0a3.25,3.25,0,0,1-.54,0,3.69,3.69,0,0,0-.47,0,.55.55,0,0,1-.18,0s0,0,0,0a.06.06,0,0,1,0,0l.13-.06c.07,0,.14,0,.21-.06l.38-.13s0,0,0,0l0-.1.46-.08s0,0,0-.06l0,0h-.1a.21.21,0,0,1-.2-.12A.19.19,0,0,0,5.07,41H4.71l-.54,0s0,0-.07,0a2.51,2.51,0,0,1,.67-.19,2,2,0,0,0,.53-.13A2.16,2.16,0,0,1,6,40.49l.47,0s.08-.05.06-.08a.09.09,0,0,0-.09-.07H6c-.08,0-.16,0-.24,0s.16,0,.24-.08a1.29,1.29,0,0,1,.28-.08,2.29,2.29,0,0,1,.25,0,.86.86,0,0,0,.17,0,.09.09,0,0,0,0-.12.33.33,0,0,1-.08-.21c0-.08,0-.14-.08-.14l-.29,0-.5,0a.22.22,0,0,1-.21-.07.25.25,0,0,0-.31-.05A7.14,7.14,0,0,1,4,39.93H4a.65.65,0,0,0,0-.14.21.21,0,0,1,0-.22l0-.08a.06.06,0,0,0,0,0,.17.17,0,0,1,0-.21l0-.08A.13.13,0,0,0,4,39l0-.07s0-.07,0-.09.16-.42.28-.61a.51.51,0,0,0,0-.13,1.6,1.6,0,0,0,0-.44.19.19,0,0,1,0-.18.29.29,0,0,0,0-.23.68.68,0,0,0,0-.19,1.88,1.88,0,0,1-.05-.33c0-.11.06-.2,0-.32a.13.13,0,0,1,0-.12c.17-.11.16-.34.18-.54a.08.08,0,0,0,0-.05.53.53,0,0,1-.1-.36l.23-.4s0,0,0,0,0-.06,0-.06H4.29s0-.06,0-.07a.35.35,0,0,0,.21-.23l.18-.46a.36.36,0,0,0,0-.23,1,1,0,0,1,0-.43.49.49,0,0,0,0-.24c-.08-.16-.07-.27,0-.36a1.05,1.05,0,0,0,.07-.11.13.13,0,0,0,0-.13.24.24,0,0,1-.17-.22.67.67,0,0,0-.07-.18c0-.07-.12-.07-.13-.16a.57.57,0,0,0-.07-.22.19.19,0,0,1,0-.08l.19-.13a.15.15,0,0,0,.06-.16.53.53,0,0,1,.17-.53,1.09,1.09,0,0,1,.51-.31l.1-.05a7.58,7.58,0,0,1,1-.45.15.15,0,0,0,0-.07.07.07,0,0,0,0-.06.54.54,0,0,0-.18,0l-.28.08a.75.75,0,0,1-.15,0S5.66,30,5.67,30l.09-.3a.42.42,0,0,0,0-.19A.66.66,0,0,1,5.9,29,.59.59,0,0,0,6,28.58a.49.49,0,0,1,0-.27c0-.14,0-.19-.11-.21s0,0,0,0-.17-.13-.14-.28a.15.15,0,0,1,0-.09,1,1,0,0,0,.11-.49A3.77,3.77,0,0,1,6,26.35c0-.07,0-.15.05-.22a2.52,2.52,0,0,0-.17-.44.06.06,0,0,1,0-.08,1,1,0,0,1,.16-.12.12.12,0,0,0,0-.19,1.54,1.54,0,0,1-.17-.7.44.44,0,0,1,0-.22c0-.09.08-.16.11-.24s.07-.15,0-.22S6,23.87,6,23.85l-.07,0a.41.41,0,0,1,0-.07c0-.07.12-.12.17-.18a.59.59,0,0,0,.07-.16.24.24,0,0,0,0-.08s0,0,0,0a.57.57,0,0,0-.18,0l-1.06.41c-.43.17-.86.36-1.29.52a6.5,6.5,0,0,1-.84.22.91.91,0,0,1-.33,0,.27.27,0,0,1-.18-.14.71.71,0,0,1-.14-.49.38.38,0,0,0,0-.15.65.65,0,0,1,0-.37.48.48,0,0,0,0-.41.36.36,0,0,1,0-.27c0-.09,0-.12-.07-.18h0c-.06,0-.07-.09,0-.14s.08-.09,0-.18,0-.11,0-.15a.49.49,0,0,0,.2-.26.83.83,0,0,0,.05-.32c0-.25,0-.49,0-.73a1.31,1.31,0,0,1,.11-.6,1.14,1.14,0,0,0,.1-.19.61.61,0,0,0,.05-.18,4.38,4.38,0,0,1,.08-.62s0-.1,0-.12-.06,0-.08.06-.1.12-.19.08a.6.6,0,0,0-.35-.05S2,19,2,19a.15.15,0,0,1,0-.09l0-.05a.31.31,0,0,0,.25-.29s0,0,.05-.05h0a.37.37,0,0,0,.26.15.15.15,0,0,0,.16-.14c.07-.51.14-1,.24-1.51a2.33,2.33,0,0,0,.05-.28,5.25,5.25,0,0,1,.19-1.12s-.06-.08-.09-.09H2.89l-.61,0a1.52,1.52,0,0,1-.54-.16l-.1-.06a.79.79,0,0,1-.26-1,3.71,3.71,0,0,1,.19-.4,1.81,1.81,0,0,0,.26-.77c0-.3.06-.61.12-.9a.34.34,0,0,0,0-.1c0-.06-.06-.13-.1-.13a1,1,0,0,0-.52.11,1.63,1.63,0,0,1-.31.11l-.17.07a.22.22,0,0,0-.08.15h0a.29.29,0,0,0-.2.05l-.15.13a1.16,1.16,0,0,0-.16-.11l-.18,0A.11.11,0,0,1,0,12.31s0-.07,0-.08a.71.71,0,0,0,.28-.33c0-.06.07-.1.12-.08a.48.48,0,0,0,.5-.16h0l.33,0a1.09,1.09,0,0,0,.56-.09.48.48,0,0,0,.27-.4,2,2,0,0,0,0-.34,1.24,1.24,0,0,1,.12-.64.31.31,0,0,0,0-.17,1.17,1.17,0,0,1,.09-.5A5.82,5.82,0,0,0,2.51,9c.07-.35.13-.71.19-1.06a.7.7,0,0,0,0-.25,4.41,4.41,0,0,1,0-.73A.87.87,0,0,1,3,6.32,1.63,1.63,0,0,1,3.49,6l.4-.18c.33-.13.66-.25,1-.35a4.79,4.79,0,0,0,1-.32A1.89,1.89,0,0,1,6.52,5a.19.19,0,0,0,.16-.1.09.09,0,0,1,.09,0,.73.73,0,0,0,.7-.09,1.2,1.2,0,0,1,.42-.12l1.32-.16c.22,0,.43-.1.64-.15a.83.83,0,0,1,.27,0,.5.5,0,0,0,.32-.11.24.24,0,0,1,.17,0,1.34,1.34,0,0,0,.4,0h.12a.45.45,0,0,0,.36,0,1.25,1.25,0,0,1,.26-.07l.7-.13.18,0a3.25,3.25,0,0,0,.69-.14,1.19,1.19,0,0,1,.27-.07,2.15,2.15,0,0,0,.67-.12l.06,0,1.08-.14.39-.06.32-.06a1.12,1.12,0,0,0,.54-.2.26.26,0,0,1,.21,0l.33,0c.35,0,.68-.11,1-.09a.71.71,0,0,0,.25-.06,1.07,1.07,0,0,0,.22-.15l.14.07a.27.27,0,0,0,.21,0,3.9,3.9,0,0,0,.67-.11.16.16,0,0,1,.12,0,1,1,0,0,0,.68-.16.65.65,0,0,1,.34-.06,1,1,0,0,1,.17,0,2.53,2.53,0,0,0,.95,0h0a5,5,0,0,1,.76-.21.54.54,0,0,0,.13-.07h0a.2.2,0,0,1,0,.21,1.29,1.29,0,0,1-.59.17,1.41,1.41,0,0,0-.57.11,1.12,1.12,0,0,1-.32,0l-.43,0-.09.05c.06.07.12,0,.18,0a1.5,1.5,0,0,1,.47,0,1.43,1.43,0,0,0,.36,0,1.5,1.5,0,0,1,.37,0C22.14,3,22.06,3,22,3l-.21,0-.25,0-.22,0-.24.08-.21.06-.25.06s0,0,0,0a.75.75,0,0,1,.15,0,.59.59,0,0,0,.49-.11.49.49,0,0,1,.17-.06l.9-.09a.26.26,0,0,1,.26.13.08.08,0,0,0,.07,0,.46.46,0,0,0,.43-.15.28.28,0,0,1,.2-.1l0,.08s0,0,0,0h0s0,0,0-.07l-.06,0a1,1,0,0,1,.52-.15c.29-.05.59-.08.89-.12l.52-.11h0a.41.41,0,0,0,.39,0s0,0,0-.12l0,0h0s.07-.05.1,0a.35.35,0,0,1,.13.08c.06,0,.12,0,.13,0a.33.33,0,0,0,0-.14c0-.15-.07-.2-.18-.19a5.48,5.48,0,0,0-.57,0,4.3,4.3,0,0,1-.61,0,3.64,3.64,0,0,0-.86.12.23.23,0,0,1-.21,0s0,0,0,0a0,0,0,0,1,0,0,.61.61,0,0,1,.17-.07,1.33,1.33,0,0,0,.52-.13.55.55,0,0,1,.22,0l.25,0s0,0,0,0a.05.05,0,0,0,0-.06s0,0-.06-.06.21-.06.29,0a.33.33,0,0,0,.39,0,.67.67,0,0,1,.31-.07.18.18,0,0,1,.2.08.16.16,0,0,0,.24,0,.43.43,0,0,1,.23-.1,2.07,2.07,0,0,1,.61-.05.76.76,0,0,0,.21,0,.3.3,0,0,1,.24,0c-.13.14-.3,0-.47.13a.54.54,0,0,0,.12,0,2.25,2.25,0,0,0,.81-.16h0a.23.23,0,0,0,.17.07l.28,0a.29.29,0,0,0,.22-.14.21.21,0,0,1,.23-.09c.06,0,.09,0,.08.12s0,.06,0,.07.1,0,.14,0a2.08,2.08,0,0,1,.6-.09,5.9,5.9,0,0,1,1.11-.05.33.33,0,0,0,.3-.12.16.16,0,0,1,.23-.05.21.21,0,0,0,.2,0l.79-.08a.66.66,0,0,0,.2-.06c.09-.15.23-.14.36-.17h0c0,.05.07.12.11.13a.64.64,0,0,0,.47,0l.06,0c.06,0,.06-.05,0-.18a1.63,1.63,0,0,1,.91-.21.23.23,0,0,1,.19.12l.23.33s0,0,0,0a2.13,2.13,0,0,0,.33-.11A1.61,1.61,0,0,1,36,1.14a1.09,1.09,0,0,0,.36,0,2.62,2.62,0,0,1,.79-.08,4.18,4.18,0,0,0,.5,0h.79c.06,0,.09,0,.07-.12s0,0,0,0a4.33,4.33,0,0,0,.68.14A1.54,1.54,0,0,0,39.76,1l.39-.07a1.74,1.74,0,0,0,.22-.05,2.83,2.83,0,0,1,.92-.17L42,.63a1.36,1.36,0,0,0,.29-.06,1,1,0,0,1,.42,0h.14A6.28,6.28,0,0,1,44.47.34l.61,0a1.49,1.49,0,0,0,.55-.1A1,1,0,0,1,46.15.2a1.78,1.78,0,0,0,.46,0l.8,0A5.79,5.79,0,0,0,48,.09c.16,0,.31,0,.47,0l1,0a3.53,3.53,0,0,1,.65,0,.85.85,0,0,0,.5,0s0,0,.06,0a.17.17,0,0,1,0,.14.2.2,0,0,1-.25.11.46.46,0,0,1-.14-.07.19.19,0,0,0-.23.06h0a.64.64,0,0,0-.18-.06,5.06,5.06,0,0,0-1.1,0,1.23,1.23,0,0,1-.33,0,.47.47,0,0,0-.42.13h0a1.4,1.4,0,0,1-.29,0,4.33,4.33,0,0,0-1.08,0,.75.75,0,0,0-.38.13A2.8,2.8,0,0,1,46,.7s0,0,0,0a1.14,1.14,0,0,1,.54.09.54.54,0,0,0,.25,0l.61,0a.48.48,0,0,1,.29,0s0,.05,0,.05l-.79.1a1.11,1.11,0,0,0-.25.05s0,.05-.06.1a.19.19,0,0,0,0,.13l.11,0c0,.05,0,.07-.1.05a1.16,1.16,0,0,0-.52,0c-.21.08-.45.06-.66.13a5.37,5.37,0,0,1-1,.17,4.09,4.09,0,0,0-.93.13,1.38,1.38,0,0,1-.29,0,.53.53,0,0,0-.17,0s0,.1,0,.12,0,.06,0,.06a1.21,1.21,0,0,0,.7-.14.23.23,0,0,1,.18,0,3.85,3.85,0,0,0,.83,0l1.58-.15.5-.05,0,0s0,.07,0,.08l-.22.05-.13.05a.08.08,0,0,0,0,0s0,.07,0,.07l.36,0,1.19-.07s0,0,0,0v0a.25.25,0,0,1-.18.13l-.87.07-.25.05c.06.07.12,0,.18,0l.72.08a1.63,1.63,0,0,0,.79-.07.86.86,0,0,1,.28,0c.11,0,.22,0,.32,0a.75.75,0,0,1,.33,0,.66.66,0,0,0,.28,0,1.64,1.64,0,0,1,.22,0,1.63,1.63,0,0,0,.54,0,3.14,3.14,0,0,0,.61,0,2.08,2.08,0,0,1,.5,0,.75.75,0,0,0,.53-.07l.14-.05c0-.07,0,0-.07,0l-.11,0a.93.93,0,0,0-.57,0,.84.84,0,0,1-.54,0s0,0,0,0,0,0,0,0a.41.41,0,0,1,.31-.09.58.58,0,0,0,.23,0,.84.84,0,0,1,.52,0s.05,0,0-.1a.15.15,0,0,1,0-.08.56.56,0,0,1,.56.11c.1.07.21.11.28.24a.26.26,0,0,1,0,.12.71.71,0,0,0,0,.29s0,0,0,.06-.08,0-.09.07.06.09.09.12a.39.39,0,0,1,.1.08.2.2,0,0,1,0,.08s0,.1-.06.1a.75.75,0,0,1-.21,0,4.42,4.42,0,0,0-.63,0,1.2,1.2,0,0,1-.19,0A3.44,3.44,0,0,0,51,2.89l.13,0a3.93,3.93,0,0,1,.84,0,.44.44,0,0,0,.2,0,2.19,2.19,0,0,1,.51,0,1.12,1.12,0,0,1,.56.22.5.5,0,0,0,.32.11h.07a2.54,2.54,0,0,1,.9.12,1.35,1.35,0,0,0,.29,0,.63.63,0,0,1,.31.12s0,0,0,0l0,0-.2.07.21.06.18,0,.21,0,.18,0a.53.53,0,0,1-.13.33.19.19,0,0,0,0,.18l.13.18a.19.19,0,0,1,0,.08.23.23,0,0,1-.11,0l-.28,0s-.1,0-.14,0l.12.11s0,0,0,0,0,.07,0,.07a4,4,0,0,0-.5.06c-.12-.09-.25,0-.37-.06s-.1-.08-.15,0,.1,0,.15,0a.5.5,0,0,0,.37.07l.1.06.51.13a.8.8,0,0,0,.43,0,.36.36,0,0,1,.17,0,.1.1,0,0,1,0,.15s-.1,0-.09.13l.69.07.17,0a.09.09,0,0,1,.05.07.11.11,0,0,1,0,.08.54.54,0,0,1-.16.1L56.36,6a.15.15,0,0,0,0,.07.09.09,0,0,0,0,.07h.29l.11,0c-.08.11-.19.09-.27.16s-.1.08-.14.13a.19.19,0,0,0,0,.28.85.85,0,0,0,.28.12c0,.07,0,.06-.06.07L56.44,7s0,.1,0,.13a.61.61,0,0,0,.1.07l.21.06a.15.15,0,0,1,.07.1c0,.07,0,.12.11.11l.35-.05a.57.57,0,0,0,.14,0,.9.9,0,0,1,.4,0,3.83,3.83,0,0,0,1.12,0l.43,0c0-.07,0-.06-.06-.06h-.39a.06.06,0,0,1-.05-.06s0-.06,0-.06l.14,0h.18A.16.16,0,0,0,59.33,7a.2.2,0,0,1,.17-.14.26.26,0,0,1,.28.08.36.36,0,0,0,.23.14,3.24,3.24,0,0,0,1.12,0,4.93,4.93,0,0,1,.54,0,.59.59,0,0,1,.17,0s.1.11.09.15a.22.22,0,0,1,0,.12s-.08.07-.11.11a.1.1,0,0,0,0,.13l.16.11a.27.27,0,0,1,.1.15.32.32,0,0,1,0,.27.2.2,0,0,0,0,.08.14.14,0,0,0,0,.17.71.71,0,0,1,.22.33c0,.11,0,.21,0,.32a1,1,0,0,1,.17.58,2.16,2.16,0,0,0,.14.67.37.37,0,0,1,0,.23.5.5,0,0,0,0,.27c0,.13.07.27.12.4a.19.19,0,0,1,0,.13.31.31,0,0,0,0,.28.07.07,0,0,1,0,.09l-.07,0c0,.07.11,0,.16,0a.13.13,0,0,1,.1.12.49.49,0,0,1,0,.2.67.67,0,0,0,.14.52.19.19,0,0,1,0,.18.68.68,0,0,0-.1.35.32.32,0,0,1-.16.25.45.45,0,0,1-.32.06,1.35,1.35,0,0,0-.53.06c-.2.07-.43,0-.61.17a.7.7,0,0,1-.65.13.61.61,0,0,0-.44,0,.27.27,0,0,0-.12.3,1.85,1.85,0,0,1,.08.77,1.27,1.27,0,0,0,.06.48,2.35,2.35,0,0,1,.08.91.91.91,0,0,1-.15.48.18.18,0,0,0,.05.24l0,0c.07.07.07.11,0,.2l-.07.12a.22.22,0,0,0,0,.18c.05.11.12.21.18.32a.56.56,0,0,1,0,.18.75.75,0,0,0,0,.55,2,2,0,0,1,.14.9,6.51,6.51,0,0,1,0,.77,1.25,1.25,0,0,1,0,.19c0,.06,0,.1-.07.16a2.78,2.78,0,0,1,.06.58c0,.16,0,.23-.11.31a.17.17,0,0,0,0,.08l0,0,.07,0,.11,0s0,0,0,0a.25.25,0,0,1,0,.09l-.08.09a.15.15,0,0,0,0,.13l.13.17a.18.18,0,0,1,0,.16c0,.12,0,.13,0,.17l.1.07a.26.26,0,0,1,0,.08.32.32,0,0,1,0,.14.52.52,0,0,0,0,.37,1,1,0,0,1,.06.29c0,.2,0,.41,0,.62a2.37,2.37,0,0,1-.08,1,.3.3,0,0,0,0,.21.32.32,0,0,1,0,.37s0,.09,0,.13a3.53,3.53,0,0,0,.38,1.12.72.72,0,0,1,.1.41,1.27,1.27,0,0,0,.05.51,1.68,1.68,0,0,1,0,.45.6.6,0,0,0,0,.19,4.83,4.83,0,0,1,.05,1.07,1,1,0,0,0,0,.34.31.31,0,0,1,0,.09.7.7,0,0,0,0,.43,1.7,1.7,0,0,1,0,.39.46.46,0,0,0,.13.38.84.84,0,0,1,.29.45c0,.13.13.2.17.32s0,.26.07.39a.27.27,0,0,0,.06.12,1.16,1.16,0,0,0,.16.21.35.35,0,0,1,.06.18.23.23,0,0,0,0,.13.56.56,0,0,1,.15.48c0,.5,0,1,0,1.51a2.2,2.2,0,0,1,0,.77.92.92,0,0,0,0,.33c0,.23,0,.46.06.68a.41.41,0,0,1,0,.19,1.86,1.86,0,0,0,0,.78,1.89,1.89,0,0,1,0,.58,1,1,0,0,0,0,.47.39.39,0,0,1,0,.24,1,1,0,0,0,0,.55.69.69,0,0,1,0,.2,2.08,2.08,0,0,0,.09.6c0,.09-.05.2-.08.3a1.29,1.29,0,0,0-.08.26c0,.07,0,.12-.07.14l-.36.18a.12.12,0,0,0-.06.06.28.28,0,0,0,0,.13.18.18,0,0,0,.07.16l.14,0,.51.06a.44.44,0,0,1,.21.07h0a3.3,3.3,0,0,1-.83,0s0,0,0,.06l0,0a.6.6,0,0,0,.32.07.76.76,0,0,1,.46.1,3.05,3.05,0,0,0,.35.15l-.12,0-.9,0a.58.58,0,0,0-.18,0s0,0,0,0,0,.07,0,.08l.29.09.35.14s0,.07,0,.11l0,0a.12.12,0,0,0,0,.16l.23.15,0,0s0,.05,0,.06,0,0-.06,0a.17.17,0,0,0-.06.11,2.12,2.12,0,0,0,0,.44,2.32,2.32,0,0,1,0,1.23c0,.09,0,.15.09.23s0,0,0,.09l0,0a.1.1,0,0,0,0,.15c.06,0,.13,0,.08.16s0,.09,0,.12a.53.53,0,0,0,.33.21s0,0,0,0-.07,0-.11,0S63,46,63,46.22a.43.43,0,0,1-.07.25.3.3,0,0,0,0,.28c0,.08,0,.1,0,.15a.73.73,0,0,0-.09.08.12.12,0,0,0,0,.08.1.1,0,0,0,.05.06l.11.05s.06.13,0,.15-.16.23-.14.39a.61.61,0,0,1,0,.36l.07.12a.29.29,0,0,1,.05.27.5.5,0,0,1-.05.13.33.33,0,0,0,0,.39.54.54,0,0,0,0,.28.19.19,0,0,1,0,.13,1.64,1.64,0,0,1-.14.22.15.15,0,0,0,0,.17s.05,0,.06.07a.22.22,0,0,1,0,.13,2.82,2.82,0,0,0-.09.71.28.28,0,0,0,0,.18.49.49,0,0,1,0,.37,1,1,0,0,1-.05.18.18.18,0,0,0,0,.21s0,.07,0,.09a4.86,4.86,0,0,0-.11.55.25.25,0,0,1-.16.18.43.43,0,0,1-.35,0,.45.45,0,0,0-.39,0l-.52.17a2.13,2.13,0,0,1-.25,0s-.08,0-.09-.12,0-.14-.06-.14a.74.74,0,0,1-.46-.16.27.27,0,0,0-.21,0,.73.73,0,0,1-.5-.06.34.34,0,0,0-.22,0,4.51,4.51,0,0,0-.53.09,3.17,3.17,0,0,0-.44.12l-.15.07a1.22,1.22,0,0,1-.76.19s0,0,0,0v0l.11,0s.07,0,.09-.06,0-.06-.09,0c-.39,0-.79,0-1.19.08a.18.18,0,0,1-.14,0,1.43,1.43,0,0,0-.75-.18c-.12,0-.2-.1-.28-.21a.25.25,0,0,1,0-.09,0,0,0,0,1,0,0l.54,0s0,0,.05-.06,0-.06,0-.06a.44.44,0,0,0-.25,0,1.31,1.31,0,0,1-.68,0s-.05,0-.07,0,0,0,0,0v0c0,.08.11.09.16.13a.22.22,0,0,1,0,.32l-.06,0c-.09.08-.17.08-.26,0s-.05,0-.06,0,0,.08,0,.13a.32.32,0,0,1,0,.14c0,.08,0,.17-.1.18l-.23,0c-.32,0-.64,0-1,.1h-.1a5.8,5.8,0,0,1-1,.12.78.78,0,0,0-.34.05,3.07,3.07,0,0,1-1.09.11l-.16,0a2,2,0,0,1-.64,0,.49.49,0,0,0-.4.17,2,2,0,0,1-.55.43s0,.07,0,.13,0,.14,0,.18-.13,0-.19-.07a.3.3,0,0,0-.13-.16s-.12,0-.13,0a.59.59,0,0,0,0,.13,1.48,1.48,0,0,1,0,.19.16.16,0,0,1,0,.11c-.16.06-.32.09-.48.14h0a4.22,4.22,0,0,1-1.07.36l-.25,0s-.09,0-.11-.1a.17.17,0,0,0-.14-.13h-.11l-.81.2c-.13,0-.14,0-.18-.19,0,0,0-.09-.07-.08a.5.5,0,0,1-.46,0,.37.37,0,0,0-.32,0l-.39.11a.86.86,0,0,1-.57,0,3.9,3.9,0,0,0-.46-.12.06.06,0,0,1-.05-.06s0,0,0-.07,0,0,0,0a.05.05,0,0,0,0,0h-.07l-2.27.22-.18,0a19.55,19.55,0,0,1-2.14.27c-.67.08-1.35.12-2,.24a5.06,5.06,0,0,0-.86.11,3.56,3.56,0,0,0-.78.14h0c-.53.06-1,.21-1.57.28a1.38,1.38,0,0,1-.29,0s0,0,0-.07,0-.07,0-.07l.35-.11c-.13-.06-.26-.05-1,.07,0,0,0,0,0,.06l.11,0,0,0-.36.05a.86.86,0,0,0-.38.1.57.57,0,0,1-.46.06,3.75,3.75,0,0,0-1.53,0,2,2,0,0,0-.33.08l-.8.28h0l-.68.15h-.19a1.23,1.23,0,0,0-.47,0,5.07,5.07,0,0,1-.54.09,6.26,6.26,0,0,0-.73.14l-.24.06-.79.07a2.44,2.44,0,0,0-.39.07,4.91,4.91,0,0,1-.84.14,1.74,1.74,0,0,0-.75.27.72.72,0,0,1-.24.1,1.23,1.23,0,0,1-.47,0,.93.93,0,0,0-.65.09.42.42,0,0,1-.19.06l-.61,0-.14,0a.14.14,0,0,0-.07.14.13.13,0,0,0,.11.11h.18l.43,0h.21a.53.53,0,0,1-.15.06c-.21,0-.43.08-.64.14a3.62,3.62,0,0,1-.67.14.5.5,0,0,1-.21,0s0,0,0,0,0,0,0,0,.31,0,.45-.13,0,0,0,0a.16.16,0,0,0,0-.09s0,0,0,0l-.25,0c-.15,0-.28.1-.43,0l-.38.12a4,4,0,0,1-.45.15.71.71,0,0,1-.57,0,.37.37,0,0,0-.25,0c-.28,0-.57.07-.85.13a11.39,11.39,0,0,1-1.15.17.44.44,0,0,0-.33.13.47.47,0,0,1-.27.12l-.18,0c-.29,0-.32,0-.47.32a.15.15,0,0,1-.16.08c-.07,0-.14,0-.17.08a.18.18,0,0,1-.05.08.61.61,0,0,1-.31.11,1.81,1.81,0,0,1-.52,0,.25.25,0,0,0-.17,0,1.16,1.16,0,0,1-.48.11s-.06,0,0,.09,0,.08,0,.08l-.43.06c-.14-.07-.14-.07-.22,0ZM17.76,3.29l-.06,0h0l.09,0,.06,0,0,0C17.83,3.24,17.79,3.28,17.76,3.29Zm36.29.26L54,3.49h0l0,0,0,0h.11l.09.06.06,0a.09.09,0,0,0-.05,0ZM33.84,2.29h0a.17.17,0,0,0,.17.06l0,0s0,0,0,0ZM15.79,57.14l0,0h0l0,0-.09.06-.75.12c-.32,0-.65,0-1,.12l-.17.08v0s0,.06,0,.06l.69,0a1.05,1.05,0,0,1,.43,0s0,0,0,0a.25.25,0,0,0,0,.07l-.11,0a2.21,2.21,0,0,0,.79,0,.16.16,0,0,0,.09-.13c0-.08.07-.13.13-.14a.73.73,0,0,0,.21-.06,1.56,1.56,0,0,1,.63-.14,4.62,4.62,0,0,0,.65-.09c.21,0,.42-.09.64-.12a8.19,8.19,0,0,0,1-.17l.22,0a4.44,4.44,0,0,0,.95-.19l.11,0,1.28-.23a.38.38,0,0,0,.1,0,2.88,2.88,0,0,1,.71-.14l.4,0a1.24,1.24,0,0,0,.54-.21s0,0,0,0,0,0,0,0-.14,0-.21,0a1.92,1.92,0,0,1-.66.19c-.45,0-.91.1-1.36.16l-.29,0a7.89,7.89,0,0,0-1.18.13,2.84,2.84,0,0,1-.71.11c-.12,0-.24,0-.36.06a.4.4,0,0,0-.3.21.22.22,0,0,1-.19.11,1.06,1.06,0,0,1-.61-.06.47.47,0,0,0-.33,0,4,4,0,0,0-.81.19A1.88,1.88,0,0,1,15.79,57.14Zm3.72.22a3.08,3.08,0,0,0,.67-.09l.5-.1a.4.4,0,0,0,.23-.12A.22.22,0,0,1,21.1,57h.26a1.82,1.82,0,0,0,.95-.12.58.58,0,0,1,.18,0l.5,0a1.14,1.14,0,0,0,.32-.07,2.13,2.13,0,0,1,.42-.1l.43-.06s0,0,0-.05-.3,0-.47,0c.11-.11.25,0,.36-.17h-.35l-1.15.12a2.17,2.17,0,0,0-.5.08,3.41,3.41,0,0,1-.46.1c-.1,0-.21,0-.31.06a2.24,2.24,0,0,1-.5.11,1.37,1.37,0,0,0-.28,0,7.73,7.73,0,0,1-1.07.19,1.78,1.78,0,0,0-.39.07,2.13,2.13,0,0,1-.42.1c-.56,0-1.12.16-1.68.24a.27.27,0,0,0-.14,0s0,.06,0,.07.07.17.11.26a.83.83,0,0,0,.47-.08.78.78,0,0,1,.49-.1H18s0-.07,0-.08a.12.12,0,0,1-.05-.05l0,0,.6-.14a.33.33,0,0,1,.25.05.21.21,0,0,0,.24,0l.31-.13.1,0S19.5,57.28,19.51,57.36ZM43.74,54.2A2.4,2.4,0,0,0,44.83,54s0-.05,0-.07l0,0-.43,0A1.26,1.26,0,0,0,43.74,54.2ZM33.63,1.89l.76-.14s0,0,0-.06l-.06,0h-.24s0-.12-.06-.13a.25.25,0,0,0-.25,0c-.06,0-.07.11-.09.18A1.22,1.22,0,0,1,33.63,1.89ZM17,56.64c.38-.06.71-.06,1-.14,0,0,0,0,0-.07s0,0,0,0a.53.53,0,0,0-.39,0c-.19,0-.37.1-.56.16C17.06,56.54,17.06,56.56,17,56.64Zm2.7-.5.07,0,.78-.08a2.68,2.68,0,0,0,.27-.07.08.08,0,0,0,0,0s0,0,0,0-.19,0-.28,0A2.39,2.39,0,0,0,19.7,56.14ZM45.63,2h-.14l-.42.1s0,0,0,.06l0,0a1.09,1.09,0,0,1,.25,0A2.12,2.12,0,0,0,46,2S46,2,46,2l0,0Zm15.5,7A3.39,3.39,0,0,0,59.85,9s0,0-.05.06c.35,0,.68,0,1-.06C60.92,9,61,9,61.13,9ZM18.72,56.12s-.09,0-.13,0a5.47,5.47,0,0,0-1.21.16s0,0,.06,0A7.5,7.5,0,0,0,18.72,56.12Zm-1.8.25a8.74,8.74,0,0,0-1.14.08l-.1,0s0,0,0,.05l.11,0A5.24,5.24,0,0,0,16.92,56.37Zm-5.67-52L11,4.41a.18.18,0,0,0-.08.07s0,0,0,0l0,0a.55.55,0,0,0,.57-.15s0,0,0,0a.05.05,0,0,0,0,0C11.43,4.28,11.37,4.34,11.25,4.35ZM26.56,2.18s0-.05-.06-.05a.43.43,0,0,0-.33.12.11.11,0,0,0,0,.08.3.3,0,0,0,.06.11s0,0,0,0a.54.54,0,0,0,.29-.15S26.55,2.22,26.56,2.18ZM33,2.83a2.66,2.66,0,0,0,.28,0c.07,0,.11-.06.13-.14s0-.1.08-.16v0a.09.09,0,0,0-.07,0,.18.18,0,0,0-.09.06.5.5,0,0,1-.31.28S33,2.82,33,2.83ZM26.81,55.76c-.68,0-.69,0-.83.11a4.23,4.23,0,0,0,.63,0C26.67,55.8,26.75,55.82,26.81,55.76Zm-11.9,0a1,1,0,0,0-.24,0,2.86,2.86,0,0,0-.42.1s0,0,0,0,0,0,0,0A1.28,1.28,0,0,0,14.91,55.75Zm-.34.86c-.06,0-.12,0-.18,0l-.18,0H14l-.06,0a.11.11,0,0,0,0,.08s0,0,0,0,.07,0,.1,0l.49-.1S14.56,56.62,14.57,56.61ZM48,54.32a1.27,1.27,0,0,0,.38-.17,0,0,0,0,0,0,0s0,0,0,0a.66.66,0,0,0-.4.13.11.11,0,0,0,0,.08Zm-2-.55a4.46,4.46,0,0,0-.63,0s0,0,0,.06l0,0,.31-.06A.87.87,0,0,0,46,53.77ZM44.05,2.29l.62-.06A.54.54,0,0,0,44.05,2.29Zm6.16.22c-.37,0-.42,0-.59,0l.07,0ZM43.78,1a1.27,1.27,0,0,0-.57.06A.74.74,0,0,0,43.78,1Zm2,53.38a.06.06,0,0,0,0,0,0,0,0,0,0,0,0l-.23.08a.14.14,0,0,0,0,.09c0,.12.1.14.16.07A.28.28,0,0,0,45.77,54.38Zm-26.5,1.91.09,0s0,0,0,0,0-.07,0-.07a.12.12,0,0,0-.16,0s0,0,0,.08l0,0ZM17.38,3.37a.54.54,0,0,0-.39.09s0,0,0,.06l0,0A.64.64,0,0,0,17.38,3.37ZM35,54.91a.7.7,0,0,0,.38,0s0,0,0-.07l0,0A.66.66,0,0,0,35,54.91ZM28.86,2.17s.06,0,.07,0,0,0,0-.08l0,0a.14.14,0,0,0-.17,0s0,0,0,.07,0,0,0,0Zm7.56-.64V1.48l-.35,0s0,0,0,.05ZM33.94,55.09c.05,0,.07,0,.09,0a1.63,1.63,0,0,0,.31,0s0,0,0-.06A3.77,3.77,0,0,0,33.94,55.09ZM50.64,2.85c-.09-.06-.17,0-.25,0l-.17,0s0,0,0,0,0,0,0,0h.31Zm-6.7-1.68-.31,0s0,0,0,.07,0,0,0,0S43.84,1.25,43.94,1.17ZM54.59,4.34a.47.47,0,0,0,.3.1l0-.05a.05.05,0,0,0,0,0A.23.23,0,0,0,54.59,4.34ZM12.45,4.11l0,0,0,0,.25,0,0,0ZM36.49,2c-.21-.09-.21-.09-.28,0Zm-3.43-.41c-.06,0-.11,0-.15.08a.19.19,0,0,0,0,.08s0,0,0,0,.13,0,.17-.11A.05.05,0,0,0,33.06,1.59ZM54.82,4h0a.1.1,0,0,0,0,0s0,0,0,0l.18,0a.07.07,0,0,0,0,0S55,4,54.91,4ZM36.26,1.3H36s-.09,0-.11.05S36.11,1.39,36.26,1.3ZM13.68,3.92l.07,0,.21,0s0,0,0,0,0,0,0,0A.4.4,0,0,0,13.68,3.92ZM25,3,25,3s0,0,0,0,0-.07,0-.07h-.1a.06.06,0,0,0,0,.07s0,0,0,0ZM60.2,7.37c-.12,0-.12,0-.2,0A.23.23,0,0,0,60.2,7.37Zm-22.57-6,.07,0s0,0,0-.06a0,0,0,0,0-.06,0l-.06,0s0,0,0,0A0,0,0,0,0,37.63,1.41Zm-4.8,1c.06.06.12,0,.19,0a.1.1,0,0,0,0,0s0,0,0,0A.16.16,0,0,0,32.83,2.42ZM17.21,3.71c-.07,0-.15-.09-.2,0Zm4.84-.5v.06h.17l0,0s0-.05,0-.05Zm.94.84h.07s0,0,0-.06l0,0L23,4A0,0,0,0,0,23,4ZM42.21,1.28l.07,0s0,0,0,0h-.14l0,0ZM11.91,4.33a.06.06,0,0,0,0,0,.08.08,0,0,0,.1,0s0,0,0,0,0,0-.06,0S11.93,4.32,11.91,4.33Zm5,51.1.07,0s0,0-.08,0l-.07,0S16.8,55.44,16.87,55.43ZM23.05,3.75l.06,0-.06,0s-.05,0,0,0ZM20,54.81h-.06l.05,0,0,0ZM61.32,7.48h.06s0,0,0,0l-.06,0ZM57.11,51.59s0,0,0,0-.09,0-.08,0A.15.15,0,0,0,57.11,51.59ZM25.47,2.85h0s0,0,0,0l0,0Zm6.42-1.14,0,0,0,0s0,0,0,0S31.9,1.72,31.89,1.71ZM28.3,55.3l0,0h0s0,0,0,0ZM36.22,2.22l0,0s0,0,0,0,0,0,0,0S36.23,2.23,36.22,2.22Zm-.88.09h0s0,0,0,0h0Zm-3.22.15,0,0s0,0,0,0a0,0,0,0,0,0,0S32.14,2.46,32.12,2.46ZM24.88,56.33h-.05s0,0,0,0S24.88,56.34,24.88,56.33ZM54.6,3.65l0,0s0,0,0,0,0,0,0,0ZM14.19,57.81h0s0,0,0,0l0,0ZM55.06,5.39v0h0v0ZM31.59,1.75h0l0,0Zm14.75.15,0,0h0ZM29.11,55.09l0,0a0,0,0,0,0,0,0l0,0ZM5,49.61v0h0ZM16,57h0l0,0Zm4.7-53.52s0,0,0,0h0ZM6.57,38.86v0h0v0ZM40.4,1.54v0h0ZM6.16,56.81v0l0,0Zm24.06-1.47,0,0v0ZM14.5,57.79v0l0,0Zm23.32-56h0ZM14.05,56.28h0v0h0ZM52.46,1.7v0l0,0ZM30.05,55.1l0,0,0,0h0ZM13.89,58.86v0h0ZM29.28,2.16l0,0v0Zm7.36,52.58h0v0Z"/><path class="cls-5" d="M10.43,48.4s2.15,4,23.13,4,24.26-1.6,27-4c0,0-4.63-.89-27-.89S10.43,48.4,10.43,48.4Z"/><path class="cls-6" d="M10.45,48.39s2.15,4,23.11,4,24.25-1.61,27-4c0,0-4.63-.89-26.94-.89S10.45,48.39,10.45,48.39Z"/><path class="cls-7" d="M10.47,48.37s2.15,4,23.09,4,24.23-1.61,27-4c0,0-4.62-.89-26.91-.89S10.47,48.37,10.47,48.37Z"/><path class="cls-8" d="M10.49,48.36s2.14,4,23.07,4,24.21-1.6,27-4c0,0-4.62-.89-26.89-.89S10.49,48.36,10.49,48.36Z"/><path class="cls-9" d="M10.51,48.34s2.14,4,23.06,4,24.18-1.61,26.93-4c0,0-4.61-.88-26.87-.88S10.51,48.34,10.51,48.34Z"/><path class="cls-10" d="M10.53,48.33s2.14,4,23,4,24.17-1.6,26.91-4c0,0-4.61-.89-26.85-.89S10.53,48.33,10.53,48.33Z"/><path class="cls-11" d="M10.55,48.31s2.14,4,23,4,24.15-1.6,26.89-4c0,0-4.61-.88-26.83-.88S10.55,48.31,10.55,48.31Z"/><path class="cls-12" d="M10.57,48.3s2.14,4,23,4,24.13-1.6,26.87-4c0,0-4.6-.88-26.81-.88S10.57,48.3,10.57,48.3Z"/><path class="cls-13" d="M10.59,48.29s2.13,4,23,4,24.11-1.6,26.85-4c0,0-4.6-.89-26.78-.89S10.59,48.29,10.59,48.29Z"/><path class="cls-14" d="M10.61,48.27s2.13,3.95,23,3.95,24.09-1.6,26.83-3.95c0,0-4.6-.88-26.76-.88S10.61,48.27,10.61,48.27Z"/><path class="cls-15" d="M10.63,48.26s2.13,3.94,22.94,3.94,24.08-1.59,26.81-3.94c0,0-4.59-.88-26.74-.88S10.63,48.26,10.63,48.26Z"/><path class="cls-16" d="M10.65,48.24s2.13,3.94,22.93,3.94,24.05-1.59,26.78-3.94c0,0-4.59-.88-26.72-.88S10.65,48.24,10.65,48.24Z"/><path class="cls-17" d="M10.67,48.23s2.13,3.94,22.91,3.94,24-1.6,26.76-3.94c0,0-4.58-.88-26.7-.88S10.67,48.23,10.67,48.23Z"/><path class="cls-18" d="M10.69,48.22s2.13,3.93,22.89,3.93,24-1.59,26.74-3.93c0,0-4.58-.88-26.68-.88S10.69,48.22,10.69,48.22Z"/><path class="cls-19" d="M10.71,48.2s2.12,3.93,22.87,3.93,24-1.59,26.72-3.93c0,0-4.58-.88-26.66-.88S10.71,48.2,10.71,48.2Z"/><path class="cls-20" d="M10.73,48.19s2.12,3.93,22.85,3.93,24-1.59,26.7-3.93c0,0-4.57-.88-26.63-.88S10.73,48.19,10.73,48.19Z"/><path d="M10.75,48.17s2.12,3.93,22.83,3.93,24-1.59,26.68-3.93c0,0-4.57-.87-26.61-.87S10.75,48.17,10.75,48.17Z"/><path class="cls-21" d="M52.64,40.7a130.09,130.09,0,0,1-17.2.77,149.49,149.49,0,0,1-17.06-.83c-1.86-.18-3.28-.39-4.36-.58-3.13-.56-3.46-1.29-3.46-1.29v9a4.57,4.57,0,0,0,2.59,1.72c2,.6,8.06,2.42,22.35,2.37s20.42-1.72,22.42-2.49a6.17,6.17,0,0,0,2.53-1.6v-9s-.2.51-1.7.91A41.71,41.71,0,0,1,52.64,40.7Z"/><g class="cls-22"><path class="cls-23" d="M58.11,48.34c-2,.77-8.16,2.43-22.61,2.49S15,49.06,13,48.46A5,5,0,0,1,10.56,47v.81a4.59,4.59,0,0,0,2.59,1.71c2,.61,8.06,2.43,22.35,2.37s20.42-1.71,22.42-2.48a6.17,6.17,0,0,0,2.53-1.6V47A7.11,7.11,0,0,1,58.11,48.34Z"/><path class="cls-24" d="M58.11,48.32c-2,.77-8.16,2.43-22.61,2.49S15,49,13,48.44A5,5,0,0,1,10.56,47v.8a4.57,4.57,0,0,0,2.59,1.72c2,.6,8.06,2.43,22.35,2.37s20.42-1.71,22.42-2.49a6.17,6.17,0,0,0,2.53-1.6v-.85A7.11,7.11,0,0,1,58.11,48.32Z"/><path class="cls-25" d="M58.11,48.3c-2,.77-8.16,2.43-22.61,2.48S15,49,13,48.41A5,5,0,0,1,10.56,47v.8a4.63,4.63,0,0,0,2.59,1.72c2,.6,8.06,2.42,22.35,2.37s20.42-1.72,22.42-2.49a6.17,6.17,0,0,0,2.53-1.6v-.85A7.48,7.48,0,0,1,58.11,48.3Z"/><path class="cls-26" d="M58.11,48.27C56.1,49,50,50.71,35.5,50.76S15,49,13,48.39A5.13,5.13,0,0,1,10.56,47v.8a4.63,4.63,0,0,0,2.59,1.72c2,.6,8.06,2.42,22.35,2.37s20.42-1.72,22.42-2.49a6.17,6.17,0,0,0,2.53-1.6v-.86A7.11,7.11,0,0,1,58.11,48.27Z"/><path class="cls-27" d="M58.11,48.25C56.1,49,50,50.68,35.5,50.74S15,49,13,48.37a5,5,0,0,1-2.4-1.45v.8a4.57,4.57,0,0,0,2.59,1.72c2,.6,8.06,2.43,22.35,2.37s20.42-1.71,22.42-2.49a6.17,6.17,0,0,0,2.53-1.6v-.85A7.11,7.11,0,0,1,58.11,48.25Z"/><path class="cls-28" d="M58.11,48.23C56.1,49,50,50.66,35.5,50.71S15,49,13,48.34a5,5,0,0,1-2.4-1.44v.8a4.57,4.57,0,0,0,2.59,1.72c2,.6,8.06,2.42,22.35,2.37s20.42-1.72,22.42-2.49a6.17,6.17,0,0,0,2.53-1.6v-.85A7.29,7.29,0,0,1,58.11,48.23Z"/><path class="cls-29" d="M58.11,48.2C56.1,49,50,50.64,35.5,50.69S15,48.92,13,48.32a5,5,0,0,1-2.4-1.44v.8a4.63,4.63,0,0,0,2.59,1.72c2,.6,8.06,2.42,22.35,2.37s20.42-1.72,22.42-2.49a6.17,6.17,0,0,0,2.53-1.6v-.86A7.11,7.11,0,0,1,58.11,48.2Z"/><path class="cls-30" d="M58.11,48.18C56.1,49,50,50.61,35.5,50.67S15,48.9,13,48.3a5,5,0,0,1-2.4-1.45v.81a4.59,4.59,0,0,0,2.59,1.71c2,.61,8.06,2.43,22.35,2.37S55.92,50,57.92,49.26a6.3,6.3,0,0,0,2.53-1.6V46.8A7.11,7.11,0,0,1,58.11,48.18Z"/><path class="cls-31" d="M58.11,48.16c-2,.77-8.16,2.43-22.61,2.49S15,48.88,13,48.28a5,5,0,0,1-2.4-1.45v.8a4.57,4.57,0,0,0,2.59,1.72c2,.6,8.06,2.42,22.35,2.37S55.92,50,57.92,49.23a6.17,6.17,0,0,0,2.53-1.6v-.85A7.29,7.29,0,0,1,58.11,48.16Z"/><path class="cls-32" d="M58.11,48.13c-2,.78-8.16,2.44-22.61,2.49S15,48.86,13,48.25a5,5,0,0,1-2.4-1.44v.8a4.63,4.63,0,0,0,2.59,1.72c2,.6,8.06,2.42,22.35,2.37S55.92,50,57.92,49.21a6.17,6.17,0,0,0,2.53-1.6v-.85A7.33,7.33,0,0,1,58.11,48.13Z"/><path class="cls-33" d="M58.11,48.11c-2,.77-8.16,2.44-22.61,2.49S15,48.83,13,48.23a5.13,5.13,0,0,1-2.4-1.44v.8a4.63,4.63,0,0,0,2.59,1.72c2,.6,8.06,2.42,22.35,2.36S55.92,50,57.92,49.19a6.17,6.17,0,0,0,2.53-1.6v-.86A7.11,7.11,0,0,1,58.11,48.11Z"/><path class="cls-34" d="M58.11,48.09c-2,.77-8.16,2.43-22.61,2.49S15,48.81,13,48.21a5,5,0,0,1-2.4-1.45v.8a4.57,4.57,0,0,0,2.59,1.72c2,.6,8.06,2.43,22.35,2.37s20.42-1.71,22.42-2.49a6.17,6.17,0,0,0,2.53-1.6v-.85A7.11,7.11,0,0,1,58.11,48.09Z"/><path class="cls-35" d="M58.11,48.07c-2,.77-8.16,2.43-22.61,2.48S15,48.79,13,48.18a5,5,0,0,1-2.4-1.44v.8a4.57,4.57,0,0,0,2.59,1.72c2,.6,8.06,2.42,22.35,2.37s20.42-1.72,22.42-2.49a6.17,6.17,0,0,0,2.53-1.6v-.85A7.29,7.29,0,0,1,58.11,48.07Z"/><path class="cls-36" d="M58.11,48c-2,.78-8.16,2.44-22.61,2.49S15,48.76,13,48.16a5,5,0,0,1-2.4-1.44v.8a4.63,4.63,0,0,0,2.59,1.72c2,.6,8.06,2.42,22.35,2.37s20.42-1.72,22.42-2.49a6.17,6.17,0,0,0,2.53-1.6v-.86A7.11,7.11,0,0,1,58.11,48Z"/><path class="cls-37" d="M58.11,48c-2,.77-8.16,2.43-22.61,2.49S15,48.74,13,48.14a5,5,0,0,1-2.4-1.45v.81a4.59,4.59,0,0,0,2.59,1.71c2,.61,8.06,2.43,22.35,2.37s20.42-1.71,22.42-2.48a6.3,6.3,0,0,0,2.53-1.6v-.86A7.11,7.11,0,0,1,58.11,48Z"/><path class="cls-38" d="M58.11,48c-2,.77-8.16,2.43-22.61,2.48S15,48.72,13,48.12a5,5,0,0,1-2.4-1.45v.8a4.57,4.57,0,0,0,2.59,1.72c2,.6,8.06,2.42,22.35,2.37s20.42-1.72,22.42-2.49a6.17,6.17,0,0,0,2.53-1.6v-.85A7.29,7.29,0,0,1,58.11,48Z"/><path class="cls-39" d="M58.11,48c-2,.78-8.16,2.44-22.61,2.49S15,48.69,13,48.09a5,5,0,0,1-2.4-1.44v.8a4.63,4.63,0,0,0,2.59,1.72c2,.6,8.06,2.42,22.35,2.37s20.42-1.72,22.42-2.49a6.17,6.17,0,0,0,2.53-1.6V46.6A7.33,7.33,0,0,1,58.11,48Z"/></g><g class="cls-40"><path class="cls-41" d="M63.14,36.82c0,2.73-4.3,5.08-27.64,5.08-23,0-27.61-2.35-27.61-5.08s10.89-4.93,27.61-4.93S63.14,34.1,63.14,36.82Z"/><path class="cls-42" d="M35.5,31.86c16.67,0,27.56,2.21,27.56,4.93,0,1.21-.85,2.36-3.82,3.25-3.73,1.12-10.79,1.84-23.74,1.84C23,41.88,16,41.19,12.13,40.12,8.9,39.22,8,38,8,36.79,8,34.07,18.83,31.86,35.5,31.86Z"/><path class="cls-43" d="M35.5,31.83C52.12,31.83,63,34,63,36.77c0,1.2-.84,2.36-3.79,3.25-3.71,1.12-10.76,1.83-23.68,1.83-12.42,0-19.48-.68-23.31-1.75C9,39.2,8.05,38,8.05,36.77,8.05,34,18.88,31.83,35.5,31.83Z"/><path class="cls-44" d="M35.5,31.8c16.57,0,27.39,2.21,27.39,4.94,0,1.2-.84,2.37-3.77,3.26-3.7,1.12-10.72,1.82-23.62,1.82-12.37,0-19.44-.67-23.26-1.74C9,39.18,8.13,38,8.13,36.74,8.13,34,18.93,31.8,35.5,31.8Z"/><path class="cls-45" d="M35.5,31.77C52,31.77,62.81,34,62.81,36.71c0,1.2-.84,2.38-3.76,3.27-3.68,1.13-10.68,1.81-23.55,1.81-12.32,0-19.39-.66-23.2-1.72C9.08,39.16,8.22,38,8.22,36.71,8.22,34,19,31.77,35.5,31.77Z"/><path class="cls-46" d="M35.5,31.74C52,31.74,62.73,34,62.73,36.68c0,1.2-.84,2.39-3.74,3.28-3.66,1.13-10.64,1.8-23.49,1.8-12.28,0-19.35-.65-23.15-1.71-3.21-.9-4-2.12-4-3.37C8.3,34,19,31.74,35.5,31.74Z"/><path class="cls-47" d="M35.5,31.71c16.42,0,27.15,2.21,27.15,4.94,0,1.2-.84,2.4-3.72,3.29-3.65,1.13-10.6,1.79-23.43,1.79-12.23,0-19.3-.63-23.09-1.7-3.21-.9-4-2.13-4-3.38C8.38,33.92,19.08,31.71,35.5,31.71Z"/><path class="cls-48" d="M35.5,31.68c16.38,0,27.06,2.21,27.06,4.94,0,1.2-.83,2.41-3.69,3.3C55.23,41.05,48.3,41.7,35.5,41.7c-12.19,0-19.26-.62-23-1.69-3.21-.9-4-2.14-4-3.39C8.46,33.89,19.13,31.68,35.5,31.68Z"/><path class="cls-49" d="M35.5,31.65c16.33,0,27,2.21,27,4.94,0,1.2-.83,2.42-3.67,3.31C55.19,41,48.28,41.67,35.5,41.67c-12.14,0-19.21-.61-23-1.67-3.21-.91-4-2.16-4-3.41C8.54,33.86,19.18,31.65,35.5,31.65Z"/><path class="cls-50" d="M35.5,31.62c16.28,0,26.9,2.21,26.9,4.94,0,1.2-.83,2.44-3.65,3.32C55.14,41,48.25,41.64,35.5,41.64c-12.1,0-19.16-.6-22.92-1.66-3.21-.91-4-2.16-4-3.42C8.62,33.83,19.23,31.62,35.5,31.62Z"/><path class="cls-51" d="M35.5,31.6c16.23,0,26.82,2.21,26.82,4.93,0,1.2-.83,2.45-3.63,3.33C55.09,41,48.23,41.61,35.5,41.61c-12,0-19.12-.59-22.87-1.65-3.2-.9-3.92-2.17-3.92-3.43C8.71,33.81,19.28,31.6,35.5,31.6Z"/><path class="cls-52" d="M35.5,31.57c16.18,0,26.74,2.21,26.74,4.93,0,1.2-.83,2.46-3.61,3.34C55.05,41,48.2,41.58,35.5,41.58c-12,0-19.07-.58-22.81-1.64-3.2-.9-3.9-2.18-3.9-3.44C8.79,33.78,19.33,31.57,35.5,31.57Z"/><path class="cls-53" d="M35.5,31.54c16.13,0,26.65,2.21,26.65,4.93,0,1.2-.82,2.47-3.58,3.35C55,41,48.18,41.56,35.5,41.56c-12,0-19-.58-22.76-1.64-3.19-.9-3.87-2.19-3.87-3.45C8.87,33.75,19.38,31.54,35.5,31.54Z"/><path class="cls-54" d="M35.5,31.51c16.08,0,26.57,2.21,26.57,4.94,0,1.18-.82,2.47-3.56,3.35-3.56,1.14-10.35,1.73-23,1.73-11.91,0-19-.57-22.7-1.62C9.61,39,9,37.7,9,36.45,9,33.72,19.43,31.51,35.5,31.51Z"/><path class="cls-55" d="M35.5,31.48c16,0,26.49,2.21,26.49,4.94,0,1.18-.82,2.48-3.54,3.36-3.54,1.14-10.32,1.72-23,1.72-11.87,0-18.94-.56-22.65-1.61C9.67,39,9,37.68,9,36.42,9,33.69,19.48,31.48,35.5,31.48Z"/><path class="cls-56" d="M35.5,31.45c16,0,26.41,2.21,26.41,4.94,0,1.18-.82,2.49-3.53,3.37-3.52,1.14-10.27,1.71-22.88,1.71-11.82,0-18.89-.55-22.59-1.6-3.18-.9-3.79-2.22-3.79-3.48C9.12,33.66,19.53,31.45,35.5,31.45Z"/><path class="cls-57" d="M61.83,36.36c0,1.18-.82,2.5-3.51,3.38-3.51,1.15-10.24,1.7-22.82,1.7-11.78,0-18.84-.54-22.54-1.59C9.78,39,9.2,37.62,9.2,36.36c0-2.73,10.38-4.94,26.3-4.94S61.83,33.63,61.83,36.36Z"/></g><ellipse class="cls-58" cx="35.5" cy="38.75" rx="24.95" ry="2.78"/><path class="cls-59" d="M13.73,41.23c1.1.2,2.54.4,4.42.59a153.85,153.85,0,0,0,17.29.84,131.86,131.86,0,0,0,17.43-.78,42.22,42.22,0,0,0,6.19-1,4.41,4.41,0,0,0,1.39-.59v-1s-.2.51-1.7.92a43.17,43.17,0,0,1-6.11,1,130.09,130.09,0,0,1-17.2.77,151.83,151.83,0,0,1-17.06-.83c-1.86-.19-3.28-.39-4.36-.59-3.13-.56-3.46-1.28-3.46-1.28v1A9.11,9.11,0,0,0,13.73,41.23Z"/><path class="cls-60" d="M58.08,48.54c-2,.77-8.15,2.43-22.58,2.48S15.05,49.26,13,48.66a5,5,0,0,1-2.43-1.48v.53a4.59,4.59,0,0,0,2.59,1.71c2,.61,8.06,2.43,22.35,2.37s20.42-1.71,22.42-2.49a6.23,6.23,0,0,0,2.53-1.59v-.58A7.09,7.09,0,0,1,58.08,48.54Z"/><path class="cls-1" d="M19.8,44.68l-.17,1.16h.57l.16-1.16h.57l-.16,1.16h.44v.53H20.7l-.1.72H21v.53h-.51l-.16,1.16h-.57L20,47.62h-.56l-.16,1.14v0h-.57l.17-1.16h-.49v-.53h.56l.11-.72h-.49v-.53h.56l.16-1.16Zm-.24,1.69-.1.72H20l.1-.72Z"/><path class="cls-61" d="M22.61,44.6l1.74,2.8h0V44.6h.86v4.18h-.92L22.56,46h0v2.8h-.86V44.6Z"/><path class="cls-61" d="M26.89,44.85v.9h.61v.56h-.61v1.5a.39.39,0,0,0,.07.28.45.45,0,0,0,.28.07,1,1,0,0,0,.26,0v.65a3.1,3.1,0,0,1-.49,0,1.28,1.28,0,0,1-.72-.16.64.64,0,0,1-.23-.57V46.31h-.51v-.56h.51v-.9Z"/><path class="cls-61" d="M29.18,45.67c.88,0,1.33.29,1.33.86v1.6a1.49,1.49,0,0,0,.1.65h-.84a1,1,0,0,1-.06-.29,1.42,1.42,0,0,1-1,.37,1.14,1.14,0,0,1-.76-.24.85.85,0,0,1-.28-.67.8.8,0,0,1,.27-.64,1.71,1.71,0,0,1,1-.3,1.89,1.89,0,0,0,.64-.14.25.25,0,0,0,.13-.24.36.36,0,0,0-.12-.3.63.63,0,0,0-.41-.1.58.58,0,0,0-.4.11.48.48,0,0,0-.16.34h-.83a.9.9,0,0,1,.41-.75A1.79,1.79,0,0,1,29.18,45.67Zm-.69,2.25c0,.26.17.38.51.38a.6.6,0,0,0,.67-.68V47.3a1,1,0,0,1-.5.14,1.29,1.29,0,0,0-.52.15A.36.36,0,0,0,28.49,47.92Z"/><path class="cls-1" d="M32,44.6V48h2.05v.77h-3V44.6Z"/><path class="cls-1" d="M35.79,45.67c.89,0,1.33.29,1.33.86v1.6a1.46,1.46,0,0,0,.11.65h-.85a1.5,1.5,0,0,1-.06-.29,1.38,1.38,0,0,1-1,.37,1.09,1.09,0,0,1-.75-.24.93.93,0,0,1,0-1.31,1.74,1.74,0,0,1,1-.3,1.83,1.83,0,0,0,.64-.14.26.26,0,0,0,.14-.24.34.34,0,0,0-.13-.3.62.62,0,0,0-.41-.1.6.6,0,0,0-.4.11.44.44,0,0,0-.15.34h-.84a.93.93,0,0,1,.41-.75A1.84,1.84,0,0,1,35.79,45.67Zm-.69,2.25c0,.26.17.38.51.38a.61.61,0,0,0,.68-.68V47.3a1.08,1.08,0,0,1-.51.14,1.29,1.29,0,0,0-.51.15A.37.37,0,0,0,35.1,47.92Z"/><path class="cls-1" d="M38.25,45.75l.56,2.06h0l.5-2.06h.81l.52,2h0l.56-2h.86l-1,3h-.86l-.54-2h0l-.52,2h-.86l-1-3Z"/><path class="cls-1" d="M43.71,45.67c.88,0,1.32.29,1.32.86v1.6a1.46,1.46,0,0,0,.11.65h-.85a1,1,0,0,1,0-.29,1.42,1.42,0,0,1-1,.37,1.13,1.13,0,0,1-.75-.24.82.82,0,0,1-.28-.67.8.8,0,0,1,.27-.64,1.71,1.71,0,0,1,1-.3,1.89,1.89,0,0,0,.64-.14.25.25,0,0,0,.13-.24.36.36,0,0,0-.12-.3.65.65,0,0,0-.41-.1.58.58,0,0,0-.4.11.44.44,0,0,0-.16.34h-.83a.88.88,0,0,1,.41-.75A1.79,1.79,0,0,1,43.71,45.67ZM43,47.92c0,.26.17.38.52.38a.6.6,0,0,0,.67-.68V47.3a1,1,0,0,1-.5.14,1.29,1.29,0,0,0-.52.15A.37.37,0,0,0,43,47.92Z"/><path class="cls-1" d="M46.42,44.6v4.18h-.83V44.6Z"/><path id="map" class="cls-62" d="M50.45,44.32l.16-.16h0l.09-.08h0a1.67,1.67,0,0,1,1.09-.4,1.84,1.84,0,0,1,.33,0h0a1.64,1.64,0,0,1,.85.45l.08.09h0a1.68,1.68,0,0,1,.41,1.09,1.66,1.66,0,0,1,0,.32h0a1.69,1.69,0,0,1-.46.85l-.17.17h0l-.16.17h0l-2,2a.23.23,0,0,1-.34,0l-2-2h0l-.33-.34h0a.3.3,0,0,1-.08-.08h0a1.62,1.62,0,0,1-.41-1.09,1.84,1.84,0,0,1,0-.33h0a1.59,1.59,0,0,1,.46-.85l.08-.08h0a1.69,1.69,0,0,1,1.1-.4,1.84,1.84,0,0,1,.33,0h0a1.71,1.71,0,0,1,.85.45Zm-.25-.07a1.53,1.53,0,0,0-.78-.42h0a1.63,1.63,0,0,0-.31,0,1.56,1.56,0,0,0-1,.37h0l-.08.08a1.57,1.57,0,0,0-.42.78h0a1.63,1.63,0,0,0,0,.31,1.51,1.51,0,0,0,.38,1l.07.08,2.35,2.34a.13.13,0,0,0,.18,0l2-2,.33-.33a1.54,1.54,0,0,0,.43-.79h0a1.53,1.53,0,0,0,0-.3,1.56,1.56,0,0,0-.38-1l-.08-.08a1.5,1.5,0,0,0-.78-.42h0a1.63,1.63,0,0,0-.31,0,1.55,1.55,0,0,0-1,.37.6.6,0,0,0-.08.08h0l-.17.17h0l-.08.08Z"/><g class="cls-63"><g id="flag"><rect class="cls-64" x="47.68" y="43.54" width="5.53" height="5.51"/><polygon class="cls-65" points="50.38 46.63 49.43 45.95 49.88 45.95 49.95 45.73 48.74 45.74 50.17 46.78 50.38 46.63"/><polygon class="cls-65" points="49.88 46.17 50.09 46.33 50.45 45.21 50.59 45.65 50.83 45.65 50.44 44.49 49.88 46.17 49.88 46.17"/><polygon class="cls-65" points="50.98 46.06 50.72 46.05 51.07 47.16 50.73 46.9 50.54 47.04 51.48 47.74 50.98 46.06 50.98 46.06"/><polygon class="cls-65" points="50.83 46.72 50.76 46.46 49.82 47.14 49.95 46.73 49.76 46.59 49.39 47.72 50.83 46.72 50.83 46.72"/><polygon class="cls-65" points="50.38 45.73 50.38 45.73 50.38 45.73 50.38 45.73"/><polygon class="cls-65" points="50.3 45.97 51.47 45.96 51.11 46.2 51.19 46.42 52.15 45.73 50.38 45.73 50.3 45.97"/></g></g><rect class="cls-1" x="19.64" y="17.64" width="32.78" height="20.84" rx="3.39"/><path class="cls-66" d="M38.9,14.55l-1.45,1.37,0,0a2.13,2.13,0,0,0-3-.08l-1.35-1.44a4.11,4.11,0,0,1,5.8.16Z"/><path class="cls-66" d="M41.58,12l-1.44,1.37,0,0a5.8,5.8,0,0,0-8.2-.22l-1.36-1.44a7.78,7.78,0,0,1,11,.3Z"/><path class="cls-66" d="M44.27,9.49l-1.44,1.37,0,0a9.33,9.33,0,0,0-6.6-2.95,9.52,9.52,0,0,0-6.8,2.59L28,9a11.46,11.46,0,0,1,16.2.44l0,0Z"/><rect class="cls-61" x="34.28" y="33.51" width="3.51" height="3.51"/><path class="cls-1" d="M35.65,36.67a.22.22,0,0,1-.16,0,.13.13,0,0,1-.14-.14c0-.11.1-.17.31-.19v0s0,0-.08,0a.17.17,0,0,0-.12,0l-.09,0a.26.26,0,0,1,.21-.09c.13,0,.2.05.2.14v.36h-.11Zm-.18-.1a.07.07,0,0,0,.06.07.17.17,0,0,0,.12-.06v-.11c-.12,0-.18,0-.18.1Z"/><path class="cls-1" d="M35.88,36.24H36v.06a.25.25,0,0,1,.17-.07c.1,0,.15.05.15.16v.34h-.13V36.4q0-.09-.06-.09a.17.17,0,0,0-.12.06v.35h-.13Z"/><path class="cls-1" d="M37.17,36.73a.23.23,0,0,1-.23-.26.22.22,0,0,1,.23-.25c.14,0,.22.09.22.25v0h-.32c0,.09,0,.14.11.14a.13.13,0,0,0,.11-.06l.1,0A.25.25,0,0,1,37.17,36.73Zm.1-.32a.1.1,0,0,0-.2,0Z"/><path class="cls-1" d="M34.71,36.73a.23.23,0,0,1-.24-.26.24.24,0,1,1,.48,0A.23.23,0,0,1,34.71,36.73Zm0-.4c-.1,0-.11.08-.11.14s0,.15.11.15.11-.08.11-.15,0-.14-.11-.14Z"/><path class="cls-1" d="M35,36.23h.12v.06a.19.19,0,0,1,.14-.07h0v.12h0c-.06,0-.12,0-.14,0v.33H35Z"/><path class="cls-1" d="M36.63,36.61c.1,0,.11-.1.11-.16s0-.14-.11-.14-.1,0-.1.14S36.54,36.61,36.63,36.61Zm.23-.38v.46c0,.08,0,.22-.24.22a.19.19,0,0,1-.2-.12l.13,0s0,0,.09,0,.1,0,.1-.1v-.06h0a.15.15,0,0,1-.13.07c-.11,0-.2-.08-.2-.25s.09-.25.19-.25.14,0,.14.07h0v-.06Z"/><path class="cls-1" d="M37.44,36.07h0v.14h0v-.14h0v0h.13Zm.21.14h0v-.14h0l0,.14h0l0-.14h0v.14h0v-.16h.05l0,.12,0-.12h0Z"/><circle class="cls-67" cx="32.01" cy="23.14" r="0.62"/><circle class="cls-68" cx="34.74" cy="23.14" r="0.62"/><circle class="cls-69" cx="37.46" cy="23.14" r="0.62"/><circle class="cls-61" cx="40.19" cy="23.14" r="0.62"/></g></g></g></svg>