<svg xmlns="http://www.w3.org/2000/svg" viewBox="0 0 65.41 49.19"><defs><style>.cls-1{fill:#ffd200;}.cls-2{fill:#4a484c;}.cls-3{stroke:#fff;}.cls-3,.cls-7,.cls-9{stroke-miterlimit:10;}.cls-3,.cls-9{stroke-width:0.42px;}.cls-4,.cls-6{fill:#fff;}.cls-5,.cls-8{fill:#ff7900;}.cls-6{fill-rule:evenodd;}.cls-7{stroke:#d6d6d6;stroke-width:0.4px;}.cls-8{font-size:18.69px;font-family:HelveticaNeue-Bold, Helvetica Neue;font-weight:700;}.cls-9{stroke:#8f8f8f;}</style></defs><g id="Layer_2" data-name="Layer 2"><g id="Layer_1-2" data-name="Layer 1"><circle class="cls-1" cx="25.9" cy="25.72" r="23.4"/><rect class="cls-2" x="12.22" y="12.89" width="43.73" height="26.41" rx="1.15" transform="matrix(0.82, -0.57, 0.57, 0.82, -8.8, 24.19)"/><rect class="cls-3" x="12.22" y="12.89" width="43.73" height="26.41" rx="1.15" transform="matrix(0.82, -0.57, 0.57, 0.82, -8.8, 24.19)"/><path class="cls-4" d="M14.35,27.12a1.49,1.49,0,0,1,1.1-.31,1.46,1.46,0,0,1,1.14,1.63,1.5,1.5,0,0,1-.67.91l-.82.57L16,31.18l-.77.53-2.44-3.49Zm1,1.78a1,1,0,0,0,.41-.47.56.56,0,0,0-.12-.51.58.58,0,0,0-.43-.29,1,1,0,0,0-.59.22l-.61.43.73,1Z"/><path class="cls-4" d="M17.63,26.16c.74-.51,1.28-.53,1.61-.05l.94,1.34a1.41,1.41,0,0,0,.46.48l-.7.49a1.1,1.1,0,0,1-.22-.21,1.36,1.36,0,0,1-.64.9,1.08,1.08,0,0,1-.77.24.88.88,0,0,1-.62-.4.81.81,0,0,1-.15-.69,1.71,1.71,0,0,1,.64-.82,2.06,2.06,0,0,0,.45-.48.26.26,0,0,0,0-.28.39.39,0,0,0-.28-.19.69.69,0,0,0-.41.16.63.63,0,0,0-.26.32.46.46,0,0,0,.07.38l-.7.49a.94.94,0,0,1-.1-.87A1.93,1.93,0,0,1,17.63,26.16Zm.74,2.28c.15.22.36.23.65,0a.62.62,0,0,0,.16-1L19,27.23q0,.15-.33.42a1.32,1.32,0,0,0-.35.42A.37.37,0,0,0,18.37,28.44Z"/><path class="cls-4" d="M20.32,24.29a1.64,1.64,0,0,1,.93-.35,1,1,0,0,1,.75.38l-.67.46a.4.4,0,0,0-.31-.17.69.69,0,0,0-.4.16.74.74,0,0,0-.25.26.21.21,0,0,0,0,.24.19.19,0,0,0,.16.1.69.69,0,0,0,.27,0l.34-.12a3.67,3.67,0,0,1,.8-.28.81.81,0,0,1,.45,0,.75.75,0,0,1,.33.27,1,1,0,0,1,.14.87,1.72,1.72,0,0,1-.68.82,1.68,1.68,0,0,1-1,.36,1,1,0,0,1-.77-.43l.66-.46a.46.46,0,0,0,.36.21.79.79,0,0,0,.47-.15.68.68,0,0,0,.26-.31.32.32,0,0,0,0-.33.26.26,0,0,0-.2-.11.93.93,0,0,0-.3.05,4.47,4.47,0,0,0-.54.2,2.42,2.42,0,0,1-.52.17.85.85,0,0,1-.45,0,.63.63,0,0,1-.33-.26,1,1,0,0,1-.18-.52.88.88,0,0,1,.17-.54A2,2,0,0,1,20.32,24.29Z"/><path class="cls-4" d="M22.94,22.46a1.59,1.59,0,0,1,.94-.35.92.92,0,0,1,.74.38L24,23a.38.38,0,0,0-.31-.17.69.69,0,0,0-.4.16.6.6,0,0,0-.25.26.25.25,0,0,0,.19.34.69.69,0,0,0,.27,0,1.73,1.73,0,0,0,.33-.13,3.55,3.55,0,0,1,.81-.27.83.83,0,0,1,.45,0,.7.7,0,0,1,.32.28.92.92,0,0,1,.15.87,1.67,1.67,0,0,1-.69.81,1.65,1.65,0,0,1-1,.37A1,1,0,0,1,23,25l.66-.46a.48.48,0,0,0,.37.21.81.81,0,0,0,.46-.15.8.8,0,0,0,.27-.32.31.31,0,0,0,0-.32.21.21,0,0,0-.19-.11.79.79,0,0,0-.31.05,4.48,4.48,0,0,0-.53.2,2.32,2.32,0,0,1-.53.17.81.81,0,0,1-.44,0,.69.69,0,0,1-.33-.26.89.89,0,0,1,0-1.06A2.08,2.08,0,0,1,22.94,22.46Z"/><path class="cls-4" d="M16.74,33.09c.37-.25.64-.26.81,0l.47.67a.66.66,0,0,0,.23.24l-.35.25a.38.38,0,0,1-.11-.11.72.72,0,0,1-.32.46.6.6,0,0,1-.39.12.42.42,0,0,1-.31-.2.41.41,0,0,1-.08-.35,1,1,0,0,1,.32-.41,1.1,1.1,0,0,0,.23-.24.14.14,0,0,0,0-.15.24.24,0,0,0-.14-.09.32.32,0,0,0-.2.08.34.34,0,0,0-.14.16.26.26,0,0,0,0,.2l-.35.24a.47.47,0,0,1-.05-.44A.93.93,0,0,1,16.74,33.09Zm.37,1.15c.07.11.18.12.33,0a.32.32,0,0,0,.08-.49l-.1-.13s-.06.11-.16.2a.64.64,0,0,0-.18.22A.16.16,0,0,0,17.11,34.24Z"/><path class="cls-4" d="M18.28,32a.65.65,0,0,1,.55-.11.9.9,0,0,1,.51.39.92.92,0,0,1,.18.58.64.64,0,0,1-.28.47.54.54,0,0,1-.52.07h0l.42.61-.35.24-1.2-1.72.33-.23.12.16h0A.52.52,0,0,1,18.28,32Zm.1.94a.63.63,0,0,0,.28.24.37.37,0,0,0,.46-.32.71.71,0,0,0-.14-.35.54.54,0,0,0-.29-.24.3.3,0,0,0-.3.05.29.29,0,0,0-.15.26A.66.66,0,0,0,18.38,33Z"/><path class="cls-4" d="M19.79,31a.65.65,0,0,1,.55-.11.93.93,0,0,1,.51.39.86.86,0,0,1,.17.58.6.6,0,0,1-.27.47.54.54,0,0,1-.52.07h0l.43.61-.35.24L19.1,31.5l.33-.23.11.16h0A.5.5,0,0,1,19.79,31Zm.09.94a.65.65,0,0,0,.29.24.33.33,0,0,0,.3,0,.32.32,0,0,0,.15-.27.61.61,0,0,0-.13-.35.63.63,0,0,0-.29-.24.32.32,0,0,0-.31.05.3.3,0,0,0-.14.26A.64.64,0,0,0,19.88,31.91Z"/><path class="cls-4" d="M21.17,30a.68.68,0,0,1,.38-.14.7.7,0,0,1,.39.09,1.06,1.06,0,0,1,.33.31l0,.06-.92.64a.54.54,0,0,0,.25.19.37.37,0,0,0,.29-.08.39.39,0,0,0,.14-.17.26.26,0,0,0,0-.19l.31-.21a.69.69,0,0,1-.3.84.85.85,0,0,1-.37.15.69.69,0,0,1-.4-.06.91.91,0,0,1-.34-.31.73.73,0,0,1-.16-.41.7.7,0,0,1,.07-.41A.77.77,0,0,1,21.17,30Zm.64.35a.4.4,0,0,0-.24-.15.31.31,0,0,0-.23.07.3.3,0,0,0-.15.21.35.35,0,0,0,0,.26Z"/><path class="cls-4" d="M22,28.73l1.22,1.76-.35.24L21.69,29Z"/><path class="cls-4" d="M23.15,28.63a.84.84,0,0,1,.47-.18.5.5,0,0,1,.38.19l-.34.23a.18.18,0,0,0-.16-.08.35.35,0,0,0-.2.08.36.36,0,0,0-.12.13.11.11,0,0,0,0,.12.1.1,0,0,0,.08.05.35.35,0,0,0,.14,0l.17-.07A2.15,2.15,0,0,1,24,29a.55.55,0,0,1,.23,0,.36.36,0,0,1,.16.14.47.47,0,0,1,.08.44.88.88,0,0,1-.35.41.84.84,0,0,1-.52.18.51.51,0,0,1-.39-.21l.33-.24a.25.25,0,0,0,.19.11.36.36,0,0,0,.23-.08.28.28,0,0,0,.13-.16.15.15,0,0,0,0-.16.14.14,0,0,0-.1,0,.33.33,0,0,0-.16,0l-.26.1-.27.09a.4.4,0,0,1-.22,0,.3.3,0,0,1-.17-.13.43.43,0,0,1-.09-.26.47.47,0,0,1,.08-.27A1,1,0,0,1,23.15,28.63Z"/><rect class="cls-5" x="22.51" y="39.1" width="5.06" height="5.06" transform="translate(-19.31 21.8) rotate(-34.89)"/><path class="cls-4" d="M25.76,43.61a.36.36,0,0,1-.15.19.19.19,0,0,1-.29,0c-.09-.12,0-.28.21-.47l0,0s-.08,0-.14,0a.23.23,0,0,0-.1.17h-.14a.36.36,0,0,1,.17-.29c.15-.1.28-.09.35,0l.3.42-.14.09Zm-.3,0a.09.09,0,0,0,.12,0,.29.29,0,0,0,.1-.16l-.09-.14C25.46,43.49,25.42,43.57,25.46,43.64Z"/><path class="cls-4" d="M25.67,42.91l.12-.1.06.06a.38.38,0,0,1,.14-.22.2.2,0,0,1,.31.06l.28.4-.15.11-.26-.38c-.05-.07-.09-.09-.15-.05a.3.3,0,0,0-.09.17l.29.41-.16.11Z"/><path class="cls-4" d="M27.6,42.42a.37.37,0,1,1,0-.49l0,0-.39.27c.08.11.16.13.25.07a.17.17,0,0,0,.08-.16l.16,0A.34.34,0,0,1,27.6,42.42ZM27.45,42a.13.13,0,0,0-.2,0,.13.13,0,0,0,0,.2Z"/><path class="cls-4" d="M24.69,44.46a.34.34,0,0,1-.5-.11.34.34,0,0,1,.08-.5.33.33,0,0,1,.49.1A.34.34,0,0,1,24.69,44.46ZM24.36,44c-.12.08-.07.19,0,.27s.15.16.26.08.06-.2,0-.27S24.47,43.9,24.36,44Z"/><path class="cls-4" d="M24.67,43.59l.14-.1.05.07a.26.26,0,0,1,.1-.19h0l.1.14h0c-.06,0-.13.11-.11.18l.26.38-.15.11Z"/><path class="cls-4" d="M26.87,42.73c.11-.08,0-.2,0-.28s-.16-.13-.24-.08-.09.12,0,.25S26.76,42.81,26.87,42.73Zm-.05-.64.38.54c.07.1.17.26-.1.46a.26.26,0,0,1-.34,0l.13-.13S27,43,27,43s.09-.12,0-.21L27,42.69h0a.18.18,0,0,1-.09.18.29.29,0,0,1-.44-.12.31.31,0,0,1,0-.46c.11-.08.19-.06.22,0h0l0-.07Z"/><path class="cls-4" d="M27.38,41.42l-.06,0,.11.16,0,0-.12-.17-.06,0v0l.15-.11Zm.36,0,0,0-.11-.16h0l0,.2,0,0-.17-.12h0l.11.16,0,0-.13-.19,0,0,.16.1,0-.18.05,0Z"/><path class="cls-6" d="M51,22.64c1.6.68,1.54,1.57,1.15,2.41l-4-2.18c.46-.66,1.08-1,2.81-.23Zm.86,3-.3.51c-.7,1.24-4.53,1.34-9.08-1.21S36,19,36.66,17.81c.08-.13.15-.28.23-.43l4,2.2-.11.2c-.43.76,1.25,1.93,2.93,2.87s3.57,1.77,4,1c.05-.08.1-.16.14-.24ZM37.2,16.83c.52-.81,1.25-1.42,2.73-.37s1.59,1.81,1.25,2.56Z"/><rect class="cls-2" x="-0.76" y="11.51" width="41.85" height="25.28" rx="1.1" transform="translate(-10.26 32.16) rotate(-64.89)"/><rect class="cls-7" x="-0.76" y="11.51" width="41.85" height="25.28" rx="1.1" transform="translate(-10.26 32.16) rotate(-64.89)"/><path class="cls-4" d="M4.29,34.47a1.49,1.49,0,0,1,.76-.78,1.23,1.23,0,0,1,1,.06,1.24,1.24,0,0,1,.71.75,1.4,1.4,0,0,1-.12,1.08l-.4.86,1.32.62-.38.81L3.51,36.14Zm1.64,1a1,1,0,0,0,.12-.59.56.56,0,0,0-.34-.37.56.56,0,0,0-.5,0,1,1,0,0,0-.38.46l-.31.65,1.11.52Z"/><path class="cls-4" d="M6.56,32.11c.36-.78.8-1.05,1.3-.82L9.28,32a1.41,1.41,0,0,0,.61.17l-.35.75a1.43,1.43,0,0,1-.28-.07,1.31,1.31,0,0,1-.09,1,1.13,1.13,0,0,1-.52.57.88.88,0,0,1-.71,0,.83.83,0,0,1-.46-.5,1.74,1.74,0,0,1,.14-1,1.88,1.88,0,0,0,.15-.62.28.28,0,0,0-.16-.22.37.37,0,0,0-.32,0,.68.68,0,0,0-.26.32.62.62,0,0,0-.07.4.49.49,0,0,0,.24.28l-.34.74a.91.91,0,0,1-.5-.68A1.76,1.76,0,0,1,6.56,32.11Zm1.7,1.54c.22.1.41,0,.55-.29a.59.59,0,0,0-.33-.88l-.28-.13a1,1,0,0,1-.08.5,1.25,1.25,0,0,0-.09.52A.37.37,0,0,0,8.26,33.65Z"/><path class="cls-4" d="M7.88,29.27a1.63,1.63,0,0,1,.61-.73.89.89,0,0,1,.8,0L9,29.19a.4.4,0,0,0-.34,0,.7.7,0,0,0-.25.32.64.64,0,0,0-.09.34.23.23,0,0,0,.14.19.21.21,0,0,0,.19,0,.5.5,0,0,0,.2-.15A1.88,1.88,0,0,0,9,29.64,3.08,3.08,0,0,1,9.57,29a.76.76,0,0,1,.39-.18.66.66,0,0,1,.4.07.85.85,0,0,1,.53.65,1.93,1.93,0,0,1-.86,1.8.92.92,0,0,1-.84,0l.32-.7a.43.43,0,0,0,.41,0,.69.69,0,0,0,.31-.34.71.71,0,0,0,.07-.39.31.31,0,0,0-.19-.25.22.22,0,0,0-.21,0,.92.92,0,0,0-.23.19,4.19,4.19,0,0,0-.34.42,2.88,2.88,0,0,1-.36.4,1,1,0,0,1-.37.2.7.7,0,0,1-.4-.06A.84.84,0,0,1,7.68,30,2.15,2.15,0,0,1,7.88,29.27Z"/><path class="cls-4" d="M9.19,26.5a1.5,1.5,0,0,1,.61-.74.91.91,0,0,1,.79,0l-.33.7a.37.37,0,0,0-.34,0,.66.66,0,0,0-.25.32.64.64,0,0,0-.09.34.23.23,0,0,0,.14.18.25.25,0,0,0,.19,0,.8.8,0,0,0,.2-.15,2,2,0,0,0,.22-.27,3.28,3.28,0,0,1,.54-.61.79.79,0,0,1,.39-.19.74.74,0,0,1,.4.07.87.87,0,0,1,.53.65,1.67,1.67,0,0,1-.17,1,1.64,1.64,0,0,1-.69.8.92.92,0,0,1-.84,0l.32-.7a.43.43,0,0,0,.41,0,.77.77,0,0,0,.31-.35.67.67,0,0,0,.07-.38.32.32,0,0,0-.19-.26.22.22,0,0,0-.21,0,.69.69,0,0,0-.23.18,4.6,4.6,0,0,0-.34.43,3.46,3.46,0,0,1-.36.39.85.85,0,0,1-.37.2.58.58,0,0,1-.4-.06.84.84,0,0,1-.4-.34A.89.89,0,0,1,9,27.19,2,2,0,0,1,9.19,26.5Z"/><path class="cls-4" d="M8.54,38.3l.31.14-.17.37-.31-.14Zm.52.24,1.34.63-.17.37-1.35-.63Z"/><path class="cls-4" d="M9.52,37.46a.51.51,0,0,1,.3-.31.7.7,0,0,1,.47.07l.84.4L11,38l-.76-.36a.56.56,0,0,0-.28-.06.22.22,0,0,0-.16.14.3.3,0,0,0,0,.26.51.51,0,0,0,.27.21l.7.33-.17.37-1.35-.63.17-.35.19.09h0A.49.49,0,0,1,9.52,37.46Z"/><path class="cls-4" d="M9.73,36.05l.41.19.12-.27.25.11-.13.27.67.31a.21.21,0,0,0,.14,0s.06,0,.09-.11a.56.56,0,0,0,0-.12l.29.14a.84.84,0,0,1-.09.22.58.58,0,0,1-.22.29.32.32,0,0,1-.3,0l-.79-.37-.1.23-.25-.12.1-.22-.4-.19Z"/><path class="cls-4" d="M10.6,35.16a.76.76,0,0,1,.24-.29.68.68,0,0,1,.37-.12.92.92,0,0,1,.42.1l.07,0-.45,1a.44.44,0,0,0,.29,0,.35.35,0,0,0,.2-.2.52.52,0,0,0,0-.21.23.23,0,0,0-.08-.17l.16-.32a.65.65,0,0,1,.15.84.89.89,0,0,1-.24.3.64.64,0,0,1-.36.14.91.91,0,0,1-.76-.36.72.72,0,0,1-.05-.75Zm.69,0a.38.38,0,0,0-.26,0,.27.27,0,0,0-.16.17.37.37,0,0,0,0,.25.44.44,0,0,0,.17.19Z"/><path class="cls-4" d="M11.37,33.51a.28.28,0,0,1,.05-.08l.35.16a.57.57,0,0,0-.08.13c-.11.24,0,.43.26.57l.61.28-.17.37L11,34.31l.17-.35.25.11h0a.57.57,0,0,1-.13-.27A.56.56,0,0,1,11.37,33.51Z"/><path class="cls-4" d="M11.84,32.51a.52.52,0,0,1,.31-.32.68.68,0,0,1,.46.08l.84.39-.17.37-.76-.35a.48.48,0,0,0-.28-.07c-.07,0-.12.06-.16.15a.27.27,0,0,0,0,.26.59.59,0,0,0,.26.21l.7.33-.17.37-1.34-.63.16-.36.19.09h0A.47.47,0,0,1,11.84,32.51Z"/><path class="cls-4" d="M12.49,31.11a.79.79,0,0,1,.25-.29.77.77,0,0,1,.37-.12,1,1,0,0,1,.42.1l.07,0-.46,1a.51.51,0,0,0,.29,0,.34.34,0,0,0,.21-.2.52.52,0,0,0,0-.21.3.3,0,0,0-.08-.17l.15-.32a.66.66,0,0,1,.16.84.89.89,0,0,1-.24.3.64.64,0,0,1-.36.14.91.91,0,0,1-.76-.36.64.64,0,0,1-.13-.37A.83.83,0,0,1,12.49,31.11Zm.7,0a.38.38,0,0,0-.26,0,.27.27,0,0,0-.16.17.32.32,0,0,0,0,.25.44.44,0,0,0,.17.19Z"/><path class="cls-4" d="M12.75,29.6l.41.19.13-.27.24.12-.12.27.66.31a.21.21,0,0,0,.14,0,.26.26,0,0,0,.09-.11.41.41,0,0,0,0-.12l.29.13a.88.88,0,0,1-.09.23.6.6,0,0,1-.22.28.32.32,0,0,1-.3,0l-.79-.37-.1.22-.25-.12.11-.22L12.58,30Z"/><rect class="cls-5" x="17.58" y="38.89" width="4.84" height="4.84" transform="translate(-25.89 41.88) rotate(-64.89)"/><path class="cls-4" d="M21.54,42.61a.36.36,0,0,1,0,.23.19.19,0,0,1-.26.1c-.14-.07-.15-.23-.06-.5h0c-.05,0-.09,0-.12.06a.19.19,0,0,0,0,.18l-.11.08a.36.36,0,0,1,0-.32c.08-.16.19-.21.3-.16l.44.21-.07.14Zm-.23.16a.08.08,0,0,0,.11,0,.22.22,0,0,0,0-.18l-.15-.07C21.23,42.65,21.24,42.74,21.31,42.77Z"/><path class="cls-4" d="M21.14,42.07l0-.14.08,0a.42.42,0,0,1,0-.25.2.2,0,0,1,.29-.1l.43.2-.08.16-.4-.18c-.07,0-.11,0-.14,0a.3.3,0,0,0,0,.19l.43.2-.07.16Z"/><path class="cls-4" d="M22.5,40.74a.35.35,0,0,1-.64-.29.3.3,0,0,1,.44-.14l0,0-.19.41c.12,0,.2,0,.24-.07a.15.15,0,0,0,0-.17l.12-.09A.32.32,0,0,1,22.5,40.74Zm-.34-.3c-.09,0-.16,0-.19.06s0,.14.07.19Z"/><path class="cls-4" d="M21.06,43.82a.35.35,0,0,1-.64-.3.32.32,0,0,1,.46-.15A.32.32,0,0,1,21.06,43.82Zm-.51-.24a.18.18,0,0,0,.12.23c.08,0,.2.07.26-.05s-.05-.19-.12-.23S20.61,43.46,20.55,43.58Z"/><path class="cls-4" d="M20.63,43.12,20.7,43l.07,0a.26.26,0,0,1,0-.21v0l.15.07h0c0,.07-.05.15,0,.2l.4.19-.07.16Z"/><path class="cls-4" d="M22,41.35c.06-.12-.06-.19-.14-.23a.17.17,0,0,0-.24.05c0,.06,0,.14.12.21S22,41.47,22,41.35Zm-.35-.51.58.27c.1,0,.27.13.13.42a.26.26,0,0,1-.27.19l.05-.18s.07,0,.11-.08,0-.14-.07-.19l-.07,0h0a.17.17,0,0,1,0,.2.29.29,0,0,1-.43.11c-.2-.1-.26-.26-.2-.39s.13-.15.17-.14h0L21.63,41Z"/><path class="cls-4" d="M21.83,40l0,.06.18.08,0,0-.17-.08,0,.07,0,0L21.8,40Zm.3-.18,0,0-.17-.08h0l.14.15v0l-.2,0h0L22,40l0,0-.2-.1,0-.05H22l-.13-.13,0,0Z"/><text class="cls-8" transform="matrix(0.42, -0.91, 0.91, 0.42, 30.54, 24.16)">@</text><rect class="cls-2" x="19.06" y="17.42" width="43.73" height="26.41" rx="1.15" transform="translate(-6.5 11.54) rotate(-14.89)"/><rect class="cls-9" x="19.06" y="17.42" width="43.73" height="26.41" rx="1.15" transform="translate(-6.5 11.54) rotate(-14.89)"/><path class="cls-4" d="M22,24.8a1.49,1.49,0,0,1,1.13.08,1.31,1.31,0,0,1,.64.86,1.34,1.34,0,0,1-.13,1.07,1.53,1.53,0,0,1-.94.63l-1,.25.39,1.48-.9.24-1.1-4.12Zm.28,2a1,1,0,0,0,.54-.3.54.54,0,0,0,.07-.52.57.57,0,0,0-.31-.42,1,1,0,0,0-.63,0l-.72.2L21.53,27Z"/><path class="cls-4" d="M25.39,25c.87-.23,1.38-.06,1.53.5l.42,1.58a1.34,1.34,0,0,0,.27.61l-.83.22a1.15,1.15,0,0,1-.14-.27,1.34,1.34,0,0,1-.9.63,1.08,1.08,0,0,1-.8,0,.82.82,0,0,1-.45-.58.77.77,0,0,1,.09-.7,1.75,1.75,0,0,1,.88-.56,1.76,1.76,0,0,0,.59-.3.24.24,0,0,0,.07-.27.34.34,0,0,0-.2-.27.7.7,0,0,0-.43,0,.69.69,0,0,0-.36.21.53.53,0,0,0-.07.39l-.81.21a1,1,0,0,1,.2-.85A1.89,1.89,0,0,1,25.39,25Zm-.09,2.4q.09.38.6.24a.61.61,0,0,0,.48-.85l-.08-.31a1,1,0,0,1-.46.27,1.31,1.31,0,0,0-.47.28A.36.36,0,0,0,25.3,27.42Z"/><path class="cls-4" d="M28.55,24.18a1.7,1.7,0,0,1,1,0,1,1,0,0,1,.56.61l-.77.21a.41.41,0,0,0-.24-.27.72.72,0,0,0-.43,0,.64.64,0,0,0-.32.16.2.2,0,0,0-.06.23.28.28,0,0,0,.12.16.77.77,0,0,0,.26.06H29a3.6,3.6,0,0,1,.85,0,.92.92,0,0,1,.41.19.67.67,0,0,1,.21.37.9.9,0,0,1-.16.86,1.73,1.73,0,0,1-.92.54,1.69,1.69,0,0,1-1.1,0,.94.94,0,0,1-.58-.66l.78-.21a.46.46,0,0,0,.27.32.81.81,0,0,0,.49,0,.65.65,0,0,0,.35-.21.32.32,0,0,0,.08-.32.25.25,0,0,0-.14-.16.68.68,0,0,0-.31-.06,3.8,3.8,0,0,0-.57,0,3.21,3.21,0,0,1-.55,0,.81.81,0,0,1-.41-.17.66.66,0,0,1-.23-.36.93.93,0,0,1,0-.55.84.84,0,0,1,.34-.44A2.17,2.17,0,0,1,28.55,24.18Z"/><path class="cls-4" d="M31.64,23.36a1.62,1.62,0,0,1,1,0,1,1,0,0,1,.57.61l-.78.21a.41.41,0,0,0-.24-.27.75.75,0,0,0-.42,0,.72.72,0,0,0-.33.16.26.26,0,0,0-.06.24.22.22,0,0,0,.13.15.44.44,0,0,0,.25.06,2.28,2.28,0,0,0,.37,0,3.6,3.6,0,0,1,.85,0,.82.82,0,0,1,.41.18.71.71,0,0,1,.21.37.94.94,0,0,1-.16.87,1.75,1.75,0,0,1-.93.53,1.64,1.64,0,0,1-1.1,0,1,1,0,0,1-.58-.66l.78-.21a.45.45,0,0,0,.28.32.71.71,0,0,0,.48,0,.7.7,0,0,0,.36-.2.34.34,0,0,0,.08-.32.25.25,0,0,0-.15-.17,1,1,0,0,0-.3-.06h-.57a2.06,2.06,0,0,1-.56,0,.88.88,0,0,1-.41-.16.73.73,0,0,1-.22-.36.93.93,0,0,1,0-.55.9.9,0,0,1,.34-.45A2.34,2.34,0,0,1,31.64,23.36Z"/><path class="cls-4" d="M21.77,30.77l.09.34-.42.11-.09-.34Zm.15.57.4,1.51-.41.1-.4-1.5Z"/><path class="cls-4" d="M23.09,31a.58.58,0,0,1,.46,0,.72.72,0,0,1,.25.43l.25.93-.41.11-.23-.85a.57.57,0,0,0-.13-.26.23.23,0,0,0-.23,0,.32.32,0,0,0-.22.16.65.65,0,0,0,0,.36l.2.78-.41.11-.4-1.5.4-.11.05.21h0A.52.52,0,0,1,23.09,31Z"/><path class="cls-4" d="M24.37,30.21l.12.45.3-.08.07.28-.3.08.2.74a.22.22,0,0,0,.07.13.19.19,0,0,0,.15,0l.12,0,.09.32a1,1,0,0,1-.24.08.63.63,0,0,1-.38,0,.36.36,0,0,1-.19-.25l-.23-.88-.25.06-.07-.27.25-.07L24,30.32Z"/><path class="cls-4" d="M25.65,30.31a.71.71,0,0,1,.41,0,.59.59,0,0,1,.33.21.94.94,0,0,1,.21.41s0,0,0,.08l-1.08.28a.41.41,0,0,0,.17.26.35.35,0,0,0,.29,0,.41.41,0,0,0,.2-.12.25.25,0,0,0,.08-.17l.36-.09a.69.69,0,0,1-.56.69,1,1,0,0,1-.41,0,.66.66,0,0,1-.35-.2.82.82,0,0,1-.22-.4.94.94,0,0,1,0-.44.72.72,0,0,1,.21-.36A.8.8,0,0,1,25.65,30.31Zm.49.54a.47.47,0,0,0-.17-.21.35.35,0,0,0-.25,0,.34.34,0,0,0-.21.15.33.33,0,0,0,0,.26Z"/><path class="cls-4" d="M27.5,29.82a.18.18,0,0,1,.1,0l.1.38a.4.4,0,0,0-.15,0c-.27.07-.37.26-.28.58l.18.68-.41.11-.4-1.5L27,30l.07.27h0a.52.52,0,0,1,.13-.28A.48.48,0,0,1,27.5,29.82Z"/><path class="cls-4" d="M28.62,29.52a.56.56,0,0,1,.45,0,.72.72,0,0,1,.26.43l.24.94-.41.11-.22-.85a.48.48,0,0,0-.14-.26.22.22,0,0,0-.23,0,.29.29,0,0,0-.21.17.53.53,0,0,0,0,.35l.21.78-.41.11-.4-1.5.39-.1.05.2h0A.52.52,0,0,1,28.62,29.52Z"/><path class="cls-4" d="M30.17,29.11a.68.68,0,0,1,.4,0,.65.65,0,0,1,.34.21.94.94,0,0,1,.21.41l0,.07-1.09.29a.51.51,0,0,0,.17.26.38.38,0,0,0,.3,0,.35.35,0,0,0,.19-.12.26.26,0,0,0,.09-.17l.36-.09a.7.7,0,0,1-.57.69.9.9,0,0,1-.4,0,.68.68,0,0,1-.36-.2.81.81,0,0,1-.21-.4.74.74,0,0,1,0-.44.72.72,0,0,1,.21-.36A.8.8,0,0,1,30.17,29.11Zm.49.54a.43.43,0,0,0-.18-.21.31.31,0,0,0-.24,0,.4.4,0,0,0-.22.15.44.44,0,0,0,0,.26Z"/><path class="cls-4" d="M31.56,28.3l.12.45.3-.08.07.28-.3.08.2.74a.22.22,0,0,0,.07.13.19.19,0,0,0,.15,0l.12,0,.09.32a1,1,0,0,1-.24.08.63.63,0,0,1-.38,0,.36.36,0,0,1-.19-.25l-.23-.88-.25.06L31,28.93l.24-.07-.11-.45Z"/><path class="cls-4" d="M22.69,34.26l.09.34-.41.11-.09-.34Zm.15.57.4,1.5-.41.11-.4-1.5Z"/><path class="cls-4" d="M24,34.47a.55.55,0,0,1,.46,0,.7.7,0,0,1,.25.42l.25.94-.42.11-.22-.85a.52.52,0,0,0-.13-.26.26.26,0,0,0-.23,0,.29.29,0,0,0-.22.17.6.6,0,0,0,0,.35l.21.78-.41.11-.4-1.5.39-.1.06.21h0A.52.52,0,0,1,24,34.47Z"/><path class="cls-4" d="M25.29,33.7l.12.45.31-.09.07.28-.3.08.19.74c0,.07.05.12.08.13s.07,0,.14,0l.13,0,.08.32-.24.08a.67.67,0,0,1-.37,0,.32.32,0,0,1-.19-.25l-.24-.88-.25.07-.07-.28.25-.07-.12-.45Z"/><path class="cls-4" d="M26.58,33.79a.68.68,0,0,1,.4,0,.74.74,0,0,1,.34.22.85.85,0,0,1,.21.4.45.45,0,0,0,0,.08l-1.09.29a.48.48,0,0,0,.17.25.38.38,0,0,0,.3,0,.4.4,0,0,0,.19-.11.29.29,0,0,0,.09-.17l.36-.1a.69.69,0,0,1-.57.69.78.78,0,0,1-.4,0,.67.67,0,0,1-.36-.19.9.9,0,0,1-.21-.4.77.77,0,0,1,0-.45.82.82,0,0,1,.21-.36A.92.92,0,0,1,26.58,33.79Zm.48.55a.4.4,0,0,0-.17-.22.32.32,0,0,0-.24,0,.34.34,0,0,0-.22.14.47.47,0,0,0,0,.27Z"/><path class="cls-4" d="M28.43,33.3h.09l.11.38-.16,0c-.27.07-.36.27-.27.59l.18.67-.42.11-.4-1.5.4-.1.07.28h0a.46.46,0,0,1,.13-.29A.54.54,0,0,1,28.43,33.3Z"/><path class="cls-4" d="M29.54,33A.54.54,0,0,1,30,33a.66.66,0,0,1,.25.43l.25.93-.41.11-.23-.85a.52.52,0,0,0-.13-.26.25.25,0,0,0-.23,0,.33.33,0,0,0-.22.17.62.62,0,0,0,0,.35l.2.78-.41.11-.4-1.5.39-.1.06.21h0A.54.54,0,0,1,29.54,33Z"/><path class="cls-4" d="M31.09,32.59c.44-.11.7,0,.77.25l.22.8a.6.6,0,0,0,.13.3l-.42.12a.84.84,0,0,1-.06-.14.73.73,0,0,1-.46.32.59.59,0,0,1-.4,0,.42.42,0,0,1-.23-.3.39.39,0,0,1,.05-.35.83.83,0,0,1,.44-.28,1,1,0,0,0,.3-.15.12.12,0,0,0,0-.14.16.16,0,0,0-.1-.13.37.37,0,0,0-.21,0A.38.38,0,0,0,31,33a.29.29,0,0,0,0,.19l-.41.11a.5.5,0,0,1,.1-.43A1,1,0,0,1,31.09,32.59Zm0,1.21c0,.12.13.17.3.12a.31.31,0,0,0,.24-.43l0-.16a.47.47,0,0,1-.23.14.65.65,0,0,0-.23.14A.18.18,0,0,0,31.05,33.8Z"/><path class="cls-4" d="M32.48,31.78l.12.45.3-.08.08.28-.3.08.19.74c0,.07.05.12.08.13s.07,0,.14,0l.13-.05.08.33-.24.08a.67.67,0,0,1-.37,0,.32.32,0,0,1-.19-.25l-.24-.88-.25.07-.07-.28.25-.07-.12-.45Z"/><path class="cls-4" d="M33.37,31.42l.09.34-.41.11L33,31.53Zm.16.57.39,1.5-.41.11-.4-1.5Z"/><path class="cls-4" d="M34.57,31.67a.76.76,0,0,1,.63.07.86.86,0,0,1,.36.51.84.84,0,0,1-.06.63.79.79,0,0,1-.51.37.79.79,0,0,1-.63-.07.89.89,0,0,1-.36-.51.86.86,0,0,1,.06-.64A.81.81,0,0,1,34.57,31.67Zm-.15.89a.65.65,0,0,0,.18.33.37.37,0,0,0,.31,0,.33.33,0,0,0,.24-.2.62.62,0,0,0,0-.38A.65.65,0,0,0,35,32a.34.34,0,0,0-.31-.05.32.32,0,0,0-.24.19A.65.65,0,0,0,34.42,32.56Z"/><path class="cls-4" d="M36.48,31.16a.52.52,0,0,1,.45,0,.66.66,0,0,1,.25.42l.25.94-.41.11-.23-.85a.45.45,0,0,0-.13-.26.23.23,0,0,0-.23,0,.33.33,0,0,0-.22.17.62.62,0,0,0,0,.35l.21.78-.42.11-.4-1.5.4-.1,0,.21h0A.54.54,0,0,1,36.48,31.16Z"/><path class="cls-4" d="M38,30.75c.43-.12.69,0,.76.25l.22.8a.78.78,0,0,0,.13.3l-.41.11a.83.83,0,0,1-.07-.13.73.73,0,0,1-.46.32.6.6,0,0,1-.4,0,.45.45,0,0,1-.23-.3.42.42,0,0,1,0-.35.81.81,0,0,1,.44-.28,1,1,0,0,0,.3-.15.15.15,0,0,0,0-.14.18.18,0,0,0-.11-.13.25.25,0,0,0-.21,0,.27.27,0,0,0-.18.11.23.23,0,0,0,0,.19l-.41.11a.5.5,0,0,1,.1-.43A.89.89,0,0,1,38,30.75ZM38,32c0,.13.13.17.3.13a.32.32,0,0,0,.25-.43l-.05-.16a.47.47,0,0,1-.23.14.53.53,0,0,0-.23.14A.17.17,0,0,0,38,32Z"/><path class="cls-4" d="M39.42,30.42l.23.85a.53.53,0,0,0,.13.26.25.25,0,0,0,.23,0,.29.29,0,0,0,.22-.17.6.6,0,0,0,0-.35L40,30.27l.41-.11.4,1.5-.39.1-.06-.21h0a.6.6,0,0,1-.85.34.72.72,0,0,1-.25-.43L39,30.53Z"/><path class="cls-4" d="M41.09,30l.37.32.16-.46.45-.12-.3.83.76.65-.47.13-.44-.39-.18.55-.47.12.33-.93-.68-.58Z"/><rect class="cls-5" x="24.6" y="39.65" width="5.06" height="5.06" transform="translate(-9.93 8.38) rotate(-14.89)"/><path class="cls-4" d="M27.12,44.29a.46.46,0,0,1-.2.13.2.2,0,0,1-.26-.15c0-.15.08-.27.36-.38v0s-.06-.06-.13,0a.17.17,0,0,0-.14.12l-.14,0a.36.36,0,0,1,.25-.21c.18,0,.3,0,.33.13l.13.49-.16,0Zm-.29-.08a.1.1,0,0,0,.11.07.26.26,0,0,0,.14-.12L27,44C26.88,44.07,26.81,44.13,26.83,44.21Z"/><path class="cls-4" d="M27.28,43.6l.14-.06,0,.08a.35.35,0,0,1,.21-.16.2.2,0,0,1,.27.17l.13.47-.18,0-.12-.44c0-.09-.06-.12-.12-.1a.27.27,0,0,0-.15.12l.13.49-.18,0Z"/><path class="cls-4" d="M29.25,43.8a.32.32,0,0,1-.41-.27.32.32,0,0,1,.22-.44.32.32,0,0,1,.41.26v0l-.46.12c0,.13.11.18.22.15a.21.21,0,0,0,.13-.13l.15,0A.36.36,0,0,1,29.25,43.8Zm0-.48a.14.14,0,1,0-.27.07Z"/><path class="cls-4" d="M25.83,44.72a.34.34,0,0,1-.43-.27.35.35,0,1,1,.67-.18A.35.35,0,0,1,25.83,44.72Zm-.15-.57c-.14,0-.13.16-.11.25s.08.2.22.17.12-.17.1-.25S25.81,44.12,25.68,44.15Z"/><path class="cls-4" d="M26.1,43.9l.17,0,0,.08a.28.28,0,0,1,.16-.14h0l0,.17h0c-.07,0-.16.06-.17.12l.12.46-.18,0Z"/><path class="cls-4" d="M28.46,43.84c.14,0,.12-.18.09-.27s-.1-.18-.2-.15-.12.08-.08.23S28.33,43.87,28.46,43.84Zm.18-.62.17.64c0,.12.07.3-.25.39a.27.27,0,0,1-.33-.09l.17-.08s.05.06.15,0,.12-.08.1-.19l0-.08h0a.16.16,0,0,1-.15.14c-.16,0-.31,0-.37-.26s0-.39.18-.43.2,0,.22,0h0v-.08Z"/><path class="cls-4" d="M29.39,42.78l-.07,0,.05.19h0l0-.19h-.07v0l.18,0Zm.35.11h0l-.05-.18h0l0,.2h0l-.12-.17h0l.05.19h0l-.06-.23h.06l.11.15,0-.19h.06Z"/><path class="cls-5" d="M47.21,32.8,47,32.16a.22.22,0,0,1,0-.08c0-.31-.1-.62-.12-.93a6.59,6.59,0,0,1,1.73-4.91,6.42,6.42,0,0,1,2.52-1.74l.41-.16.64-.17h.06c.25,0,.51-.09.76-.11a6.62,6.62,0,0,1,4.77,1.43,6.53,6.53,0,0,1,2.08,2.81l.15.41.17.64a.22.22,0,0,1,0,.08,6.21,6.21,0,0,1,.14,1.29,6.66,6.66,0,0,1-1.88,4.69A6.52,6.52,0,0,1,56.07,37l-.4.15-.64.17H55a6.62,6.62,0,0,1-1.09.13,6.71,6.71,0,0,1-4.36-1.41,6.56,6.56,0,0,1-2.14-2.85Zm3.35-4.09a11.13,11.13,0,0,0,.29,2.37l2.28-.61-.61-2.29Zm4.7-1.25-2,.52.6,2.29,2.29-.61A10.92,10.92,0,0,0,55.26,27.46Zm-1.92,3.79-2.29.6a11.26,11.26,0,0,0,.93,2.2l2-.52Zm3-.82L54.11,31l.61,2.28,2-.52A11.13,11.13,0,0,0,56.39,30.43Zm-8.6,1.46,2.29-.61a11.75,11.75,0,0,1-.31-2.37l-.08,0-1.78.48a.1.1,0,0,0-.09.09,6.11,6.11,0,0,0-.12,1.71C47.72,31.43,47.76,31.66,47.79,31.89ZM57,29.46l2.29-.61a.25.25,0,0,1,0-.07,6,6,0,0,0-1.2-2s-.07,0-.11,0l-1.79.48-.07,0A11.78,11.78,0,0,1,57,29.46ZM51.2,34.27a11.43,11.43,0,0,1-.91-2.21l-2.28.6v0l0,.05a6,6,0,0,0,1.18,2,.1.1,0,0,0,.12,0l1.78-.47Zm6-4a11.75,11.75,0,0,1,.31,2.37l.08,0,1.78-.48a.1.1,0,0,0,.09-.09,5.73,5.73,0,0,0,.1-1.89c0-.17-.05-.33-.07-.5Zm-5.43-5-.07.06a2,2,0,0,0-.55.69,5.07,5.07,0,0,0-.51,1.91v0l1.71-.46Zm1.36,2,1.72-.46v0a5.22,5.22,0,0,0-1.31-1.34,2.08,2.08,0,0,0-.9-.39H52.5Zm1.65,9.32-.59-2.23-1.72.46s0,0,0,0a5.32,5.32,0,0,0,1.19,1.27,2.51,2.51,0,0,0,.88.44Zm.77-.22h0l.06,0a2.1,2.1,0,0,0,.56-.73,4.9,4.9,0,0,0,.47-1.68,1.49,1.49,0,0,0,0-.21l-1.72.46ZM50,35.42a6,6,0,0,0,3.17,1.24v0A6.63,6.63,0,0,1,51.65,35a.08.08,0,0,0-.1,0L50,35.4Zm7,.21A5.88,5.88,0,0,0,59.12,33s0,0,0,0l-1.59.42s0,0,0,.08c0,.3-.06.59-.11.89A6,6,0,0,1,57,35.63Zm-6.75-9.76A6.29,6.29,0,0,0,49,27a5.82,5.82,0,0,0-.87,1.49l.09,0,1.48-.39c.07,0,.1-.05.1-.12A6.55,6.55,0,0,1,50,26.77C50.05,26.47,50.15,26.17,50.24,25.87Zm3.87-1v0l.09.07a6.73,6.73,0,0,1,1.37,1.54.1.1,0,0,0,.13.05l1.5-.4.08,0A6,6,0,0,0,54.11,24.84Z"/></g></g></svg>