<svg xmlns="http://www.w3.org/2000/svg" viewBox="0 0 46.7 53.59"><defs><style>.cls-1{fill:#4bb4e6;}.cls-2{fill:#ff7900;}.cls-3{fill-rule:evenodd;}.cls-4{fill:#fff;}</style></defs><g id="Layer_2" data-name="Layer 2"><g id="Layer_1-2" data-name="Layer 1"><circle class="cls-1" cx="23.35" cy="30.24" r="23.35"/><rect class="cls-2" x="31.51" y="31.75" width="7.56" height="7.56"/><path class="cls-2" d="M39.07,24.19a1.52,1.52,0,0,0-1.51-1.51H31.51v7.56h7.56Z"/><rect class="cls-2" x="22.44" y="40.82" width="7.56" height="7.56"/><path class="cls-2" d="M39.07,46.87v-6H31.51v7.56h6.05A1.52,1.52,0,0,0,39.07,46.87Z"/><polygon class="cls-2" points="30 22.68 22.44 22.68 22.44 31.75 13.37 31.75 13.37 39.31 30 39.31 30 22.68"/><path class="cls-2" d="M20.93,22.68h-6a1.52,1.52,0,0,0-1.51,1.51v6h7.56Z"/><path class="cls-2" d="M14.88,48.38h6V40.82H13.37v6A1.52,1.52,0,0,0,14.88,48.38Z"/><path class="cls-3" d="M36.35,4.84,31.51,0H13.37a3,3,0,0,0-3,3V48.38a3,3,0,0,0,3,3h25.7a3,3,0,0,0,3-3V10.58ZM20.93,22.68v7.56H13.37v-6a1.52,1.52,0,0,1,1.51-1.51Zm0,25.7h-6a1.52,1.52,0,0,1-1.51-1.51v-6h7.56Zm9.07,0H22.44V40.82H30Zm0-9.07H13.37V31.75h9.07V22.68H30Zm9.07,7.56a1.52,1.52,0,0,1-1.51,1.51H31.51V40.82h7.56Zm0-7.56H31.51V31.75h7.56Zm0-9.07H31.51V22.68h6.05a1.52,1.52,0,0,1,1.51,1.51Z"/><path class="cls-4" d="M18,7.71l2.25,3.8,2.24-3.8h2.35l-3.57,5.93v3.69H19.15V13.58L15.61,7.71Z"/><path class="cls-4" d="M27.08,10.18a3.47,3.47,0,0,1,2.64,1,3.69,3.69,0,0,1,1,2.66,3.62,3.62,0,0,1-1,2.66,3.5,3.5,0,0,1-2.62,1,3.47,3.47,0,0,1-2.63-1,3.71,3.71,0,0,1-1-2.65,3.65,3.65,0,0,1,1-2.68A3.53,3.53,0,0,1,27.08,10.18ZM25.4,13.85a2.67,2.67,0,0,0,.43,1.64,1.45,1.45,0,0,0,1.25.58,1.44,1.44,0,0,0,1.27-.59,2.7,2.7,0,0,0,.43-1.63,2.68,2.68,0,0,0-.44-1.65,1.49,1.49,0,0,0-1.27-.58,1.45,1.45,0,0,0-1.24.58A2.68,2.68,0,0,0,25.4,13.85Z"/><path class="cls-4" d="M33.73,15.25v2.08H31.62V15.25Zm-.06-7.54V10.3l-.53,4.14h-1l-.51-4.14V7.71Z"/></g></g></svg>