<svg xmlns="http://www.w3.org/2000/svg" viewBox="0 0 54.35 71.03"><defs><style>.cls-1{fill:#ff7900;}.cls-2{fill:#4bb4e6;}.cls-3,.cls-7{fill:#fff;}.cls-4{fill:#ffd200;}.cls-5{fill:#ffb400;}.cls-6,.cls-7{fill-rule:evenodd;}.cls-7{opacity:0.13;}</style></defs><g id="Layer_2" data-name="Layer 2"><g id="Layer_1-2" data-name="Layer 1"><circle class="cls-1" cx="32.38" cy="49.05" r="21.98"/><path class="cls-2" d="M30.93,47.92l2.3-.66c-7.77-11.88-2.73-27.09-10.52-39l-2.3.65C28.17,20.83,23.13,36,30.93,47.92Z"/><path class="cls-1" d="M26.58,3.74A6.41,6.41,0,1,1,18.08.58,6.41,6.41,0,0,1,26.58,3.74Z"/><path class="cls-3" d="M24.84,4.35a4.69,4.69,0,0,1-1.93,6.33,4.69,4.69,0,0,1-6.25-2.2,4.69,4.69,0,0,1,1.93-6.33A4.69,4.69,0,0,1,24.84,4.35Z"/><path d="M23.56,4a2.31,2.31,0,1,1-4.11,2.08,2.35,2.35,0,0,1,1-3.19A2.36,2.36,0,0,1,23.56,4Z"/><path class="cls-3" d="M22.28,3.69a.63.63,0,1,1-1.13.57.63.63,0,1,1,1.13-.57Z"/><path class="cls-2" d="M22,50.11l2.18-1C22.49,36,10.08,27.76,8.43,14.61l-2.19,1C7.89,28.75,20.3,37,22,50.11Z"/><circle class="cls-1" cx="6.41" cy="12.77" r="6.41" transform="translate(-7.78 11.09) rotate(-56.58)"/><path class="cls-3" d="M10.5,10.7A4.68,4.68,0,0,1,8.57,17a4.67,4.67,0,0,1-6.24-2.2A4.68,4.68,0,0,1,4.26,8.5,4.69,4.69,0,0,1,10.5,10.7Z"/><path d="M9.22,10.32a2.36,2.36,0,0,1-1,3.19,2.41,2.41,0,0,1-2.17-4.3A2.36,2.36,0,0,1,9.22,10.32Z"/><path class="cls-3" d="M8,10a.66.66,0,0,1-.27.88.66.66,0,0,1-.6-1.18A.66.66,0,0,1,8,10Z"/><rect class="cls-1" x="40.06" y="50.47" width="7.12" height="7.12"/><path class="cls-4" d="M47.17,43.36a1.42,1.42,0,0,0-1.42-1.43H40.06v7.12h7.11Z"/><rect class="cls-1" x="31.52" y="59.01" width="7.12" height="7.12"/><path class="cls-4" d="M47.17,64.7V59H40.06v7.12h5.69A1.42,1.42,0,0,0,47.17,64.7Z"/><polygon class="cls-1" points="38.64 41.94 31.52 41.94 31.52 50.47 22.98 50.47 22.98 57.59 38.64 57.59 38.64 41.94"/><path class="cls-5" d="M30.1,41.93H24.41A1.43,1.43,0,0,0,23,43.36v5.69H30.1Z"/><path class="cls-4" d="M24.41,66.13H30.1V59H23V64.7A1.43,1.43,0,0,0,24.41,66.13Z"/><path class="cls-6" d="M44.62,25.15l-4.56-4.56H23a2.84,2.84,0,0,0-2.84,2.85v6.11a25.81,25.81,0,0,1,24.48-4.4Z"/><path class="cls-6" d="M23,69H47.17A2.84,2.84,0,0,0,50,66.13V30.55l-5.4-5.4a25.81,25.81,0,0,0-24.48,4.4V66.13A2.84,2.84,0,0,0,23,69Zm15.66-2.84H31.52V59h7.12Zm1.42-24.2h5.69a1.42,1.42,0,0,1,1.42,1.43v5.69H40.06Zm0,8.54h7.11v7.12H40.06Zm0,8.54h7.11V64.7a1.42,1.42,0,0,1-1.42,1.43H40.06ZM23,43.36a1.43,1.43,0,0,1,1.43-1.43H30.1v7.12H23Zm0,7.11h8.54V41.93h7.12V57.59H23ZM23,59H30.1v7.12H24.41A1.43,1.43,0,0,1,23,64.7Z"/><path class="cls-7" d="M44.62,25.15l-4.56-4.56H23a2.84,2.84,0,0,0-2.84,2.85v6.11a25.81,25.81,0,0,1,24.48-4.4Z"/><path class="cls-3" d="M24.11,26.92l1.73,2.93,1.73-2.93h1.82l-2.76,4.57v2.85H25V31.45l-2.74-4.53Z"/><path class="cls-3" d="M31.44,28.82a2.67,2.67,0,0,1,2,.79,3.16,3.16,0,0,1,0,4.11,2.73,2.73,0,0,1-2,.77,2.66,2.66,0,0,1-2-.79,3.16,3.16,0,0,1,0-4.11A2.72,2.72,0,0,1,31.44,28.82Zm-1.3,2.84a2.11,2.11,0,0,0,.33,1.27,1.27,1.27,0,0,0,2,0,2.14,2.14,0,0,0,.33-1.26,2.07,2.07,0,0,0-.34-1.28,1.14,1.14,0,0,0-1-.45,1.12,1.12,0,0,0-1,.45A2.14,2.14,0,0,0,30.14,31.66Z"/><path class="cls-3" d="M36.33,29l1,1.4.93-1.4h1.64l-1.77,2.51,2,2.86H38.38l-1.13-1.69-1.12,1.69H34.48l1.93-2.82L34.64,29Z"/><path class="cls-3" d="M43.05,28.82a2.67,2.67,0,0,1,2,.79,3.16,3.16,0,0,1,0,4.11,2.73,2.73,0,0,1-2,.77,2.66,2.66,0,0,1-2-.79,3.16,3.16,0,0,1,0-4.11A2.72,2.72,0,0,1,43.05,28.82Zm-1.3,2.84a2.11,2.11,0,0,0,.33,1.27,1.27,1.27,0,0,0,2,0,2.14,2.14,0,0,0,.33-1.26A2.07,2.07,0,0,0,44,30.38a1.14,1.14,0,0,0-1-.45,1.12,1.12,0,0,0-1,.45A2.14,2.14,0,0,0,41.75,31.66Z"/></g></g></svg>